<svg width="1440" height="469" viewBox="0 0 1440 469" fill="none" xmlns="http://www.w3.org/2000/svg">
<rect y="0.0650635" width="1440" height="468" fill="#EAF7FF"/>
<g opacity="0.54" clip-path="url(#clip0_1115_3912)">
<path d="M0.0439453 16.3155C0.0439453 21.1089 0.0439453 26.5016 0.0439453 31.295C63.018 64.25 127.791 93.0107 193.164 118.176C264.535 145.14 337.705 165.512 410.275 186.483C442.062 195.471 473.249 205.058 504.436 217.041C539.822 229.025 570.409 251.794 594.399 285.947C611.192 309.915 623.787 336.878 634.583 365.638C648.377 401.589 657.973 439.338 668.769 476.487C682.563 524.422 696.357 571.757 706.553 620.89C716.149 665.828 725.145 710.767 735.341 755.706C744.937 797.049 756.333 837.194 773.126 874.943C802.514 940.853 846.895 981.597 908.67 994.779C936.858 1000.77 965.047 1001.97 993.235 1001.37C1044.21 999.573 1095.19 995.978 1146.17 994.18C1227.74 991.184 1308.71 994.779 1389.07 1011.56C1399.27 1013.95 1410.06 1016.35 1420.26 1019.35C1441.85 1019.35 1463.44 1019.35 1485.03 1019.35C1476.64 1016.35 1468.84 1013.35 1460.44 1010.96C1381.88 987.589 1301.51 977.403 1221.14 975.006C1169.56 973.808 1118.58 975.006 1067 975.006C1029.22 975.006 991.436 975.605 953.651 970.213C924.263 966.019 896.075 957.63 870.286 940.853C836.1 918.683 810.91 885.728 791.118 846.182C773.126 809.632 760.531 770.685 750.335 729.941C739.539 685.002 730.543 640.064 719.748 596.323C703.554 532.81 686.161 469.896 669.368 406.383C659.772 371.63 648.977 338.076 634.583 306.319C613.591 260.182 583.004 226.628 542.82 207.454C528.426 200.863 513.433 194.272 498.439 190.078C453.457 178.095 409.076 167.309 364.094 155.925C275.93 133.755 188.966 105.594 104.401 67.2459C69.0155 51.068 34.8296 33.0926 0.0439453 16.3155Z" fill="#D9F1FF"/>
<path d="M25.2386 0.138672C17.4418 0.138672 9.64501 0.138672 2.44797 0.138672C-0.550794 0.138672 0.0489595 1.33698 0.0489595 3.13452C1.24847 3.7337 2.44797 3.7337 3.64748 4.33289C94.2102 54.6642 188.371 93.0119 285.531 120.574C347.906 138.55 410.28 151.133 473.254 163.715C500.243 169.108 527.232 175.699 553.021 187.083C592.605 204.46 623.792 235.018 644.784 279.957C654.979 301.527 663.976 324.296 670.573 347.664C680.769 383.615 689.765 420.165 699.361 456.715C713.155 510.042 726.95 563.37 740.744 616.098C750.34 652.048 758.737 688.599 768.333 724.549C778.529 762.298 792.923 797.65 810.915 830.605C843.902 888.725 888.283 925.875 945.86 940.255C965.651 945.048 986.043 949.243 1006.43 950.441C1046.02 952.838 1085.6 954.036 1125.19 954.635C1197.16 955.834 1269.73 958.23 1341.7 968.416C1395.07 976.206 1447.85 986.991 1499.43 1005.57C1499.43 998.975 1499.43 992.384 1499.43 985.793C1497.63 985.193 1496.43 984.594 1494.63 983.995C1420.86 960.627 1345.89 948.643 1269.73 942.652C1216.35 938.457 1162.37 936.061 1108.99 933.065C1070.61 930.668 1032.22 928.87 993.84 921.68C964.452 915.688 936.263 906.701 909.874 890.523C873.289 868.353 845.101 834.2 822.31 794.055C801.919 757.504 787.525 717.958 776.129 676.615C762.935 628.081 750.34 578.948 737.745 529.815C723.351 473.492 709.557 417.169 695.763 360.846C686.766 325.494 677.17 291.341 662.176 258.985C642.984 217.042 614.796 187.083 577.611 170.306C554.821 160.12 531.43 154.128 507.44 149.934C460.06 141.546 412.079 134.355 364.699 125.368C248.347 102.599 136.793 61.8544 29.4369 3.7337C27.6376 2.53534 26.4381 1.33704 25.2386 0.138672Z" fill="#D9F1FF"/>
<path d="M78.0165 0.145386C68.4205 0.145386 59.4242 0.145386 49.8281 0.145386C51.0276 0.744568 52.2271 1.94299 54.0264 2.54218C102.606 27.7078 152.386 49.2783 203.365 67.2538C295.727 100.209 390.488 117.585 486.448 127.771C514.037 130.767 541.626 133.763 568.614 141.552C590.206 147.544 611.197 157.131 629.789 172.111C653.779 191.884 670.573 218.847 683.167 250.004C695.762 281.761 704.758 315.315 711.955 349.468C732.347 449.532 759.336 547.198 786.325 644.865C798.32 688.006 812.714 729.949 834.305 767.697C855.296 805.446 881.086 837.802 913.472 860.57C938.662 878.546 965.651 889.331 994.439 897.121C1035.22 907.906 1077.2 911.501 1119.19 915.096C1178.56 919.889 1237.94 924.084 1296.71 929.476C1347.69 934.27 1398.67 942.658 1449.05 954.642C1465.84 958.836 1482.64 963.63 1499.43 967.824C1499.43 961.832 1499.43 955.241 1499.43 949.249C1498.23 948.65 1497.63 948.65 1496.43 948.051C1419.06 927.08 1341.1 915.695 1261.93 907.906C1207.35 902.513 1153.37 897.72 1098.8 891.728C1064.61 888.133 1031.02 881.542 998.038 870.757C955.455 856.975 917.071 833.607 885.284 795.859C854.697 759.908 832.506 717.965 815.713 671.229C790.523 599.926 770.731 526.826 752.739 452.528C741.943 408.188 734.146 363.25 725.15 318.311C718.553 285.356 710.756 252.401 698.761 221.243C679.569 171.511 648.981 139.156 605.199 124.176C580.61 115.787 555.42 112.192 529.631 109.796C496.644 107.399 463.658 105.601 431.271 102.606C321.516 91.8203 215.36 63.0595 112.802 16.3234C100.807 11.5299 89.4118 5.53802 78.0165 0.145386Z" fill="#D9F1FF"/>
<path d="M1499.43 931.253C1499.43 925.262 1499.43 918.671 1499.43 912.679C1498.23 912.679 1497.03 912.08 1495.83 912.08C1438.25 898.898 1380.68 889.311 1322.5 882.121C1264.32 874.331 1205.55 867.141 1147.37 859.352C1108.99 853.959 1071.2 846.17 1034.02 833.587C952.453 806.624 892.478 747.904 853.494 656.828C840.299 625.671 828.904 593.315 818.708 560.36C801.915 507.033 785.721 453.706 776.125 397.382C768.329 351.245 761.731 305.108 753.935 259.571C748.537 227.215 742.539 195.458 731.744 164.9C719.749 132.544 702.356 106.18 674.767 90.6013C662.772 84.0103 650.177 79.816 637.583 76.8201C608.794 70.2291 580.006 69.6299 551.218 70.2291C509.835 70.8283 468.452 73.225 426.469 70.8284C328.11 65.4357 232.149 42.0676 139.787 2.52167C139.787 1.92249 138.588 0.72406 137.388 0.124878C126.593 0.124878 115.797 0.124878 105.602 0.124878C106.801 0.72406 108.001 1.92242 109.2 1.92242C123.594 8.51343 137.988 15.1044 152.382 21.0963C225.552 51.0554 299.922 71.4275 376.69 81.6136C422.271 87.6054 468.452 90.6013 514.033 90.6013C545.221 90.6013 577.007 91.7997 607.595 98.9899C628.586 103.783 648.978 111.573 666.97 125.953C690.361 144.528 705.355 170.892 716.15 200.851C727.545 232.008 734.143 264.963 740.14 297.918C747.937 341.059 755.734 384.8 764.13 427.941C775.526 483.665 792.319 536.992 808.512 590.918C818.708 625.072 830.103 658.027 844.497 689.783C882.882 773.669 939.858 828.194 1016.63 852.761C1050.81 863.546 1085 870.736 1119.78 874.93C1182.76 882.72 1245.73 889.311 1308.11 897.1C1360.28 903.092 1412.46 911.48 1464.04 922.865C1476.64 925.861 1488.03 928.258 1499.43 931.253Z" fill="#D9F1FF"/>
<path d="M1499.43 895.325C1499.43 888.734 1499.43 882.143 1499.43 875.552C1498.23 875.552 1497.03 875.552 1495.83 875.552C1429.26 865.366 1363.29 855.18 1296.71 844.395C1247.53 836.606 1198.95 829.415 1150.37 820.428C1114.39 813.837 1078.4 803.651 1044.22 788.671C976.445 759.311 924.266 708.381 888.881 632.884C874.487 602.925 863.091 571.767 851.696 540.011C834.303 490.878 819.309 440.547 810.913 387.819C803.116 341.082 798.918 293.148 794.12 245.812C790.521 209.861 787.523 173.911 780.925 138.559C777.327 119.385 773.128 100.81 765.931 82.835C752.737 49.2808 731.146 29.5077 701.158 22.9167C690.962 20.52 680.167 19.3216 669.371 18.7224C632.786 16.9249 596.201 22.9167 560.216 27.7101C522.432 33.1028 484.647 37.8962 446.863 38.4954C376.092 39.6938 305.921 30.1069 236.949 9.73474C227.353 7.33801 217.157 3.74292 206.961 0.147827C193.767 0.147827 181.172 0.147827 167.978 0.147827C169.177 0.747009 170.377 1.34625 171.576 1.94543C193.167 9.13556 214.758 17.524 236.349 24.1151C327.512 51.6774 419.874 60.6652 513.435 53.475C548.221 51.0782 582.407 49.2808 617.193 47.4832C636.385 46.884 655.577 49.2807 674.769 54.6733C708.355 64.2603 732.345 87.6284 746.739 124.778C755.136 146.348 761.133 169.117 764.732 193.084C770.729 234.428 776.727 275.172 782.125 316.516C791.121 389.616 804.915 460.319 828.306 529.225C842.1 571.168 855.894 613.111 874.487 652.058C902.675 710.777 940.46 757.514 990.839 787.473C1022.63 806.647 1056.21 818.63 1091 827.618C1143.18 840.8 1196.55 847.391 1249.33 855.18C1317.7 864.767 1385.48 874.953 1453.25 885.139C1468.84 888.135 1483.84 892.33 1499.43 895.325Z" fill="#D9F1FF"/>
<path d="M871.485 1018.75C870.885 1018.15 870.286 1018.15 869.086 1017.55C818.707 1001.37 783.321 963.622 759.931 909.096C745.537 875.542 735.341 840.19 727.544 804.239C716.749 753.908 706.553 703.577 696.957 653.246C686.161 595.724 670.568 539.401 653.775 483.677C642.379 447.127 632.184 409.379 617.79 374.027C605.795 344.667 591.4 316.505 572.208 293.137C548.218 263.777 519.43 244.604 488.243 230.823C451.058 215.244 413.274 203.26 374.89 191.876C295.722 167.309 217.155 142.144 139.786 109.788C94.2052 90.6139 48.6239 70.2418 4.24222 47.4729C3.04271 46.2745 1.24345 45.6753 0.0439453 45.6753C0.0439453 50.4688 0.0439453 55.8614 0.0439453 60.6548C1.24345 61.254 2.44296 61.8532 3.04271 61.8532C36.6289 77.4319 69.6153 93.6099 103.201 108.589C182.969 143.941 264.535 172.702 346.701 200.264C388.684 214.045 430.067 228.426 470.85 247.6C494.24 258.385 517.031 272.166 536.823 290.741C564.412 316.505 584.203 350.06 600.397 387.209C614.191 418.966 624.987 452.52 635.182 486.074C651.976 537.604 666.969 589.732 677.165 644.258C686.761 699.383 696.357 755.107 707.153 810.231C714.35 849.777 722.746 889.323 735.341 927.072C746.737 961.824 762.33 992.982 786.32 1016.95C786.92 1017.55 787.52 1018.15 787.52 1019.35C815.708 1018.75 843.896 1018.75 871.485 1018.75Z" fill="#D9F1FF"/>
<path d="M755.139 0.142212C756.938 1.93976 759.337 3.7373 761.136 5.53485C770.732 13.9234 777.33 25.3078 783.327 37.8906C793.523 60.6595 798.321 85.8252 801.32 111.59C805.518 150.537 808.517 190.083 811.515 229.03C815.114 278.762 818.713 328.494 825.91 377.627C834.306 433.95 850.499 487.277 869.691 539.406C881.087 569.964 893.082 600.522 908.076 629.283C942.861 696.391 991.441 741.929 1052.02 770.091C1089.8 787.467 1128.78 799.451 1168.37 806.641C1219.35 816.228 1270.93 824.017 1321.91 832.406C1380.08 841.393 1437.66 849.782 1495.83 858.77C1497.03 858.77 1498.23 858.77 1499.43 859.369C1499.43 853.377 1499.43 846.786 1499.43 840.794C1498.23 839.596 1497.03 838.997 1495.83 838.997C1455.65 833.005 1415.47 827.612 1374.68 821.62C1311.71 812.633 1248.74 804.244 1185.76 790.463C1144.98 781.475 1104.79 770.091 1065.81 752.115C1008.23 724.553 959.654 681.412 925.469 617.299C894.881 560.377 872.69 498.661 855.897 433.95C842.103 381.222 836.705 327.295 834.306 272.171C831.907 219.443 830.108 166.715 827.709 113.987C825.91 75.6391 823.511 36.6923 812.715 -0.45697C793.523 0.142212 774.331 0.142212 755.139 0.142212Z" fill="#D9F1FF"/>
<path d="M704.754 1018.76C717.349 1018.76 730.543 1018.76 743.138 1018.76C738.34 1007.97 732.343 997.789 728.144 987.004C716.749 958.842 708.952 928.883 703.554 898.325C693.359 839.006 683.163 779.088 674.166 719.169C662.771 647.268 649.577 575.965 625.586 507.658C613.591 472.906 602.796 437.554 587.802 404.599C571.009 366.85 550.617 333.296 523.029 306.333C501.438 285.961 477.447 271.581 452.858 258.998C412.074 238.626 369.492 223.047 326.909 208.067C234.547 175.112 142.785 140.36 52.8222 98.4171C34.8296 90.0285 17.4368 81.64 0.0439453 73.2514C0.0439453 78.644 0.0439453 84.0367 0.0439453 89.4293C1.24345 90.0284 3.04271 90.6277 4.24222 91.2269C39.0279 106.806 73.8136 123.583 109.199 138.562C181.169 168.521 254.339 196.683 326.31 225.444C366.493 241.622 406.677 258.399 445.66 279.37C503.237 309.928 547.019 359.061 575.207 427.368C585.403 451.335 594.399 476.501 603.396 501.067C618.989 544.208 633.383 588.548 641.78 634.685C653.775 697 660.972 760.513 669.968 824.026C678.964 889.936 685.562 955.846 704.754 1018.76Z" fill="#D9F1FF"/>
<path d="M1499.43 821.627C1499.43 815.635 1499.43 809.044 1499.43 803.053C1467.05 799.457 1434.66 795.862 1402.87 791.668C1338.7 783.879 1274.52 774.891 1210.95 759.911C1170.77 750.325 1131.78 738.341 1094 720.365C1053.22 700.592 1016.03 673.629 984.844 634.682C963.853 608.318 946.46 578.359 932.665 546.004C911.674 498.668 893.082 450.734 882.886 398.605C873.29 350.071 869.691 300.339 868.492 250.607C867.292 184.697 870.291 119.386 873.29 53.4761C873.89 36.0999 874.489 18.1245 875.089 0.748169C865.493 0.748169 855.297 0.748169 845.701 0.748169C846.901 34.9016 848.1 69.0549 848.7 103.208C849.3 162.527 848.1 221.846 851.099 281.165C853.498 327.901 858.296 374.638 868.492 419.576C881.087 475.3 901.478 527.429 925.468 577.76C948.859 627.492 980.046 669.435 1020.23 700.592C1053.82 726.357 1090.4 743.734 1128.78 756.316C1183.36 774.891 1239.14 785.676 1295.52 794.065C1354.29 803.053 1413.67 810.243 1472.44 818.631C1481.44 819.83 1490.44 820.429 1499.43 821.627Z" fill="#D9F1FF"/>
<path d="M922.467 0.128296C914.67 0.128296 906.873 0.128296 899.076 0.128296C896.078 30.6866 893.079 61.8441 890.68 92.4023C885.282 160.709 882.283 229.615 886.481 298.521C889.48 345.257 894.878 391.394 908.672 435.734C921.267 478.275 938.06 519.02 957.852 557.367C982.442 605.302 1014.23 644.848 1054.41 674.208C1086.2 696.977 1119.79 713.155 1155.17 725.738C1215.15 746.709 1276.92 758.693 1338.7 767.081C1379.48 773.073 1420.86 777.267 1461.64 782.061C1474.24 783.259 1486.83 783.858 1499.43 785.057C1499.43 778.466 1499.43 771.875 1499.43 765.284C1494.63 765.284 1489.83 764.684 1484.44 764.684C1408.27 759.292 1332.7 750.903 1257.13 734.725C1211.55 725.138 1167.17 711.956 1123.98 691.584C1082 671.212 1043.62 644.249 1011.83 604.104C988.44 574.744 969.847 540.59 953.654 505.239C929.064 451.312 912.271 393.791 906.273 332.075C901.475 279.347 901.475 226.02 904.474 172.693C908.073 114.572 914.67 57.0506 922.467 0.128296Z" fill="#D9F1FF"/>
<path d="M649.577 1018.76C658.573 1018.76 667.569 1018.76 675.966 1018.76C675.966 1017.56 675.966 1015.76 675.366 1014.57C670.568 982.21 665.77 949.854 661.572 916.899C653.175 847.394 645.978 777.889 638.181 708.384C626.786 610.717 597.398 520.84 558.414 435.157C538.022 390.818 511.633 352.47 476.248 324.309C451.058 304.536 424.669 288.358 397.08 274.576C351.499 251.208 304.719 232.634 257.338 214.059C171.573 178.707 85.2089 142.757 0.0439453 103.211C0.0439453 108.603 0.0439453 113.996 0.0439453 119.388C1.24345 119.988 3.04271 119.988 4.24222 120.587C36.6289 134.967 69.0155 149.347 101.402 163.129C172.773 193.687 244.743 223.646 316.114 254.803C354.498 271.581 392.282 290.754 428.268 314.722C475.648 345.879 514.032 387.822 541.021 444.744C550.018 462.72 557.814 481.893 565.611 500.468C596.199 571.171 614.191 646.069 623.187 725.161C630.384 787.476 635.182 850.39 639.98 913.304C642.979 948.057 646.578 983.409 649.577 1018.76Z" fill="#D9F1FF"/>
<path d="M962.049 0.150146C955.452 0.150146 948.255 0.150146 941.658 0.150146C939.259 15.7289 936.26 30.7084 934.461 46.2872C924.265 116.991 917.068 188.293 918.267 260.794C918.867 300.939 921.866 341.085 929.663 380.631C942.857 446.541 969.246 505.26 1002.83 559.187C1025.62 595.737 1053.81 625.097 1086.8 647.866C1111.39 665.242 1137.78 678.424 1164.77 689.209C1218.74 710.78 1274.52 722.763 1330.9 731.751C1386.67 740.739 1443.05 745.532 1500.03 747.929C1500.03 740.739 1500.03 734.148 1500.03 726.958C1428.06 725.759 1357.29 719.168 1287.12 704.189C1243.33 695.201 1200.15 682.618 1158.17 664.044C1119.78 646.667 1084.4 623.898 1053.81 591.543C1008.23 543.009 978.243 481.293 956.052 414.185C940.458 367.449 936.26 317.117 935.06 267.385C933.861 213.459 937.459 160.132 944.656 107.404C950.054 71.4528 956.652 35.5019 962.049 0.150146Z" fill="#D9F1FF"/>
<path d="M605.795 1018.76C612.992 1018.76 620.189 1018.76 627.386 1018.76C627.386 1016.36 627.386 1013.97 627.386 1010.97C626.186 988.202 624.987 965.433 623.787 942.065C620.788 876.155 617.79 809.646 610.593 744.335C605.795 698.797 599.197 652.66 587.202 608.92C574.008 560.386 554.815 514.848 534.424 470.509C507.435 412.388 469.651 366.851 422.87 332.697C392.882 311.127 361.095 291.953 328.109 276.973C268.733 250.01 209.358 223.646 149.982 197.881C100.203 175.712 49.8234 154.141 0.0439453 131.971C0.0439453 137.364 0.0439453 142.757 0.0439453 148.149C14.438 154.141 28.8321 160.133 42.6264 166.125C118.795 199.679 194.964 232.634 271.132 267.386C311.916 285.961 351.499 306.932 389.284 333.296C427.668 360.26 463.053 392.615 490.642 435.157C511.034 466.315 526.627 500.468 542.221 535.82C563.812 583.754 578.806 634.685 586.602 689.21C596.798 756.319 600.997 823.427 602.796 891.135C603.995 933.676 605.195 976.218 605.795 1018.76Z" fill="#D9F1FF"/>
<path d="M997.436 0.137878C991.439 0.137878 985.441 0.137878 979.444 0.137878C979.444 0.737061 978.844 1.3363 978.844 1.93549C966.249 66.0479 956.053 130.759 952.455 196.669C950.056 236.815 950.056 276.96 954.254 317.105C959.652 375.226 975.845 427.954 1000.44 478.285C1031.62 542.397 1072.41 593.328 1128.18 627.481C1164.77 649.651 1203.75 665.23 1243.93 676.614C1327.9 699.982 1413.67 708.97 1500.03 707.772C1500.03 700.581 1500.03 693.391 1500.03 686.201C1447.85 689.197 1395.67 686.201 1344.09 678.412C1291.32 670.622 1239.74 657.44 1189.36 636.469C1118.59 606.51 1061.61 555.579 1022.03 477.087C1004.03 441.735 988.44 405.784 980.044 365.639C968.648 310.514 966.849 254.191 970.448 197.269C974.046 133.156 984.242 70.2421 996.837 7.92719C996.837 5.53046 996.837 2.53461 997.436 0.137878Z" fill="#D9F1FF"/>
<path d="M568.01 1018.76C574.607 1018.76 581.205 1018.76 587.802 1018.76C587.802 1016.96 587.802 1015.76 587.802 1013.97C587.802 990 587.802 965.433 587.802 941.466C587.802 879.75 586.602 818.634 580.605 757.517C576.407 715.574 571.009 674.231 560.813 634.086C551.817 596.936 536.823 563.981 522.429 529.828C488.843 451.934 441.462 390.219 378.488 345.879C340.704 318.317 299.921 296.746 259.137 276.374C178.77 237.427 96.6042 202.675 14.438 167.922C9.63999 166.125 4.84197 164.327 0.0439453 162.529C0.0439453 167.922 0.0439453 173.315 0.0439453 178.707C1.8432 179.307 3.04271 179.307 4.84197 179.906C54.0217 200.877 102.602 221.249 151.781 242.82C204.56 266.188 256.738 290.754 307.717 320.714C346.102 343.482 382.686 369.247 415.073 402.202C454.057 442.347 484.045 490.881 509.234 544.208C531.425 592.143 548.218 641.875 556.615 696.4C563.212 741.938 568.01 787.476 568.61 833.014C569.21 890.535 568.61 948.057 568.61 1005.58C568.01 1010.37 568.01 1014.57 568.01 1018.76Z" fill="#D9F1FF"/>
<path d="M1499.43 665.225C1499.43 657.435 1499.43 649.646 1499.43 641.857C1492.24 643.055 1484.44 644.253 1477.24 644.853C1424.46 650.245 1372.29 646.65 1320.71 637.063C1275.13 628.675 1230.74 614.893 1188.76 593.323C1102.4 548.983 1046.62 470.491 1015.43 365.634C1002.84 322.493 1000.44 276.356 1001.04 230.818C1002.24 171.499 1010.04 113.378 1020.83 55.8569C1024.43 37.2823 1028.63 19.3068 1032.23 0.732178C1026.23 0.732178 1020.23 0.732178 1014.23 0.732178C1013.63 3.12891 1013.63 4.92645 1013.03 7.32318C1007.64 35.4847 1002.24 63.0471 997.441 91.2086C987.245 152.924 981.247 215.838 984.846 279.352C987.245 334.476 998.04 387.204 1020.83 436.337C1043.02 484.272 1069.41 527.413 1105.4 560.967C1137.18 590.926 1173.17 611.898 1211.55 626.877C1296.72 660.431 1384.88 672.415 1474.24 668.82C1482.04 667.022 1491.04 665.824 1499.43 665.225Z" fill="#D9F1FF"/>
<path d="M1499.43 437.552C1499.43 425.568 1499.43 413.585 1499.43 401.601C1489.23 407.593 1479.03 412.986 1468.84 418.977C1426.26 442.945 1381.27 453.131 1334.49 447.139C1218.14 432.159 1144.37 312.922 1139.57 203.871C1137.78 163.726 1139.57 123.581 1144.97 83.4356C1148.57 55.2741 1153.37 27.7117 1157.57 0.149353C1151.57 0.149353 1146.17 0.149353 1140.17 0.149353C1137.18 18.724 1133.58 37.8978 1130.58 56.4725C1122.78 104.407 1117.38 152.342 1118.58 200.875C1120.98 302.137 1158.17 380.63 1227.74 433.957C1301.51 490.879 1381.27 495.074 1462.84 457.924C1476.04 451.932 1487.43 444.742 1499.43 437.552Z" fill="#D9F1FF"/>
<path d="M1499.42 565.76C1499.42 554.974 1499.42 544.189 1499.42 533.404C1477.83 543.59 1455.64 551.379 1432.25 554.974C1377.67 563.962 1323.7 556.173 1270.92 538.197C1187.55 509.437 1126.98 447.721 1089.19 353.05C1073.6 314.703 1068.2 273.359 1067 230.817C1065.8 185.279 1070 140.341 1077.2 96.0013C1082.6 63.6454 1088.59 31.8888 1094.59 -0.467041C1089.19 -0.467041 1083.8 -0.467041 1078.4 -0.467041C1075.4 12.715 1073 25.897 1070 39.079C1058.61 96.6004 1049.61 155.32 1049.01 214.639C1048.41 254.185 1050.21 294.33 1061.01 332.079C1086.79 421.956 1133.58 490.862 1204.95 532.805C1275.72 574.747 1351.29 588.529 1429.85 581.938C1453.84 580.14 1476.63 574.747 1499.42 565.76Z" fill="#D9F1FF"/>
<path d="M1499.43 504.644C1499.43 493.259 1499.43 481.276 1499.43 469.891C1442.45 504.644 1382.47 516.028 1319.5 502.846C1257.13 490.263 1203.75 457.308 1161.76 398.589C1129.38 352.452 1107.79 300.323 1102.99 239.206C1099.99 201.458 1101.79 163.709 1105.39 125.961C1109.59 83.419 1117.38 41.4762 1125.18 0.13269C1119.78 0.13269 1114.38 0.13269 1108.99 0.13269C1096.99 57.6541 1086.8 115.176 1083.8 174.495C1081.4 213.441 1082 252.987 1090.39 291.335C1107.19 368.03 1143.77 428.548 1197.75 473.486C1233.14 502.846 1272.72 519.623 1314.7 528.611C1378.28 542.991 1440.05 536.4 1499.43 504.644Z" fill="#D9F1FF"/>
<path d="M1063.41 0.149414C1057.41 0.149414 1052.01 0.149414 1046.01 0.149414C1041.82 21.72 1037.02 43.2905 1033.42 65.4603C1022.62 123.581 1015.43 182.301 1016.03 242.219C1016.63 286.558 1020.23 330.898 1034.62 372.241C1067.61 468.71 1122.78 540.012 1203.75 580.157C1245.13 600.53 1288.31 613.112 1332.7 620.902C1381.88 629.29 1431.66 631.088 1480.84 623.299C1486.83 622.1 1492.83 621.501 1498.83 620.303C1498.83 611.315 1498.83 602.327 1498.83 592.74C1491.03 594.538 1483.83 596.935 1476.04 598.133C1433.46 607.121 1390.27 606.521 1347.09 601.129C1297.91 594.538 1250.53 581.356 1205.55 556.789C1128.78 515.446 1077.8 445.941 1047.81 352.468C1035.22 312.922 1032.22 270.38 1032.22 228.438C1032.22 172.714 1039.42 117.589 1049.61 63.0635C1055.01 42.0922 1059.21 21.1208 1063.41 0.149414Z" fill="#D9F1FF"/>
<path d="M534.424 1018.76C539.822 1018.76 545.819 1018.76 551.217 1018.76C551.817 996.591 553.016 973.822 553.616 951.652C554.815 892.932 555.415 834.811 550.617 776.691C548.218 743.736 543.42 711.38 538.022 679.623C529.026 631.09 511.034 587.949 490.642 545.407C454.657 470.509 406.077 409.392 344.902 364.454C314.914 342.883 284.327 323.709 252.54 306.932C187.767 272.18 121.194 242.82 54.0217 214.658C36.0291 206.869 18.0365 199.679 0.0439453 192.489C0.0439453 197.881 0.0439453 203.274 0.0439453 208.666C47.4244 229.039 94.8049 248.212 142.185 269.184C194.964 292.552 246.542 319.515 296.322 351.871C365.893 396.81 424.069 457.926 466.052 539.415C482.845 571.171 499.038 603.527 509.834 639.478C526.027 692.206 532.625 746.732 535.623 802.456C538.622 850.39 537.423 897.726 536.223 945.66C535.623 970.227 535.024 994.194 534.424 1018.76Z" fill="#D9F1FF"/>
<path d="M1191.16 0.150513C1185.16 0.150513 1179.16 0.150513 1173.16 0.150513C1170.76 15.13 1168.37 30.7088 1166.57 45.6883C1160.57 88.2302 1156.37 130.772 1157.57 173.913C1158.77 215.257 1165.97 254.803 1183.36 291.353C1227.14 384.825 1305.71 431.561 1393.27 415.983C1420.26 411.189 1446.05 399.805 1471.24 386.623C1480.84 381.23 1490.43 376.437 1500.03 371.044C1500.03 359.66 1500.03 347.676 1500.03 336.291C1485.64 343.482 1471.84 351.271 1457.45 357.862C1432.86 369.246 1408.27 378.833 1381.88 381.829C1323.1 388.42 1272.12 367.449 1231.94 314.721C1197.75 270.381 1180.36 217.653 1179.16 156.537C1178.56 118.189 1180.96 79.8417 1185.76 42.0933C1186.96 28.3121 1188.76 13.9317 1191.16 0.150513Z" fill="#D9F1FF"/>
<path d="M0.0439453 223.646C0.0439453 229.039 0.0439453 235.031 0.0439453 240.423C1.24345 241.022 3.04271 241.022 4.24222 241.621C31.8309 253.006 60.0193 263.791 87.6079 275.775C145.184 300.341 200.961 329.102 254.939 363.255C331.707 412.388 395.281 478.897 441.462 568.176C464.253 611.317 484.045 656.255 493.641 707.186C500.838 746.133 505.036 785.079 506.236 824.625C508.035 877.353 506.236 929.482 504.436 982.21C503.837 994.194 503.237 1006.78 503.237 1018.76C508.635 1018.76 514.032 1018.76 519.43 1018.76C519.43 1017.56 519.43 1015.76 519.43 1014.57C520.03 989.4 521.229 963.636 521.829 938.47C523.628 880.948 524.228 823.427 518.83 766.505C512.233 698.797 496.64 634.685 466.652 576.564C438.463 520.84 406.077 469.311 364.094 427.368C328.109 390.818 287.925 362.656 245.343 338.09C182.969 301.54 118.795 271.581 53.422 244.617C36.0291 237.427 18.0365 230.836 0.0439453 223.646Z" fill="#D9F1FF"/>
<path d="M1499.43 305.708C1499.43 294.324 1499.43 282.939 1499.43 271.555C1497.03 272.753 1494.63 273.352 1492.23 274.551C1467.04 285.336 1442.45 296.121 1416.07 302.712C1389.08 309.303 1361.49 311.7 1334.5 302.712C1284.12 286.534 1252.33 245.79 1232.54 189.467C1222.35 160.107 1220.55 128.95 1219.95 97.1929C1219.95 64.8371 1222.35 32.4812 1225.34 0.125427C1219.35 0.125427 1212.75 0.125427 1206.75 0.125427C1205.55 10.3115 1204.35 19.8984 1203.15 30.0845C1198.95 67.833 1195.96 106.181 1197.76 144.528C1199.55 184.074 1207.35 220.624 1225.34 254.179C1259.53 317.093 1306.31 350.647 1369.28 349.448C1395.07 348.849 1420.26 341.659 1444.85 331.473C1463.45 322.485 1481.44 314.097 1499.43 305.708Z" fill="#D9F1FF"/>
<path d="M472.65 1018.76C478.048 1018.76 482.846 1018.76 488.244 1018.76C489.443 992.396 490.643 966.032 491.842 939.668C493.642 882.147 493.642 824.625 487.044 767.104C482.246 722.764 473.85 679.623 457.057 638.879C440.264 599.333 420.472 562.184 398.281 527.431C356.898 463.319 305.319 414.785 247.143 375.838C189.567 337.491 128.392 307.531 66.6174 281.767C45.0263 272.779 22.8354 264.39 0.644531 256.002C0.644531 261.994 0.644531 267.985 0.644531 273.977C1.84404 274.576 2.44379 274.576 3.6433 275.176C82.2109 302.738 157.78 338.09 229.75 384.826C308.318 436.356 371.892 507.658 419.272 600.531C437.865 637.681 454.058 675.429 462.454 717.971C472.65 768.901 477.448 820.431 476.848 871.961C476.249 921.094 473.85 970.227 472.65 1018.76Z" fill="#D9F1FF"/>
<path d="M0.0439453 289.556C0.0439453 296.147 0.0439453 302.738 0.0439453 309.329C1.8432 309.928 3.64246 309.928 4.84197 310.527C71.4146 332.098 135.588 362.656 196.763 402.202C277.73 454.93 343.103 528.03 391.083 622.701C415.673 671.235 433.665 723.364 440.862 780.286C446.26 827.022 448.059 874.357 446.86 921.094C446.26 954.049 445.061 986.404 443.861 1018.76C448.659 1018.76 453.457 1018.76 458.855 1018.76C458.855 1016.36 459.455 1013.97 459.455 1011.57C460.055 989.4 461.254 967.83 461.854 946.259C463.653 891.135 463.653 836.01 457.656 781.484C452.858 740.141 444.461 699.996 429.467 662.247C383.286 550.2 316.114 462.72 226.151 401.004C167.375 360.859 105.6 330.3 42.0267 305.135C27.6326 299.742 13.8383 294.949 0.0439453 289.556Z" fill="#D9F1FF"/>
<path d="M0.0439453 326.705C0.0439453 333.896 0.0439453 340.487 0.0439453 347.677C0.643698 347.677 1.24345 348.276 1.24345 348.276C57.6202 363.855 111.598 389.02 162.577 421.376C249.541 475.302 317.913 553.196 367.693 655.057C387.484 695.801 403.078 738.343 409.675 785.079C416.273 830.018 418.672 875.556 418.072 921.094C417.472 954.049 415.673 986.404 414.473 1018.76C419.871 1018.76 425.269 1018.76 430.067 1018.76C430.067 1016.96 430.067 1015.17 430.067 1013.37C430.667 1000.78 431.266 988.801 431.866 976.218C434.265 920.494 434.865 864.771 429.467 809.646C425.269 769.501 418.672 729.355 404.277 692.805C367.693 599.333 316.114 521.439 247.142 460.922C197.962 417.781 144.584 386.024 87.6079 359.66C59.4195 346.478 30.0316 335.693 0.0439453 326.705Z" fill="#D9F1FF"/>
<path d="M357.497 1018.76C362.895 1018.76 367.693 1018.76 373.09 1018.76C373.09 1013.37 373.09 1007.97 373.69 1002.58C374.89 953.449 375.489 904.317 370.691 855.184C367.093 815.638 360.496 776.691 346.102 740.141C313.715 655.057 266.934 583.155 206.359 525.034C145.184 466.914 77.4121 427.967 0.0439453 412.987C0.0439453 422.574 0.0439453 431.562 0.0439453 441.149C1.8432 441.149 3.64246 441.149 5.44172 441.748C45.0254 447.74 82.2101 463.319 118.195 484.889C200.361 534.621 262.736 609.519 308.917 704.789C326.31 740.74 341.303 778.488 348.5 819.832C359.896 885.742 359.896 952.251 357.497 1018.76Z" fill="#D9F1FF"/>
<path d="M0.0439453 366.851C0.0439453 374.64 0.0439453 382.429 0.0439453 390.219C2.44296 390.818 5.44172 390.818 7.84073 392.016C146.983 429.765 256.139 519.642 332.307 666.441C349.1 698.198 363.494 731.752 372.491 768.302C382.686 810.844 387.484 855.184 388.084 899.523C388.684 939.668 386.885 979.214 386.885 1018.76C391.683 1018.76 396.481 1018.76 401.878 1018.76C404.877 957.045 406.677 895.928 401.279 834.212C397.08 795.266 391.083 757.517 377.289 721.566C346.101 637.681 301.12 566.378 242.944 507.059C194.364 457.327 138.587 421.376 79.2114 395.012C53.422 383.029 27.0328 373.442 0.0439453 366.851Z" fill="#D9F1FF"/>
<path d="M1263.13 0.145142C1256.53 0.145142 1249.34 0.145142 1242.74 0.145142C1242.74 3.14105 1242.74 6.13693 1242.14 9.13284C1240.34 37.8936 1239.14 66.6543 1240.94 95.415C1242.74 130.767 1249.34 163.722 1266.13 193.681C1288.32 234.425 1318.91 260.789 1359.09 268.578C1383.08 273.372 1406.47 270.975 1429.86 264.384C1453.25 257.793 1476.04 249.405 1499.43 241.615C1499.43 230.83 1499.43 219.446 1499.43 208.66C1497.64 209.259 1495.84 209.259 1494.64 209.859C1468.25 218.247 1441.86 225.437 1414.27 227.834C1389.08 230.231 1364.49 227.235 1341.7 214.053C1303.91 191.883 1279.92 155.333 1269.73 106.2C1263.73 76.8404 1262.53 47.4805 1263.13 17.5215C1263.13 11.5296 1263.13 6.13696 1263.13 0.145142Z" fill="#D9F1FF"/>
<path d="M1282.92 0.140686C1282.92 30.6989 1285.32 61.2572 1294.32 90.6171C1304.51 124.171 1322.51 151.134 1348.3 169.709C1367.49 183.49 1389.08 189.482 1411.27 190.68C1439.46 191.879 1466.45 186.486 1493.44 179.895C1495.24 179.296 1497.64 179.296 1499.43 178.697C1499.43 167.312 1499.43 155.329 1499.43 143.944C1498.83 143.944 1498.24 144.543 1498.24 144.543C1476.64 148.139 1454.45 151.134 1432.26 149.337C1408.27 147.539 1384.88 140.948 1364.49 124.171C1327.91 94.8114 1311.71 51.6703 1307.51 0.739883C1299.12 0.140701 1291.32 0.140686 1282.92 0.140686Z" fill="#D9F1FF"/>
<path d="M1332.09 0.138916C1334.49 13.9201 1338.69 27.1021 1345.29 39.0857C1366.88 81.0284 1398.07 104.396 1438.25 111.587C1456.84 115.182 1476.03 114.583 1494.63 113.384C1496.43 113.384 1498.23 113.384 1499.42 113.384C1499.42 101.401 1499.42 89.4169 1499.42 77.4333C1481.43 77.4333 1463.44 75.0366 1446.05 69.6439C1420.26 61.8546 1398.07 46.2759 1380.07 22.3087C1375.28 15.7177 1371.08 7.32909 1366.88 0.138916C1355.48 0.138916 1343.49 0.138916 1332.09 0.138916Z" fill="#D9F1FF"/>
<path d="M248.95 0.133362C257.946 2.53008 266.943 5.52603 275.939 7.32357C332.316 20.5055 389.892 25.8981 447.468 23.5013C485.853 22.303 523.637 16.3112 561.422 9.12104C574.616 6.72432 588.41 3.72847 602.205 1.33175C603.404 1.33175 604.604 0.732542 605.803 0.133362C571.617 0.133362 537.431 0.133362 503.246 0.133362C502.046 0.732542 500.847 0.732569 499.647 1.33175C443.87 9.72027 388.093 10.3194 332.316 3.12922C326.918 1.93086 322.12 0.732542 317.322 0.133362C294.531 0.133362 271.741 0.133362 248.95 0.133362Z" fill="#D9F1FF"/>
</g>
<defs>
<clipPath id="clip0_1115_3912">
<rect width="1440" height="468" fill="white" transform="matrix(1 0 0 -1 0 468)"/>
</clipPath>
</defs>
</svg>
