<svg width="90" height="91" viewBox="0 0 90 91" fill="none" xmlns="http://www.w3.org/2000/svg">
<path d="M52.0098 89.8384C72.2027 89.8384 88.5723 73.4688 88.5723 53.2759C88.5723 33.083 72.2027 16.7134 52.0098 16.7134C31.8169 16.7134 15.4473 33.083 15.4473 53.2759C15.4473 73.4688 31.8169 89.8384 52.0098 89.8384Z" fill="#FF409C" fill-opacity="0.19"/>
<path d="M45 82.1152C65.1929 82.1152 81.5625 65.7456 81.5625 45.5527C81.5625 25.3598 65.1929 8.99023 45 8.99023C24.8071 8.99023 8.4375 25.3598 8.4375 45.5527C8.4375 65.7456 24.8071 82.1152 45 82.1152Z" stroke="#FF409C" stroke-width="5" stroke-miterlimit="10" stroke-linecap="round"/>
<path d="M32.8125 62.8029C39.525 56.0904 50.475 56.0904 57.1875 62.8029" stroke="#FF409C" stroke-width="5" stroke-miterlimit="10" stroke-linecap="round"/>
</svg>
