<svg width="872" height="833" viewBox="0 0 872 833" fill="none" xmlns="http://www.w3.org/2000/svg">
<path d="M21.2403 296.749L435.726 428.415L32.1002 267.425L21.2403 296.749ZM92.0588 165.364L435.726 428.415L112.463 141.456L92.0588 165.364ZM143.752 110.705L435.726 428.415L168.078 90.6513L143.752 110.705ZM50.8039 228.013L435.726 428.415L66.6778 200.983L50.8039 228.013ZM271.922 31.7226L435.726 428.415L301.759 21.0493L271.922 31.7226ZM344.503 9.79055L435.726 428.415L375.767 4.37462L344.503 9.79055ZM4.27421 369.486L435.726 428.415L9.78484 338.759L4.27421 369.486ZM204.318 65.7063L435.726 428.415L231.822 50.0928L204.318 65.7063ZM32.1002 589.405L435.726 428.415L21.2403 560.08L32.1002 589.405ZM301.759 835.78L435.726 428.415L271.922 825.107L301.759 835.78ZM231.822 806.725L435.726 428.415L204.318 791.124L231.822 806.725ZM0.414348 444.016L435.726 428.415L0.41435 412.814L0.414348 444.016ZM168.078 766.178L435.726 428.415L143.752 746.125L168.078 766.178ZM375.767 852.455L435.726 428.415L344.503 847.039L375.767 852.455ZM9.78483 518.07L435.726 428.415L4.27421 487.344L9.78483 518.07ZM112.463 715.374L435.726 428.415L92.0588 691.466L112.463 715.374ZM419.852 0.581035L435.726 428.415L451.6 0.581036L419.852 0.581035ZM66.6778 655.847L435.726 428.415L50.8039 628.816L66.6778 655.847ZM639.63 50.0929L435.726 428.403L667.133 65.7064L639.63 50.0929ZM727.7 746.125L435.726 428.415L703.374 766.179L727.7 746.125ZM779.393 691.466L435.726 428.415L758.989 715.374L779.393 691.466ZM667.133 791.124L435.726 428.415L639.63 806.725L667.133 791.124ZM820.66 628.816L435.726 428.415L804.774 655.847L820.66 628.816ZM850.211 560.081L435.726 428.415L839.351 589.405L850.211 560.081ZM599.529 825.107L435.726 428.415L569.692 835.781L599.529 825.107ZM451.6 856.249L435.726 428.415L419.852 856.249L451.6 856.249ZM526.948 847.039L435.726 428.415L495.684 852.455L526.948 847.039ZM871.037 412.814L435.726 428.415L871.037 444.016L871.037 412.814ZM703.374 90.6513L435.726 428.415L727.7 110.705L703.374 90.6513ZM758.989 141.456L435.726 428.415L779.393 165.364L758.989 141.456ZM804.774 200.983L435.726 428.415L820.66 228.013L804.774 200.983ZM867.177 487.344L435.726 428.415L861.667 518.07L867.177 487.344ZM569.693 21.0493L435.726 428.415L599.529 31.7226L569.693 21.0493ZM495.684 4.37463L435.726 428.415L526.948 9.79056L495.684 4.37463ZM861.667 338.759L435.726 428.415L867.177 369.486L861.667 338.759ZM839.351 267.425L435.726 428.415L850.211 296.749L839.351 267.425Z" fill="url(#paint0_radial_1257_5303)"/>
<defs>
<radialGradient id="paint0_radial_1257_5303" cx="0" cy="0" r="1" gradientUnits="userSpaceOnUse" gradientTransform="translate(420.367 453.784) rotate(-101.983) scale(445.207 439.905)">
<stop stop-color="#75C4EB"/>
<stop offset="0.980561" stop-color="#D2F0FF" stop-opacity="0"/>
</radialGradient>
</defs>
</svg>
