<svg width="64" height="64" viewBox="0 0 64 64" fill="none" xmlns="http://www.w3.org/2000/svg">
<circle cx="32" cy="32" r="32" fill="#F9AEA4"/>
<circle cx="31.9993" cy="32.0003" r="27.7493" fill="#F97F7C" stroke="#E67B78" stroke-width="2"/>
<path fill-rule="evenodd" clip-rule="evenodd" d="M41.147 42.6534L40.627 38.4401C43.4803 36.4401 45.3337 33.2534 45.3337 29.6534C45.3337 23.5867 40.067 18.6667 33.5603 18.6667C27.987 18.6667 23.3203 22.2801 22.107 27.1334C21.987 27.6401 22.467 28.0934 22.9603 27.9334C23.9203 27.6134 24.947 27.4534 26.0003 27.4534C31.147 27.4534 35.3337 31.4267 35.3337 36.3067C35.3337 37.6934 34.9737 39.0801 34.307 40.3067C34.1337 40.6267 34.2137 41.0267 34.5337 41.2134L39.147 43.9601C40.0937 44.5334 41.2803 43.7601 41.147 42.6534ZM31.7603 40.5201C32.747 39.3601 33.3337 37.8935 33.3337 36.3068C33.3337 32.5201 30.0537 29.4535 26.0003 29.4535C24.4537 29.4535 23.027 29.8934 21.8403 30.6668C19.9203 31.8935 18.667 33.9601 18.667 36.3068C18.667 38.5468 19.8137 40.5335 21.6003 41.7735L21.267 44.4001C21.187 45.0801 21.9337 45.5735 22.5203 45.2135L26.0003 43.1468C28.347 43.1468 30.4403 42.1201 31.7603 40.5201Z" fill="url(#paint0_linear_1378_5665)"/>
<defs>
<linearGradient id="paint0_linear_1378_5665" x1="29.3625" y1="29.2749" x2="0.458913" y2="69.8028" gradientUnits="userSpaceOnUse">
<stop stop-color="white"/>
<stop offset="1" stop-color="white" stop-opacity="0"/>
</linearGradient>
</defs>
</svg>
