<svg width="245" height="15" viewBox="0 0 245 15" fill="none" xmlns="http://www.w3.org/2000/svg">
<g clip-path="url(#clip0_2030_8040)">
<path d="M16.6735 0H0V14.9107H2.91558V10.4464H16.6735C19.0424 10.4464 20.9557 8.57143 20.9557 6.25V4.19643C20.9557 1.875 19.0424 0 16.6735 0ZM18.0402 6.25C18.0402 6.96429 17.4024 7.58928 16.6735 7.58928H2.91558V2.85714H16.6735C17.4024 2.85714 18.0402 3.48214 18.0402 4.19643V6.25Z" fill="#1F194D"/>
<path d="M219.852 6.25V4.19643C219.852 1.875 217.939 0 215.57 0H198.896V14.9107H201.812V10.4464H214.477L216.572 15H219.761L217.392 10C218.85 9.28572 219.852 7.94643 219.852 6.25ZM216.937 6.25C216.937 6.96429 216.299 7.58929 215.57 7.58929H201.812V2.85714H215.57C216.299 2.85714 216.937 3.48214 216.937 4.19643V6.25Z" fill="#1F194D"/>
<path d="M37.8118 2.85714H38.814V14.9107H41.7296V0H37.8118C35.8984 0 34.1673 0.714286 32.8006 2.05357L20.0449 14.9107H24.145L34.8962 4.01786C35.6251 3.30357 36.7184 2.85714 37.8118 2.85714Z" fill="#1F194D"/>
<path d="M66.9663 10.7143V10.4464C66.9663 8.21428 65.053 6.33929 62.7752 6.33929H50.475C49.7461 6.33929 49.1995 5.80357 49.1995 5.08929V4.10714C49.1995 3.75 49.2906 3.48214 49.5639 3.21429C49.8373 2.94643 50.1106 2.85714 50.475 2.85714H66.0552V0L50.475 0C49.3817 0 48.2884 0.446428 47.5595 1.16071C46.7394 1.96429 46.375 2.94643 46.375 4.01786V5C46.375 7.23214 48.2883 9.10714 50.5661 9.10714H62.8663C63.5952 9.10714 64.1418 9.64286 64.1418 10.3571V10.7143C64.1418 11.5179 63.504 12.1429 62.684 12.1429H47.195V14.9107H63.0485C65.3263 14.7321 66.9663 12.8571 66.9663 10.7143Z" fill="#1F194D"/>
<path d="M240.808 6.33929H228.508C227.779 6.33929 227.233 5.80357 227.233 5.08929V4.10714C227.233 3.75 227.324 3.48214 227.597 3.21429C227.87 2.94643 228.144 2.85714 228.508 2.85714H244.088V0H228.508C227.415 0 226.322 0.446429 225.593 1.16071C224.773 1.96429 224.408 2.94643 224.408 4.01786V5C224.408 7.23214 226.322 9.10714 228.599 9.10714H240.899C241.628 9.10714 242.175 9.64286 242.175 10.3571V10.8929C242.175 11.6071 241.628 12.1429 240.899 12.1429H225.319V15H240.899C243.177 15 245.091 13.125 245.091 10.8929V10.3571C245 8.125 243.177 6.33929 240.808 6.33929Z" fill="#1F194D"/>
<path d="M91.8413 10.8929V10.4464C91.8413 8.21429 89.9279 6.33929 87.6501 6.33929H75.35C74.6211 6.33929 74.0745 5.80357 74.0745 5.08929V4.10714C74.0745 3.75 74.1656 3.48214 74.4389 3.21429C74.7123 2.94643 74.9856 2.85714 75.35 2.85714H90.9302V0H75.35C74.2567 0 73.1634 0.446429 72.4345 1.16071C71.6145 1.96429 71.25 2.94643 71.25 4.01786V5C71.25 7.23214 73.1634 9.10714 75.4412 9.10714H87.7413C88.4702 9.10714 89.0168 9.64286 89.0168 10.3571V10.8036C89.0168 11.5179 88.4702 12.0536 87.7413 12.0536H72.07V14.8214H88.1057C90.2013 14.7321 91.8413 13.0357 91.8413 10.8929Z" fill="#1F194D"/>
<path d="M101.499 2.85714H117.534V0H101.499C98.6743 0 96.3965 2.23214 96.3965 5V10C96.3965 12.5893 98.4009 14.6429 100.861 14.9107H117.443V12.0536H101.408C100.223 12.0536 99.221 11.0714 99.221 9.91071V8.92857H115.166V6.16071H99.3121V5C99.3121 3.83929 100.314 2.85714 101.499 2.85714Z" fill="#1F194D"/>
<path d="M178.305 2.85714H194.341V0H178.305C175.481 0 173.203 2.23214 173.203 5V10C173.203 12.6786 175.299 14.8214 178.032 15H194.341V12.1429H178.305C177.121 12.1429 176.119 11.1607 176.119 10V8.66071H192.519V5.80357H176.119V4.91071C176.119 3.83929 177.121 2.85714 178.305 2.85714Z" fill="#1F194D"/>
<path d="M140.221 0V12.1429H137.943C137.397 12.1429 136.85 11.875 136.485 11.4286L130.016 2.05357C129.105 0.803571 127.739 0 126.19 0H121.816V14.9107H124.732V2.85714H126.19C126.736 2.85714 127.283 3.125 127.648 3.57143L134.117 12.9464C134.937 14.1071 136.212 14.8214 137.579 14.9107H143.137V0H140.221Z" fill="#1F194D"/>
<path d="M165.642 7.76786V12.1429H152.066C151.246 12.1429 150.517 11.4286 150.517 10.625V4.375C150.517 3.57143 151.246 2.85714 152.066 2.85714H168.74V0H152.066C149.606 0 147.602 1.96429 147.602 4.375V10.625C147.602 12.9464 149.515 14.8214 151.884 15H168.557V7.76786H165.642Z" fill="#1F194D"/>
</g>
<defs>
<clipPath id="clip0_2030_8040">
<rect width="245" height="15" fill="white"/>
</clipPath>
</defs>
</svg>
