<svg width="88" height="122" viewBox="0 0 88 122" fill="none" xmlns="http://www.w3.org/2000/svg">
<path d="M55.6839 37.0351C55.9344 38.26 55.8472 39.5301 55.4316 40.7093C54.5935 42.7695 53.4507 44.692 52.0416 46.4124C48.4699 51.0557 43.526 48.8754 39.7223 46.9171C35.9185 44.9589 23.2057 49.3296 17.4547 57.7581C11.7037 66.1867 10.7956 56.3349 20.6833 40.356C21.6063 38.8541 22.6888 37.4564 23.912 36.1872C26.5199 33.4794 29.6997 31.389 33.219 30.0687C36.7382 28.7484 40.5079 28.2316 44.2525 28.5561C47.2417 28.7643 50.1042 29.8453 52.4855 31.665C54.1218 33.0469 55.248 34.9376 55.6839 37.0351Z" fill="url(#paint0_radial_2307_9647)"/>
<path style="mix-blend-mode:multiply" opacity="0.5" d="M55.6839 37.0351C55.9344 38.26 55.8472 39.5301 55.4316 40.7093C54.5935 42.7695 53.4507 44.692 52.0416 46.4124C48.4699 51.0557 43.526 48.8754 39.7223 46.9171C35.9185 44.9589 23.2057 49.3296 17.4547 57.7581C11.7037 66.1867 10.7956 56.3349 20.6833 40.356C21.6063 38.8541 22.6888 37.4564 23.912 36.1872C26.5199 33.4794 29.6997 31.389 33.219 30.0687C36.7382 28.7484 40.5079 28.2316 44.2525 28.5561C47.2417 28.7643 50.1042 29.8453 52.4855 31.665C54.1218 33.0469 55.248 34.9376 55.6839 37.0351Z" fill="url(#paint1_radial_2307_9647)"/>
<path style="mix-blend-mode:multiply" opacity="0.5" d="M26.3839 41.4864C32.4376 38.6298 38.2189 38.2967 46.8152 39.3363C52.0517 39.9723 54.0292 36.9642 54.7758 34.5215C55.2007 35.3099 55.5067 36.1569 55.6839 37.0349C55.9344 38.2599 55.8472 39.5299 55.4316 40.7092C54.5935 42.7693 53.4507 44.6918 52.0416 46.4123C48.4699 51.0556 43.526 48.8752 39.7223 46.917C35.9185 44.9587 23.2057 49.3295 17.4547 57.758C11.7037 66.1866 10.7956 56.3348 20.6833 40.3559C21.1562 39.5931 21.6681 38.8552 22.2169 38.1452C21.8436 41.0019 23.0645 43.0611 26.3839 41.4864Z" fill="url(#paint2_radial_2307_9647)"/>
<path d="M18.2105 55.8504C23.9615 47.4218 36.6743 43.0511 40.4781 45.0094C44.2818 46.9676 49.2257 49.1479 52.7873 44.5047C53.8531 43.1653 54.7857 41.7251 55.572 40.2046C55.572 40.3762 55.4913 40.5377 55.4308 40.7093C54.5926 42.7695 53.4498 44.692 52.0407 46.4124C48.469 51.0557 43.5251 48.8754 39.7214 46.9171C35.9176 44.9589 23.2048 49.3296 17.4538 57.7581C12.974 64.3193 11.4606 59.9587 15.4359 50.339C12.3989 58.596 14.0435 61.9674 18.2105 55.8504Z" fill="url(#paint3_radial_2307_9647)"/>
<path style="mix-blend-mode:screen" d="M39.9037 29.5855C39.9037 29.5855 45.9575 29 49.1155 31.4329C52.2735 33.8658 51.1334 38.1966 43.2131 35.37C35.2928 32.5433 29.1988 38.8427 27.645 37.1164C26.0912 35.3902 33.0731 29.5653 39.9037 29.5855Z" fill="url(#paint4_radial_2307_9647)"/>
<path style="mix-blend-mode:screen" opacity="0.45" d="M41.3257 30.5445C41.2147 30.9986 42.1127 31.6043 43.3436 31.8869C44.5745 32.1695 45.6339 32.0282 45.7347 31.574C45.8356 31.1198 44.9478 30.5041 43.7169 30.2215C42.486 29.9388 41.4266 30.0802 41.3257 30.5445Z" fill="url(#paint5_radial_2307_9647)"/>
<path style="mix-blend-mode:screen" opacity="0.45" d="M37.9458 30.8172C37.9458 31.0695 38.531 31.2512 39.2171 31.2108C39.9032 31.1704 40.4581 30.9181 40.4379 30.6557C40.4178 30.3932 39.8528 30.2216 39.1667 30.262C38.4806 30.3024 37.9257 30.5547 37.9458 30.8172Z" fill="url(#paint6_radial_2307_9647)"/>
<path d="M88 0C59.2448 9.33699 29.2285 40.891 29.2285 40.891L65.1472 67.3172C88.1312 26.1436 88 0 88 0Z" fill="#F9FDF9"/>
<path style="mix-blend-mode:multiply" opacity="0.25" d="M88 0C65.803 35.844 29.2285 40.891 29.2285 40.891L65.1472 67.3172C72.331 26.1032 88 0 88 0Z" fill="url(#paint7_radial_2307_9647)"/>
<path style="mix-blend-mode:multiply" opacity="0.25" d="M85.8005 15.6155C79.3634 12.5873 72.0485 10.1041 66.0856 10.7098C64.0677 11.9816 62.0901 13.2905 60.1529 14.6364C63.8154 15.8981 72.4622 19.4815 72.4622 25.003C72.4622 32.0082 62.0498 46.9172 55.4916 44.9791C49.7405 43.2833 39.5703 36.601 32.4673 37.6508C30.3888 39.6696 29.2285 40.891 29.2285 40.891L65.1473 67.3172C77.5271 45.1406 83.1974 27.3347 85.8005 15.6155Z" fill="url(#paint8_radial_2307_9647)"/>
<path d="M81.6545 30.484C88.0614 11.2044 88.0008 0 88.0008 0C78.779 3.02821 69.416 8.28722 60.9609 14.0812C66.268 15.5852 76.63 19.7944 81.6545 30.484Z" fill="url(#paint9_radial_2307_9647)"/>
<path style="mix-blend-mode:multiply" opacity="0.5" d="M88.0006 0L86.9916 0.353298C85.5892 4.69373 81.6946 15.7164 78.2844 16.0697C75.3786 16.3725 69.0625 13.3847 67.9728 9.54898C65.5783 11.0025 63.224 12.5133 60.9102 14.0812C66.2173 15.5852 76.5792 19.7944 81.6038 30.484C88.0712 11.2044 88.0006 0 88.0006 0Z" fill="url(#paint10_radial_2307_9647)"/>
<path style="mix-blend-mode:screen" d="M86.8394 1.02979C86.8394 1.02979 73.8441 6.80357 63.8555 13.8694C66.9864 14.5759 69.9705 15.8226 72.6737 17.5537C72.6737 17.5537 75.3171 11.1137 86.8394 1.02979Z" fill="url(#paint11_radial_2307_9647)"/>
<path style="mix-blend-mode:screen" d="M72.2503 16.0092C71.6642 15.7036 71.095 15.3667 70.5452 14.9997C69.9782 14.6675 69.3842 14.3839 68.7694 14.1518C68.4402 14.0365 68.103 13.9454 67.7604 13.8793H67.488C67.3201 13.8684 67.1515 13.8684 66.9836 13.8793C66.6304 13.8793 66.2773 13.8793 65.9141 13.8793L68.2246 12.2239L69.7481 11.2144L71.2212 10.205C71.2212 10.205 73.7637 8.57989 76.387 7.09606C77.6885 6.34909 79.0204 5.63241 80.0192 5.07723C80.5632 4.76198 81.1337 4.49514 81.7244 4.27979C81.2191 4.6508 80.69 4.988 80.1403 5.2892L76.609 7.44932C74.0563 9.0341 71.5642 10.6996 71.5642 10.6996L70.071 11.6586L67.3165 13.4755H67.4578L67.8311 13.5462C68.2069 13.6285 68.5749 13.7433 68.9308 13.8894C69.5516 14.1524 70.1461 14.4735 70.7066 14.8483C71.201 15.1814 71.5945 15.4843 71.8669 15.7063C72.0065 15.7914 72.1352 15.8931 72.2503 16.0092Z" fill="url(#paint12_radial_2307_9647)"/>
<path d="M64.7836 68.1854C67.5078 64.6323 61.7568 55.6384 51.8993 48.0881C42.0419 40.5377 31.8918 37.2975 29.1676 40.8405C28.8213 41.3943 28.5885 42.0115 28.4829 42.6561C28.3772 43.3008 28.4008 43.9601 28.5522 44.5955C28.6342 45.956 28.8334 47.3069 29.1475 48.6332C29.5208 49.8343 29.5208 51.1365 29.9849 52.3377C31.7909 56.9507 36.0386 60.7763 39.9029 63.7238C43.2274 66.4165 47.0114 68.4854 51.072 69.8307C53.4849 70.4674 56.005 70.5878 58.4676 70.184C60.3644 69.9519 63.5224 69.8206 64.7836 68.1854Z" fill="url(#paint13_radial_2307_9647)"/>
<path style="mix-blend-mode:multiply" opacity="0.5" d="M51.8997 48.088C42.0725 40.5377 31.8921 37.2975 29.168 40.8405C31.2565 40.2248 35.6656 40.2147 44.1206 44.8781C57.3783 52.1156 53.2012 58.5152 50.0936 56.7084C47.4905 55.1842 32.7598 44.8478 29.1982 48.8754C29.4051 50.0589 29.6711 51.2313 29.9953 52.3881C31.8013 57.0011 36.049 60.8268 39.9133 63.7742C43.2379 66.4669 47.0218 68.5358 51.0824 69.8811C53.4954 70.5178 56.0154 70.6382 58.478 70.2344C60.3749 69.9821 63.5228 69.8509 64.7941 68.2156C67.5082 64.6322 61.7369 55.6384 51.8997 48.088Z" fill="url(#paint14_radial_2307_9647)"/>
<path style="mix-blend-mode:multiply" opacity="0.5" d="M56.1262 69.8272C57.8088 67.6335 53.3993 61.4231 46.2774 55.9558C39.1555 50.4885 32.0181 47.8348 30.3356 50.0284C28.653 52.2221 33.0625 58.4326 40.1844 63.8999C47.3063 69.3671 54.4437 72.0209 56.1262 69.8272Z" fill="url(#paint15_radial_2307_9647)"/>
<path style="mix-blend-mode:multiply" opacity="0.5" d="M52.9988 67.4888C51.6972 69.1745 46.1985 67.1254 40.7198 62.9161C35.2412 58.7069 31.831 53.9223 33.1325 52.2366C34.4341 50.5509 39.9228 52.5899 45.4115 56.7992C50.9002 61.0084 54.2903 65.793 52.9988 67.4888Z" fill="url(#paint16_radial_2307_9647)"/>
<path style="mix-blend-mode:multiply" opacity="0.5" d="M45.4125 56.7992C41.6794 53.9426 37.9563 52.0853 35.5449 51.7522C36.5539 53.983 39.2881 57.0516 42.9507 59.8274C46.6132 62.6033 50.4068 64.5514 52.8182 64.8744C51.7992 62.6739 49.075 59.6155 45.4125 56.7992Z" fill="url(#paint17_radial_2307_9647)"/>
<path style="mix-blend-mode:screen" opacity="0.25" d="M38.9046 43.798C33.2746 41.6984 29.9451 42.2839 28.4922 42.6372C28.4218 43.3098 28.4421 43.9888 28.5527 44.656C28.6738 45.5745 28.7242 46.5133 28.8655 47.4318C36.8362 45.1405 48.2979 54.4976 50.4772 53.8819C52.9895 53.1147 48.5703 47.4015 38.9046 43.798Z" fill="url(#paint18_radial_2307_9647)"/>
<path style="mix-blend-mode:screen" opacity="0.5" d="M43.4841 48.7038C43.0487 49.7087 42.6681 50.7364 42.344 51.7825C42.1035 52.5009 41.918 53.2365 41.7891 53.983C41.7891 54.1042 41.7891 54.2152 41.7891 54.3162L41.9707 54.4272C41.9707 54.3061 42.0312 54.1748 42.0716 54.0335C42.2229 53.4582 42.5155 52.691 42.798 51.934C43.3832 50.4198 44.0996 48.9663 44.0996 48.9663C44.0996 48.9663 44.7453 47.4825 45.5222 46.0592C45.845 45.4334 46.1982 44.8378 46.5311 44.3533L46.289 44.2019C45.9459 44.6662 45.5423 45.2113 45.169 45.8271C44.5555 46.7546 43.993 47.7149 43.4841 48.7038Z" fill="url(#paint19_radial_2307_9647)"/>
<path style="mix-blend-mode:screen" opacity="0.5" d="M38.7024 45.817C38.541 46.4428 38.4703 46.8264 38.4703 46.8264C38.3063 47.9531 38.2187 49.0895 38.208 50.2281C38.196 51.0185 38.2944 51.8068 38.5006 52.5699L38.7024 52.6506H38.773V52.4891C38.6523 51.735 38.6219 50.9692 38.6822 50.2079C38.7668 49.0967 38.9151 47.9913 39.1262 46.897C39.1262 46.897 39.1262 46.4832 39.2977 45.8876C39.4412 45.1426 39.6437 44.4102 39.903 43.6972C40.157 42.9861 40.4957 42.3083 40.912 41.6784L41.0835 41.4563L40.8817 41.3655L40.7203 41.527C40.2006 42.1345 39.7723 42.8146 39.449 43.5458C39.128 44.2772 38.878 45.0377 38.7024 45.817Z" fill="url(#paint20_radial_2307_9647)"/>
<path style="mix-blend-mode:screen" opacity="0.5" d="M33.6973 44.4645C33.6973 45.161 33.6973 45.6253 33.6973 45.6253C33.8098 46.8526 34.0672 48.0622 34.4641 49.2289C34.7458 50.0999 35.1249 50.9363 35.5941 51.7222L35.8564 51.7827C35.4491 50.9161 35.1117 50.0182 34.8475 49.0977C34.5371 47.9501 34.3511 46.7724 34.2925 45.5849C34.2925 45.5849 34.2926 45.1408 34.232 44.4746C34.226 43.6602 34.3106 42.8476 34.4843 42.052C34.6563 41.2553 34.9561 40.4917 35.3721 39.7909L35.4428 39.6799L35.1804 39.6294C34.6726 40.3197 34.2932 41.0959 34.0605 41.9208C33.8343 42.7503 33.7123 43.6048 33.6973 44.4645Z" fill="url(#paint21_radial_2307_9647)"/>
<path style="mix-blend-mode:screen" opacity="0.5" d="M51.3545 62.5825L51.8791 62.6834C52.7674 62.7949 53.6682 62.7539 54.5428 62.5623C55.4177 62.376 56.2725 62.1056 57.0954 61.7549C57.7613 61.4622 58.1952 61.2401 58.1952 61.2401C59.3163 60.612 60.3949 59.9107 61.4238 59.1408C61.7164 58.9289 61.9989 58.7068 62.2714 58.4848C62.2032 58.3765 62.1291 58.272 62.0494 58.1719L61.1716 58.7775C60.1171 59.4717 59.0258 60.1085 57.9026 60.685C56.8115 61.3042 55.6495 61.7888 54.4419 62.1283C53.6145 62.3573 52.7572 62.4594 51.8993 62.4311C51.6168 62.4311 51.3948 62.4311 51.2031 62.4311L51.3545 62.5825Z" fill="url(#paint22_radial_2307_9647)"/>
<path style="mix-blend-mode:screen" opacity="0.5" d="M44.6855 56.2945L44.9277 56.4762C46.1687 54.7602 48.0555 52.0247 48.0555 52.0247C48.0555 52.0247 49.8413 49.1782 50.9209 47.3714L50.6788 47.1897C49.4377 48.8956 47.5207 51.6714 47.5207 51.6714C47.5207 51.6714 45.7853 54.4776 44.6855 56.2945Z" fill="url(#paint23_radial_2307_9647)"/>
<path style="mix-blend-mode:screen" opacity="0.5" d="M37.3104 54.4372C36.8734 54.546 36.4278 54.6169 35.9786 54.6491C35.2801 54.6959 34.5785 54.6552 33.8901 54.528C33.5827 54.4746 33.2793 54.4005 32.982 54.3059C32.6773 54.2259 32.3774 54.1281 32.084 54.0132C31.4593 53.7696 30.8664 53.451 30.3184 53.0645C30.4495 53.3471 30.5605 53.6297 30.7119 53.9123C31.0748 54.1535 31.456 54.3661 31.852 54.5482C32.1594 54.6908 32.4763 54.8123 32.8004 54.9115C33.1322 54.9973 33.4692 55.0613 33.8093 55.1033C34.5458 55.2042 35.2926 55.2042 36.029 55.1033C36.5461 55.0318 37.0537 54.9032 37.5425 54.7198L37.3104 54.4372Z" fill="url(#paint24_radial_2307_9647)"/>
<path style="mix-blend-mode:screen" opacity="0.5" d="M48.722 59.6364L49.1054 59.5051C50.04 59.1641 50.9473 58.7524 51.8195 58.2735C53.0818 57.5554 54.2742 56.7205 55.3811 55.78C56.2419 54.9793 57.0381 54.1118 57.7622 53.1855L57.4192 52.8423C56.6562 53.7191 55.8336 54.5421 54.9573 55.3055C53.9126 56.265 52.7849 57.1298 51.5874 57.8899C50.6144 58.4872 49.6032 59.02 48.5605 59.4849L48.722 59.6364Z" fill="url(#paint25_radial_2307_9647)"/>
<path style="mix-blend-mode:screen" opacity="0.5" d="M35.0499 53.3773C35.4872 53.6011 35.9711 53.7187 36.4624 53.7205C36.4624 53.67 35.9075 53.559 35.1508 53.1553C34.2408 52.645 33.4196 51.9905 32.7192 51.2172C32.0181 50.4361 31.3644 49.6137 30.7618 48.7543C30.4916 48.371 30.2423 47.9734 30.0152 47.5632C29.7818 47.157 29.5762 46.7354 29.3997 46.3014C29.0052 45.3348 28.7602 44.3137 28.6733 43.2732C28.6431 42.7959 28.6431 42.3172 28.6733 41.8398C28.443 42.7303 28.4086 43.6602 28.5724 44.5652C28.6329 45.0498 28.6834 45.5746 28.7237 46.0289L28.8751 46.4831C29.0459 46.9521 29.2516 47.4076 29.4905 47.8458C29.742 48.2689 30.0182 48.6768 30.3179 49.0672C30.9572 49.9311 31.6622 50.7444 32.4266 51.4998C33.1792 52.2805 34.0683 52.9168 35.0499 53.3773Z" fill="url(#paint26_radial_2307_9647)"/>
<path style="mix-blend-mode:screen" opacity="0.5" d="M49.3257 66.0053C49.1744 65.0866 49.134 64.1578 49.0936 63.6834L48.9524 63.6228C48.8428 64.429 48.8191 65.2445 48.8818 66.0557C48.9449 66.9666 49.1107 67.8674 49.3761 68.7411C49.3761 68.7411 49.477 69.0237 49.6687 69.4376C49.9109 69.5285 50.1631 69.5992 50.4053 69.6799C50.2399 69.3045 50.0951 68.9203 49.9714 68.5291C49.6723 67.7115 49.456 66.866 49.3257 66.0053Z" fill="url(#paint27_radial_2307_9647)"/>
<path style="mix-blend-mode:screen" opacity="0.5" d="M55.5927 69.2861C54.545 68.7489 53.6126 68.0116 52.8483 67.1156C52.1881 66.3464 51.6659 65.4686 51.3047 64.5212H51.123C51.3598 65.5861 51.8283 66.5857 52.4952 67.4488C53.2488 68.4469 54.2003 69.2786 55.29 69.8918C55.6348 70.0751 55.9922 70.2337 56.3595 70.3662L56.5815 70.4369C57.0557 70.4369 57.5299 70.3662 57.994 70.3157C57.5123 70.1838 57.0403 70.0185 56.5815 69.8211C56.24 69.6657 55.9096 69.4869 55.5927 69.2861Z" fill="url(#paint28_radial_2307_9647)"/>
<path style="mix-blend-mode:screen" opacity="0.5" d="M65.2678 64.4604C64.1268 64.9232 62.9533 65.301 61.7567 65.5909C60.8561 65.8041 59.937 65.9291 59.0123 65.9643C58.2657 65.9643 57.7612 65.9643 57.7612 65.9643C57.3455 65.955 56.9309 65.9179 56.5202 65.8533C55.6119 65.7294 54.7233 65.4886 53.8767 65.1367C53.4277 64.9419 52.9928 64.716 52.5752 64.4604L52.8173 64.9247L52.5449 64.8642C52.9091 65.1153 53.29 65.3413 53.685 65.5404C54.5546 65.9614 55.4781 66.2602 56.4294 66.4287C56.8598 66.5098 57.2943 66.567 57.7309 66.6002C58.1712 66.623 58.6124 66.623 59.0527 66.6002C59.999 66.4987 60.9323 66.2992 61.8374 66.0047C62.7502 65.748 63.6382 65.4102 64.4909 64.9954C64.8239 64.8339 65.0761 64.6926 65.2678 64.5816V64.4604Z" fill="url(#paint29_radial_2307_9647)"/>
<path style="mix-blend-mode:screen" opacity="0.5" d="M45.6032 63.6734C45.7688 63.1262 45.9849 62.5956 46.2489 62.0885L46.1278 62.0178C45.7226 62.4571 45.4012 62.9669 45.1795 63.522C44.9294 64.1468 44.7632 64.8019 44.6851 65.4704C44.6714 65.9933 44.6984 66.5164 44.7658 67.0351L45.2703 67.338C45.2228 66.7332 45.2228 66.1256 45.2703 65.5209C45.3134 64.8947 45.425 64.2752 45.6032 63.6734Z" fill="url(#paint30_radial_2307_9647)"/>
<path style="mix-blend-mode:screen" opacity="0.5" d="M38.9354 56.2539C38.663 56.4255 38.3603 56.6274 38.0475 56.809C37.4789 57.1496 36.8853 57.4465 36.2718 57.6972C35.6824 57.9908 35.0634 58.2209 34.4254 58.3836L34.0117 58.4845L34.3548 58.8478H34.5162C35.2083 58.743 35.8857 58.5567 36.5341 58.2927C37.1554 57.9853 37.7465 57.6204 38.2997 57.2027C38.6125 56.9705 38.9051 56.7182 39.1573 56.4961C39.0665 56.4053 39.006 56.3246 38.9354 56.2539Z" fill="url(#paint31_radial_2307_9647)"/>
<path style="mix-blend-mode:screen" opacity="0.5" d="M41.3054 58.4749L41.1944 58.384C41.0027 58.5859 40.6395 59.0703 40.246 59.5346C39.7315 60.1603 39.1766 60.7457 39.1766 60.7457C39.1766 60.7457 38.6822 61.3816 38.1676 61.9871L37.9961 62.189L38.3089 62.4514L38.4804 62.3101C38.888 61.9482 39.2754 61.5641 39.6407 61.1595C40.0017 60.7242 40.3385 60.2693 40.6496 59.797C40.9053 59.3757 41.1247 58.9334 41.3054 58.4749Z" fill="url(#paint32_radial_2307_9647)"/>
<path style="mix-blend-mode:screen" opacity="0.5" d="M43.798 60.443L43.6063 60.3018C42.9404 61.1294 41.6893 62.9461 41.6893 62.9461L40.8418 64.4399L41.2252 64.7225C41.7498 63.9958 42.2341 63.2893 42.2341 63.2893C42.2341 63.2893 43.3238 61.3918 43.798 60.443Z" fill="url(#paint33_radial_2307_9647)"/>
<path style="mix-blend-mode:multiply" opacity="0.25" d="M38.7422 32.3311C41.9002 36.1063 48.5895 35.541 53.6848 31.0694C58.6185 26.7491 60.2329 20.3596 57.4683 16.5339C50.868 21.3346 44.5358 26.4937 38.5 31.9879C38.6312 32.0989 38.6312 32.2201 38.7422 32.3311Z" fill="url(#paint34_radial_2307_9647)"/>
<path d="M40.2353 31.0189C43.3227 34.6225 49.6287 34.2793 54.3606 30.2417C59.0926 26.2041 60.3236 20.2082 57.3875 16.5845C51.3475 20.9872 45.532 25.6902 39.9629 30.6758C40.0537 30.7868 40.1344 30.9079 40.2353 31.0189Z" fill="url(#paint35_radial_2307_9647)"/>
<path style="mix-blend-mode:color-burn" d="M56.4289 17.291C50.8292 21.3993 45.7542 25.5782 41.5469 29.2726C44.1903 32.3008 49.558 31.998 53.5534 28.566C57.3572 25.3158 58.5377 20.4202 56.4289 17.291Z" fill="url(#paint36_radial_2307_9647)"/>
<path d="M55.6922 17.8362C50.7282 21.5104 46.1979 25.225 42.3438 28.5762L42.4749 28.7579C44.8359 31.5135 49.6687 31.2511 53.2707 28.1623C56.8727 25.0736 57.8009 20.5817 55.6922 17.8362Z" fill="url(#paint37_radial_2307_9647)"/>
<path style="mix-blend-mode:screen" d="M55.3101 19.33C55.7765 19.9796 56.1063 20.717 56.2797 21.4977C56.4532 22.2785 56.4665 23.0863 56.319 23.8723C56.735 22.8933 56.8977 21.8251 56.7918 20.7665C56.686 19.708 56.3152 18.6932 55.7136 17.8159C50.7496 21.4901 46.2194 25.2047 42.3652 28.5559L42.4964 28.7376C42.6374 28.9022 42.7891 29.0573 42.9504 29.202C46.5726 26.1031 50.7395 22.7014 55.3101 19.33Z" fill="url(#paint38_radial_2307_9647)"/>
<path style="mix-blend-mode:screen" d="M49.1542 26.6387C48.6421 26.5339 48.1688 26.2901 47.7862 25.9339C47.4035 25.5778 47.1263 25.1231 46.9849 24.6196C45.3504 25.9724 43.7966 27.2948 42.3438 28.5567L42.4749 28.7384C44.8359 31.4944 49.6687 31.2319 53.2707 28.1428C54.8884 26.7991 56.0426 24.9803 56.5699 22.9438C54.5218 25.0436 51.6362 27.2848 49.1542 26.6387Z" fill="url(#paint39_radial_2307_9647)"/>
<path d="M45.1094 43.9695C45.5331 43.3033 55.5016 27.7484 62.191 26.8097C62.7267 26.7099 63.2782 26.7345 63.803 26.8815C64.3277 27.0285 64.8118 27.294 65.2179 27.6576C65.7786 28.1453 66.2268 28.749 66.5317 29.4269C66.8365 30.1048 66.9907 30.8408 66.9835 31.5841C67.1349 38.983 55.4613 50.1975 54.9669 50.6719L54.6137 50.2985C54.7348 50.1874 66.6203 38.7711 66.479 31.5942C66.4858 30.9204 66.3468 30.2532 66.0717 29.6381C65.7965 29.0231 65.3917 28.4749 64.8849 28.031C64.5314 27.7221 64.1131 27.4964 63.6608 27.3706C63.2086 27.2448 62.7339 27.2221 62.2717 27.3043C55.8043 28.2329 45.6441 44.1007 45.5432 44.2622L45.1094 43.9695Z" fill="url(#paint40_radial_2307_9647)"/>
<path style="mix-blend-mode:multiply" opacity="0.25" d="M49.9919 38.9127C49.9099 40.1166 50.2618 41.31 50.9837 42.2766C51.7055 43.2432 52.7497 43.9192 53.9269 44.1818C58.2351 45.3225 66.1856 32.6746 65.6408 29.9492C65.6408 29.9492 66.8616 33.3509 63.3908 38.9127C60.8513 42.7888 57.942 46.4094 54.7037 49.7234C54.7037 49.7234 48.2666 44.3837 46.4707 43.7175C47.5477 42.0472 48.7236 40.4427 49.9919 38.9127Z" fill="url(#paint41_radial_2307_9647)"/>
<path style="mix-blend-mode:screen" d="M50.7392 38.1656C53.0314 35.2716 55.4836 32.5082 58.0844 29.8884C60.7985 27.4154 64.1382 27.1832 65.2379 29.4544C65.2379 29.4544 63.22 27.4355 60.4555 29.8783C57.6909 32.3211 51.1731 41.5067 51.1731 41.5067C50.8114 41.0382 50.5806 40.4819 50.5044 39.8949C50.4282 39.3078 50.5092 38.711 50.7392 38.1656Z" fill="url(#paint42_radial_2307_9647)"/>
<path d="M64.9543 45.0901C63.7073 45.1627 62.5037 45.5745 61.4735 46.2811C59.7009 47.6254 58.1398 49.228 56.8424 51.0355C53.2808 55.6888 56.6708 59.898 59.5463 63.0676C62.4219 66.2371 61.4936 79.6521 54.8446 87.3943C48.1956 95.1364 57.9421 93.4507 70.8164 79.7632C74.0045 76.3733 76.1874 72.1631 77.1211 67.6032C78.0547 63.0433 77.7023 58.3135 76.1033 53.9425C75.1281 51.1057 73.3425 48.6174 70.9677 46.7859C69.2126 45.5566 67.0928 44.9588 64.9543 45.0901Z" fill="url(#paint43_radial_2307_9647)"/>
<path style="mix-blend-mode:multiply" opacity="0.5" d="M68.2435 74.5545C69.4341 67.9934 68.2435 62.2902 65.025 54.2554C63.0575 49.3497 65.4487 46.6647 67.618 45.3121C66.7466 45.1028 65.8483 45.0279 64.9543 45.09C63.7073 45.1626 62.5037 45.5744 61.4735 46.2811C59.7009 47.6253 58.1398 49.2279 56.8424 51.0354C53.2808 55.6888 56.6708 59.898 59.5463 63.0675C62.4219 66.237 61.4936 79.652 54.8446 87.3941C48.1956 95.1362 57.9421 93.4505 70.8164 79.763C71.4289 79.1202 72.0081 78.4464 72.5518 77.7442C69.9083 78.8142 67.5877 78.1682 68.2435 74.5545Z" fill="url(#paint44_radial_2307_9647)"/>
<path d="M56.4907 86.193C63.1397 78.4508 64.0679 64.9954 61.1924 61.8663C58.3169 58.7371 54.9268 54.4775 58.4985 49.8342C59.5082 48.4572 60.6541 47.1857 61.9188 46.0388C61.7665 46.1188 61.6184 46.2064 61.4749 46.3013C59.7023 47.6455 58.1413 49.2481 56.8438 51.0556C53.2822 55.7089 56.6723 59.9181 59.5478 63.0877C62.4233 66.2572 61.4951 79.6722 54.8461 87.4143C49.6702 93.4708 54.2811 93.7736 62.5242 87.4143C55.3405 92.4614 51.678 91.7851 56.4907 86.193Z" fill="url(#paint45_radial_2307_9647)"/>
<path style="mix-blend-mode:screen" d="M76.2353 58.4043C76.2353 58.4043 75.2263 52.4185 72.0683 49.9858C68.9103 47.5531 65.0057 49.794 69.7982 56.7085C74.5907 63.6229 70.0605 71.143 72.1389 72.2029C74.2174 73.2628 77.9807 64.9957 76.2353 58.4043Z" fill="url(#paint46_radial_2307_9647)"/>
<path style="mix-blend-mode:screen" opacity="0.45" d="M74.9542 57.2831C74.5405 57.5052 73.7232 56.7886 73.138 55.6885C72.5528 54.5883 72.4116 53.5185 72.8253 53.2965C73.2389 53.0744 74.0562 53.791 74.6414 54.8911C75.2266 55.9912 75.3577 57.0611 74.9542 57.2831Z" fill="url(#paint47_radial_2307_9647)"/>
<path style="mix-blend-mode:screen" opacity="0.45" d="M75.5583 60.6143C75.296 60.6143 74.9833 60.1601 74.842 59.4839C74.7008 58.8076 74.842 58.2121 75.0539 58.1617C75.2658 58.1112 75.629 58.6159 75.7702 59.2921C75.9115 59.9683 75.8106 60.5638 75.5583 60.6143Z" fill="url(#paint48_radial_2307_9647)"/>
<path style="mix-blend-mode:screen" d="M33.012 52.1256C33.012 52.1256 -6.19585 53.7204 0.846627 121.573C0.846627 121.573 69.4553 101.97 52.3536 64.9147C49.9321 59.6456 41.7596 51.1464 33.012 52.1256Z" fill="url(#paint49_radial_2307_9647)"/>
<path style="mix-blend-mode:screen" d="M35.4633 53.2663C35.4633 53.2663 6.3651 54.4776 11.6823 107.855C11.6823 107.855 63.6434 92.2496 50.9205 63.0778C49.1044 58.9392 41.961 52.5093 35.4633 53.2663Z" fill="url(#paint50_radial_2307_9647)"/>
<path style="mix-blend-mode:screen" d="M40.0551 55.1033C40.0551 55.1033 23.8514 55.7796 26.8076 85.5167C26.8076 85.5167 55.7544 76.8257 48.6716 60.5743C47.7131 58.2627 43.6773 54.6794 40.0551 55.1033Z" fill="url(#paint51_radial_2307_9647)"/>
<defs>
<radialGradient id="paint0_radial_2307_9647" cx="0" cy="0" r="1" gradientUnits="userSpaceOnUse" gradientTransform="translate(77.9727 33.8022) rotate(-134.581) scale(77.9906 77.9901)">
<stop stop-color="#F20074"/>
<stop offset="0.14" stop-color="#ED0376"/>
<stop offset="0.31" stop-color="#DF0B7D"/>
<stop offset="0.49" stop-color="#C71887"/>
<stop offset="0.67" stop-color="#A62A96"/>
<stop offset="0.87" stop-color="#7B42A9"/>
<stop offset="0.9" stop-color="#7446AC"/>
</radialGradient>
<radialGradient id="paint1_radial_2307_9647" cx="0" cy="0" r="1" gradientUnits="userSpaceOnUse" gradientTransform="translate(77.9727 33.8022) rotate(-134.581) scale(77.9906 77.9901)">
<stop stop-color="#F20074"/>
<stop offset="0.14" stop-color="#ED0376"/>
<stop offset="0.31" stop-color="#DF0B7D"/>
<stop offset="0.49" stop-color="#C71887"/>
<stop offset="0.67" stop-color="#A62A96"/>
<stop offset="0.87" stop-color="#7B42A9"/>
<stop offset="0.9" stop-color="#7446AC"/>
</radialGradient>
<radialGradient id="paint2_radial_2307_9647" cx="0" cy="0" r="1" gradientUnits="userSpaceOnUse" gradientTransform="translate(-9005.63 4339.25) rotate(-142.314) scale(3300.21 2035.87)">
<stop stop-color="#F20074"/>
<stop offset="0.14" stop-color="#ED0376"/>
<stop offset="0.31" stop-color="#DF0B7D"/>
<stop offset="0.49" stop-color="#C71887"/>
<stop offset="0.67" stop-color="#A62A96"/>
<stop offset="0.87" stop-color="#7B42A9"/>
<stop offset="0.9" stop-color="#7446AC"/>
</radialGradient>
<radialGradient id="paint3_radial_2307_9647" cx="0" cy="0" r="1" gradientUnits="userSpaceOnUse" gradientTransform="translate(-7820.81 2842.37) rotate(-142.314) scale(3283.3 1599.94)">
<stop stop-color="#F20074"/>
<stop offset="0.14" stop-color="#ED0376"/>
<stop offset="0.31" stop-color="#DF0B7D"/>
<stop offset="0.49" stop-color="#C71887"/>
<stop offset="0.67" stop-color="#A62A96"/>
<stop offset="0.87" stop-color="#7B42A9"/>
<stop offset="0.9" stop-color="#7446AC"/>
</radialGradient>
<radialGradient id="paint4_radial_2307_9647" cx="0" cy="0" r="1" gradientUnits="userSpaceOnUse" gradientTransform="translate(38.9383 25.9566) rotate(-142.311) scale(30.6604 30.6646)">
<stop stop-color="#F20074"/>
<stop offset="0.1" stop-color="#EF0175" stop-opacity="0.98"/>
<stop offset="0.21" stop-color="#E80678" stop-opacity="0.92"/>
<stop offset="0.33" stop-color="#DC0C7E" stop-opacity="0.82"/>
<stop offset="0.46" stop-color="#CA1686" stop-opacity="0.68"/>
<stop offset="0.6" stop-color="#B42290" stop-opacity="0.51"/>
<stop offset="0.74" stop-color="#99329C" stop-opacity="0.29"/>
<stop offset="0.88" stop-color="#7943AA" stop-opacity="0.04"/>
<stop offset="0.9" stop-color="#7446AC" stop-opacity="0"/>
</radialGradient>
<radialGradient id="paint5_radial_2307_9647" cx="0" cy="0" r="1" gradientUnits="userSpaceOnUse" gradientTransform="translate(36.7649 31.2048) rotate(-166.656) scale(17.5014 17.5077)">
<stop stop-color="#FBE877"/>
<stop offset="0.07" stop-color="#F6E87C"/>
<stop offset="0.16" stop-color="#E9E78A"/>
<stop offset="0.25" stop-color="#D4E5A2"/>
<stop offset="0.35" stop-color="#B5E4C3"/>
<stop offset="0.45" stop-color="#8EE1EE"/>
<stop offset="0.62" stop-color="#5E8DEC"/>
<stop offset="0.63" stop-color="#5F89E8"/>
<stop offset="0.74" stop-color="#6B64C7"/>
<stop offset="0.84" stop-color="#714EB3"/>
<stop offset="0.9" stop-color="#7446AC"/>
</radialGradient>
<radialGradient id="paint6_radial_2307_9647" cx="0" cy="0" r="1" gradientUnits="userSpaceOnUse" gradientTransform="translate(-297.769 398.26) rotate(176.565) scale(43.4342 16.7301)">
<stop stop-color="#FBE877"/>
<stop offset="0.07" stop-color="#F6E87C"/>
<stop offset="0.16" stop-color="#E9E78A"/>
<stop offset="0.25" stop-color="#D4E5A2"/>
<stop offset="0.35" stop-color="#B5E4C3"/>
<stop offset="0.45" stop-color="#8EE1EE"/>
<stop offset="0.62" stop-color="#5E8DEC"/>
<stop offset="0.63" stop-color="#5F89E8"/>
<stop offset="0.74" stop-color="#6B64C7"/>
<stop offset="0.84" stop-color="#714EB3"/>
<stop offset="0.9" stop-color="#7446AC"/>
</radialGradient>
<radialGradient id="paint7_radial_2307_9647" cx="0" cy="0" r="1" gradientUnits="userSpaceOnUse" gradientTransform="translate(66.668 26.433) rotate(37.686) scale(28.7556 28.7589)">
<stop stop-color="#8DDFEC"/>
<stop offset="0.94" stop-color="#5E8BEA"/>
</radialGradient>
<radialGradient id="paint8_radial_2307_9647" cx="0" cy="0" r="1" gradientUnits="userSpaceOnUse" gradientTransform="translate(9118.66 19912) scale(1395.63 1398.77)">
<stop stop-color="#8DDFEC"/>
<stop offset="0.94" stop-color="#5E8BEA"/>
</radialGradient>
<radialGradient id="paint9_radial_2307_9647" cx="0" cy="0" r="1" gradientUnits="userSpaceOnUse" gradientTransform="translate(-2334.36 9785.49) rotate(37.686) scale(1436.3 1618.7)">
<stop stop-color="#F20074"/>
<stop offset="0.14" stop-color="#ED0376"/>
<stop offset="0.31" stop-color="#DF0B7D"/>
<stop offset="0.49" stop-color="#C71887"/>
<stop offset="0.67" stop-color="#A62A96"/>
<stop offset="0.87" stop-color="#7B42A9"/>
<stop offset="0.9" stop-color="#7446AC"/>
</radialGradient>
<radialGradient id="paint10_radial_2307_9647" cx="0" cy="0" r="1" gradientUnits="userSpaceOnUse" gradientTransform="translate(-2452.9 10440.1) rotate(37.686) scale(732.336 823.8)">
<stop stop-color="#F20074"/>
<stop offset="0.14" stop-color="#ED0376"/>
<stop offset="0.31" stop-color="#DF0B7D"/>
<stop offset="0.49" stop-color="#C71887"/>
<stop offset="0.67" stop-color="#A62A96"/>
<stop offset="0.87" stop-color="#7B42A9"/>
<stop offset="0.9" stop-color="#7446AC"/>
</radialGradient>
<radialGradient id="paint11_radial_2307_9647" cx="0" cy="0" r="1" gradientUnits="userSpaceOnUse" gradientTransform="translate(-210.102 6217.68) rotate(37.686) scale(996.229 715.984)">
<stop stop-color="#F20074"/>
<stop offset="0.1" stop-color="#EF0175" stop-opacity="0.98"/>
<stop offset="0.21" stop-color="#E80678" stop-opacity="0.92"/>
<stop offset="0.33" stop-color="#DC0C7E" stop-opacity="0.82"/>
<stop offset="0.46" stop-color="#CA1686" stop-opacity="0.68"/>
<stop offset="0.6" stop-color="#B42290" stop-opacity="0.51"/>
<stop offset="0.74" stop-color="#99329C" stop-opacity="0.29"/>
<stop offset="0.88" stop-color="#7943AA" stop-opacity="0.04"/>
<stop offset="0.9" stop-color="#7446AC" stop-opacity="0"/>
</radialGradient>
<radialGradient id="paint12_radial_2307_9647" cx="0" cy="0" r="1" gradientUnits="userSpaceOnUse" gradientTransform="translate(-54.0889 4451.81) rotate(37.6862) scale(549.088 407.22)">
<stop stop-color="#FBE877"/>
<stop offset="0.07" stop-color="#F6E87C"/>
<stop offset="0.16" stop-color="#E9E78A"/>
<stop offset="0.25" stop-color="#D4E5A2"/>
<stop offset="0.35" stop-color="#B5E4C3"/>
<stop offset="0.45" stop-color="#8EE1EE"/>
<stop offset="0.62" stop-color="#5E8DEC"/>
<stop offset="0.63" stop-color="#5F89E8"/>
<stop offset="0.74" stop-color="#6B64C7"/>
<stop offset="0.84" stop-color="#714EB3"/>
<stop offset="0.9" stop-color="#7446AC"/>
</radialGradient>
<radialGradient id="paint13_radial_2307_9647" cx="0" cy="0" r="1" gradientUnits="userSpaceOnUse" gradientTransform="translate(-2587.32 12202.4) rotate(37.6861) scale(1053.12 881.413)">
<stop stop-color="#F20074"/>
<stop offset="0.14" stop-color="#ED0376"/>
<stop offset="0.31" stop-color="#DF0B7D"/>
<stop offset="0.49" stop-color="#C71887"/>
<stop offset="0.67" stop-color="#A62A96"/>
<stop offset="0.87" stop-color="#7B42A9"/>
<stop offset="0.9" stop-color="#7446AC"/>
</radialGradient>
<radialGradient id="paint14_radial_2307_9647" cx="0" cy="0" r="1" gradientUnits="userSpaceOnUse" gradientTransform="translate(-2683.55 12151.2) rotate(37.6861) scale(1031.93 882.846)">
<stop stop-color="#F20074"/>
<stop offset="0.14" stop-color="#ED0376"/>
<stop offset="0.31" stop-color="#DF0B7D"/>
<stop offset="0.49" stop-color="#C71887"/>
<stop offset="0.67" stop-color="#A62A96"/>
<stop offset="0.87" stop-color="#7B42A9"/>
<stop offset="0.9" stop-color="#7446AC"/>
</radialGradient>
<radialGradient id="paint15_radial_2307_9647" cx="0" cy="0" r="1" gradientUnits="userSpaceOnUse" gradientTransform="translate(-6223.74 10646.3) rotate(37.5124) scale(188.097 611.005)">
<stop stop-color="#F20074"/>
<stop offset="0.14" stop-color="#ED0376"/>
<stop offset="0.31" stop-color="#DF0B7D"/>
<stop offset="0.49" stop-color="#C71887"/>
<stop offset="0.67" stop-color="#A62A96"/>
<stop offset="0.87" stop-color="#7B42A9"/>
<stop offset="0.9" stop-color="#7446AC"/>
</radialGradient>
<radialGradient id="paint16_radial_2307_9647" cx="0" cy="0" r="1" gradientUnits="userSpaceOnUse" gradientTransform="translate(-1314.17 6838.86) rotate(37.6861) scale(294.932 237.306)">
<stop stop-color="#F20074"/>
<stop offset="0.14" stop-color="#ED0376"/>
<stop offset="0.31" stop-color="#DF0B7D"/>
<stop offset="0.49" stop-color="#C71887"/>
<stop offset="0.67" stop-color="#A62A96"/>
<stop offset="0.87" stop-color="#7B42A9"/>
<stop offset="0.9" stop-color="#7446AC"/>
</radialGradient>
<radialGradient id="paint17_radial_2307_9647" cx="0" cy="0" r="1" gradientUnits="userSpaceOnUse" gradientTransform="translate(-923.556 5584.47) rotate(37.6859) scale(202.092 153.475)">
<stop stop-color="#F20074"/>
<stop offset="0.14" stop-color="#ED0376"/>
<stop offset="0.31" stop-color="#DF0B7D"/>
<stop offset="0.49" stop-color="#C71887"/>
<stop offset="0.67" stop-color="#A62A96"/>
<stop offset="0.87" stop-color="#7B42A9"/>
<stop offset="0.9" stop-color="#7446AC"/>
</radialGradient>
<radialGradient id="paint18_radial_2307_9647" cx="0" cy="0" r="1" gradientUnits="userSpaceOnUse" gradientTransform="translate(-271.258 5364.46) rotate(37.686) scale(902.434 461.668)">
<stop stop-color="#FBE877"/>
<stop offset="0.07" stop-color="#F6E87C"/>
<stop offset="0.16" stop-color="#E9E78A"/>
<stop offset="0.25" stop-color="#D4E5A2"/>
<stop offset="0.35" stop-color="#B5E4C3"/>
<stop offset="0.45" stop-color="#8EE1EE"/>
<stop offset="0.62" stop-color="#5E8DEC"/>
<stop offset="0.63" stop-color="#5F89E8"/>
<stop offset="0.74" stop-color="#6B64C7"/>
<stop offset="0.84" stop-color="#714EB3"/>
<stop offset="0.9" stop-color="#7446AC"/>
</radialGradient>
<radialGradient id="paint19_radial_2307_9647" cx="0" cy="0" r="1" gradientUnits="userSpaceOnUse" gradientTransform="translate(-1637.33 3429.04) rotate(37.6861) scale(192.383 414.695)">
<stop stop-color="#F20074"/>
<stop offset="0.14" stop-color="#ED0376"/>
<stop offset="0.31" stop-color="#DF0B7D"/>
<stop offset="0.49" stop-color="#C71887"/>
<stop offset="0.67" stop-color="#A62A96"/>
<stop offset="0.87" stop-color="#7B42A9"/>
<stop offset="0.9" stop-color="#7446AC"/>
</radialGradient>
<radialGradient id="paint20_radial_2307_9647" cx="0" cy="0" r="1" gradientUnits="userSpaceOnUse" gradientTransform="translate(-2109.09 3546.56) rotate(37.6864) scale(116.697 457.677)">
<stop stop-color="#F20074"/>
<stop offset="0.14" stop-color="#ED0376"/>
<stop offset="0.31" stop-color="#DF0B7D"/>
<stop offset="0.49" stop-color="#C71887"/>
<stop offset="0.67" stop-color="#A62A96"/>
<stop offset="0.87" stop-color="#7B42A9"/>
<stop offset="0.9" stop-color="#7446AC"/>
</radialGradient>
<radialGradient id="paint21_radial_2307_9647" cx="0" cy="0" r="1" gradientUnits="userSpaceOnUse" gradientTransform="translate(-2394.52 3721.37) rotate(37.6859) scale(87.5968 492.89)">
<stop stop-color="#F20074"/>
<stop offset="0.14" stop-color="#ED0376"/>
<stop offset="0.31" stop-color="#DF0B7D"/>
<stop offset="0.49" stop-color="#C71887"/>
<stop offset="0.67" stop-color="#A62A96"/>
<stop offset="0.87" stop-color="#7B42A9"/>
<stop offset="0.9" stop-color="#7446AC"/>
</radialGradient>
<radialGradient id="paint22_radial_2307_9647" cx="0" cy="0" r="1" gradientUnits="userSpaceOnUse" gradientTransform="translate(413.177 2441.85) rotate(37.6828) scale(449.013 185.46)">
<stop stop-color="#F20074"/>
<stop offset="0.14" stop-color="#ED0376"/>
<stop offset="0.31" stop-color="#DF0B7D"/>
<stop offset="0.49" stop-color="#C71887"/>
<stop offset="0.67" stop-color="#A62A96"/>
<stop offset="0.87" stop-color="#7B42A9"/>
<stop offset="0.9" stop-color="#7446AC"/>
</radialGradient>
<radialGradient id="paint23_radial_2307_9647" cx="0" cy="0" r="1" gradientUnits="userSpaceOnUse" gradientTransform="translate(-1240.16 3309.68) rotate(37.6858) scale(252.964 376.623)">
<stop stop-color="#F20074"/>
<stop offset="0.14" stop-color="#ED0376"/>
<stop offset="0.31" stop-color="#DF0B7D"/>
<stop offset="0.49" stop-color="#C71887"/>
<stop offset="0.67" stop-color="#A62A96"/>
<stop offset="0.87" stop-color="#7B42A9"/>
<stop offset="0.9" stop-color="#7446AC"/>
</radialGradient>
<radialGradient id="paint24_radial_2307_9647" cx="0" cy="0" r="1" gradientUnits="userSpaceOnUse" gradientTransform="translate(458.127 1344.32) rotate(37.684) scale(293.071 85.7579)">
<stop stop-color="#F20074"/>
<stop offset="0.14" stop-color="#ED0376"/>
<stop offset="0.31" stop-color="#DF0B7D"/>
<stop offset="0.49" stop-color="#C71887"/>
<stop offset="0.67" stop-color="#A62A96"/>
<stop offset="0.87" stop-color="#7B42A9"/>
<stop offset="0.9" stop-color="#7446AC"/>
</radialGradient>
<radialGradient id="paint25_radial_2307_9647" cx="0" cy="0" r="1" gradientUnits="userSpaceOnUse" gradientTransform="translate(-313.314 2891.25) rotate(37.6891) scale(373.322 275.528)">
<stop stop-color="#F20074"/>
<stop offset="0.14" stop-color="#ED0376"/>
<stop offset="0.31" stop-color="#DF0B7D"/>
<stop offset="0.49" stop-color="#C71887"/>
<stop offset="0.67" stop-color="#A62A96"/>
<stop offset="0.87" stop-color="#7B42A9"/>
<stop offset="0.9" stop-color="#7446AC"/>
</radialGradient>
<radialGradient id="paint26_radial_2307_9647" cx="0" cy="0" r="1" gradientUnits="userSpaceOnUse" gradientTransform="translate(-1602.15 4211.54) rotate(37.6859) scale(324.219 481.833)">
<stop stop-color="#F20074"/>
<stop offset="0.14" stop-color="#ED0376"/>
<stop offset="0.31" stop-color="#DF0B7D"/>
<stop offset="0.49" stop-color="#C71887"/>
<stop offset="0.67" stop-color="#A62A96"/>
<stop offset="0.87" stop-color="#7B42A9"/>
<stop offset="0.9" stop-color="#7446AC"/>
</radialGradient>
<radialGradient id="paint27_radial_2307_9647" cx="0" cy="0" r="1" gradientUnits="userSpaceOnUse" gradientTransform="translate(-1123.11 1941.7) rotate(37.6893) scale(63.1946 245.642)">
<stop stop-color="#F20074"/>
<stop offset="0.14" stop-color="#ED0376"/>
<stop offset="0.31" stop-color="#DF0B7D"/>
<stop offset="0.49" stop-color="#C71887"/>
<stop offset="0.67" stop-color="#A62A96"/>
<stop offset="0.87" stop-color="#7B42A9"/>
<stop offset="0.9" stop-color="#7446AC"/>
</radialGradient>
<radialGradient id="paint28_radial_2307_9647" cx="0" cy="0" r="1" gradientUnits="userSpaceOnUse" gradientTransform="translate(-418.667 2422.29) rotate(37.6885) scale(278.761 239.907)">
<stop stop-color="#F20074"/>
<stop offset="0.14" stop-color="#ED0376"/>
<stop offset="0.31" stop-color="#DF0B7D"/>
<stop offset="0.49" stop-color="#C71887"/>
<stop offset="0.67" stop-color="#A62A96"/>
<stop offset="0.87" stop-color="#7B42A9"/>
<stop offset="0.9" stop-color="#7446AC"/>
</radialGradient>
<radialGradient id="paint29_radial_2307_9647" cx="0" cy="0" r="1" gradientUnits="userSpaceOnUse" gradientTransform="translate(1154.72 1916.14) rotate(37.6839) scale(516.147 87.476)">
<stop stop-color="#F20074"/>
<stop offset="0.14" stop-color="#ED0376"/>
<stop offset="0.31" stop-color="#DF0B7D"/>
<stop offset="0.49" stop-color="#C71887"/>
<stop offset="0.67" stop-color="#A62A96"/>
<stop offset="0.87" stop-color="#7B42A9"/>
<stop offset="0.9" stop-color="#7446AC"/>
</radialGradient>
<radialGradient id="paint30_radial_2307_9647" cx="0" cy="0" r="1" gradientUnits="userSpaceOnUse" gradientTransform="translate(-961.018 1727.44) rotate(37.6903) scale(63.5866 215.753)">
<stop stop-color="#F20074"/>
<stop offset="0.14" stop-color="#ED0376"/>
<stop offset="0.31" stop-color="#DF0B7D"/>
<stop offset="0.49" stop-color="#C71887"/>
<stop offset="0.67" stop-color="#A62A96"/>
<stop offset="0.87" stop-color="#7B42A9"/>
<stop offset="0.9" stop-color="#7446AC"/>
</radialGradient>
<radialGradient id="paint31_radial_2307_9647" cx="0" cy="0" r="1" gradientUnits="userSpaceOnUse" gradientTransform="translate(90.0925 1283.61) rotate(37.6836) scale(208.749 105.203)">
<stop stop-color="#F20074"/>
<stop offset="0.14" stop-color="#ED0376"/>
<stop offset="0.31" stop-color="#DF0B7D"/>
<stop offset="0.49" stop-color="#C71887"/>
<stop offset="0.67" stop-color="#A62A96"/>
<stop offset="0.87" stop-color="#7B42A9"/>
<stop offset="0.9" stop-color="#7446AC"/>
</radialGradient>
<radialGradient id="paint32_radial_2307_9647" cx="0" cy="0" r="1" gradientUnits="userSpaceOnUse" gradientTransform="translate(-466.639 1531.14) rotate(37.6828) scale(134.252 164.964)">
<stop stop-color="#F20074"/>
<stop offset="0.14" stop-color="#ED0376"/>
<stop offset="0.31" stop-color="#DF0B7D"/>
<stop offset="0.49" stop-color="#C71887"/>
<stop offset="0.67" stop-color="#A62A96"/>
<stop offset="0.87" stop-color="#7B42A9"/>
<stop offset="0.9" stop-color="#7446AC"/>
</radialGradient>
<radialGradient id="paint33_radial_2307_9647" cx="0" cy="0" r="1" gradientUnits="userSpaceOnUse" gradientTransform="translate(-588.421 1601.27) rotate(37.6839) scale(119.927 179.294)">
<stop stop-color="#F20074"/>
<stop offset="0.14" stop-color="#ED0376"/>
<stop offset="0.31" stop-color="#DF0B7D"/>
<stop offset="0.49" stop-color="#C71887"/>
<stop offset="0.67" stop-color="#A62A96"/>
<stop offset="0.87" stop-color="#7B42A9"/>
<stop offset="0.9" stop-color="#7446AC"/>
</radialGradient>
<radialGradient id="paint34_radial_2307_9647" cx="0" cy="0" r="1" gradientUnits="userSpaceOnUse" gradientTransform="translate(2929.61 6115.02) scale(426.161 383.866)">
<stop stop-color="#8DDFEC"/>
<stop offset="0.94" stop-color="#5E8BEA"/>
</radialGradient>
<radialGradient id="paint35_radial_2307_9647" cx="0" cy="0" r="1" gradientUnits="userSpaceOnUse" gradientTransform="translate(2751.06 5672.13) scale(366.827 326.685)">
<stop stop-color="#8DDFEC"/>
<stop offset="0.94" stop-color="#5E8BEA"/>
</radialGradient>
<radialGradient id="paint36_radial_2307_9647" cx="0" cy="0" r="1" gradientUnits="userSpaceOnUse" gradientTransform="translate(2443.73 5049.4) scale(365.024 322.525)">
<stop stop-color="#8DDFEC"/>
<stop offset="0.94" stop-color="#5E8BEA"/>
</radialGradient>
<radialGradient id="paint37_radial_2307_9647" cx="0" cy="0" r="1" gradientUnits="userSpaceOnUse" gradientTransform="translate(50.4825 30.4396) rotate(37.6859) scale(20.8088 20.8111)">
<stop offset="0.06" stop-color="#071256"/>
<stop offset="0.96" stop-color="#030A2B"/>
</radialGradient>
<radialGradient id="paint38_radial_2307_9647" cx="0" cy="0" r="1" gradientUnits="userSpaceOnUse" gradientTransform="translate(2209.77 4084.46) scale(298.269 234.894)">
<stop offset="0.06" stop-color="#071256"/>
<stop offset="0.96" stop-color="#030A2B"/>
</radialGradient>
<radialGradient id="paint39_radial_2307_9647" cx="0" cy="0" r="1" gradientUnits="userSpaceOnUse" gradientTransform="translate(2181.68 2778.88) scale(232.883 126.057)">
<stop offset="0.06" stop-color="#071256"/>
<stop offset="0.96" stop-color="#030A2B"/>
</radialGradient>
<radialGradient id="paint40_radial_2307_9647" cx="0" cy="0" r="1" gradientUnits="userSpaceOnUse" gradientTransform="translate(3523.77 8599.35) scale(217.006 237.31)">
<stop stop-color="#8DDFEC"/>
<stop offset="0.94" stop-color="#5E8BEA"/>
</radialGradient>
<radialGradient id="paint41_radial_2307_9647" cx="0" cy="0" r="1" gradientUnits="userSpaceOnUse" gradientTransform="translate(3128.78 7121.38) scale(170.335 173.815)">
<stop stop-color="#8DDFEC"/>
<stop offset="0.94" stop-color="#5E8BEA"/>
</radialGradient>
<radialGradient id="paint42_radial_2307_9647" cx="0" cy="0" r="1" gradientUnits="userSpaceOnUse" gradientTransform="translate(2367.12 4879.09) scale(100.525 92.7738)">
<stop stop-color="#8DDFEC"/>
<stop offset="0.94" stop-color="#5E8BEA"/>
</radialGradient>
<radialGradient id="paint43_radial_2307_9647" cx="0" cy="0" r="1" gradientUnits="userSpaceOnUse" gradientTransform="translate(-4410.74 16018.3) rotate(29.381) scale(1933 3636.82)">
<stop stop-color="#F20074"/>
<stop offset="0.14" stop-color="#ED0376"/>
<stop offset="0.31" stop-color="#DF0B7D"/>
<stop offset="0.49" stop-color="#C71887"/>
<stop offset="0.67" stop-color="#A62A96"/>
<stop offset="0.87" stop-color="#7B42A9"/>
<stop offset="0.9" stop-color="#7446AC"/>
</radialGradient>
<radialGradient id="paint44_radial_2307_9647" cx="0" cy="0" r="1" gradientUnits="userSpaceOnUse" gradientTransform="translate(-7209.93 14626.7) rotate(37.686) scale(1536.4 3629.94)">
<stop stop-color="#F20074"/>
<stop offset="0.14" stop-color="#ED0376"/>
<stop offset="0.31" stop-color="#DF0B7D"/>
<stop offset="0.49" stop-color="#C71887"/>
<stop offset="0.67" stop-color="#A62A96"/>
<stop offset="0.87" stop-color="#7B42A9"/>
<stop offset="0.9" stop-color="#7446AC"/>
</radialGradient>
<radialGradient id="paint45_radial_2307_9647" cx="0" cy="0" r="1" gradientUnits="userSpaceOnUse" gradientTransform="translate(-8263.23 13428.5) rotate(37.686) scale(779.139 3560.57)">
<stop stop-color="#F20074"/>
<stop offset="0.14" stop-color="#ED0376"/>
<stop offset="0.31" stop-color="#DF0B7D"/>
<stop offset="0.49" stop-color="#C71887"/>
<stop offset="0.67" stop-color="#A62A96"/>
<stop offset="0.87" stop-color="#7B42A9"/>
<stop offset="0.9" stop-color="#7446AC"/>
</radialGradient>
<radialGradient id="paint46_radial_2307_9647" cx="0" cy="0" r="1" gradientUnits="userSpaceOnUse" gradientTransform="translate(-3735.17 7756.05) rotate(37.6862) scale(277.425 706.544)">
<stop stop-color="#F20074"/>
<stop offset="0.1" stop-color="#EF0175" stop-opacity="0.98"/>
<stop offset="0.21" stop-color="#E80678" stop-opacity="0.92"/>
<stop offset="0.33" stop-color="#DC0C7E" stop-opacity="0.82"/>
<stop offset="0.46" stop-color="#CA1686" stop-opacity="0.68"/>
<stop offset="0.6" stop-color="#B42290" stop-opacity="0.51"/>
<stop offset="0.74" stop-color="#99329C" stop-opacity="0.29"/>
<stop offset="0.88" stop-color="#7943AA" stop-opacity="0.04"/>
<stop offset="0.9" stop-color="#7446AC" stop-opacity="0"/>
</radialGradient>
<radialGradient id="paint47_radial_2307_9647" cx="0" cy="0" r="1" gradientUnits="userSpaceOnUse" gradientTransform="translate(-1004.51 1173.56) rotate(61.8277) scale(45.2382 70.7547)">
<stop stop-color="#FBE877"/>
<stop offset="0.07" stop-color="#F6E87C"/>
<stop offset="0.16" stop-color="#E9E78A"/>
<stop offset="0.25" stop-color="#D4E5A2"/>
<stop offset="0.35" stop-color="#B5E4C3"/>
<stop offset="0.45" stop-color="#8EE1EE"/>
<stop offset="0.62" stop-color="#5E8DEC"/>
<stop offset="0.63" stop-color="#5F89E8"/>
<stop offset="0.74" stop-color="#6B64C7"/>
<stop offset="0.84" stop-color="#714EB3"/>
<stop offset="0.9" stop-color="#7446AC"/>
</radialGradient>
<radialGradient id="paint48_radial_2307_9647" cx="0" cy="0" r="1" gradientUnits="userSpaceOnUse" gradientTransform="translate(-770.79 410.943) rotate(78.5641) scale(18.2646 42.7201)">
<stop stop-color="#FBE877"/>
<stop offset="0.07" stop-color="#F6E87C"/>
<stop offset="0.16" stop-color="#E9E78A"/>
<stop offset="0.25" stop-color="#D4E5A2"/>
<stop offset="0.35" stop-color="#B5E4C3"/>
<stop offset="0.45" stop-color="#8EE1EE"/>
<stop offset="0.62" stop-color="#5E8DEC"/>
<stop offset="0.63" stop-color="#5F89E8"/>
<stop offset="0.74" stop-color="#6B64C7"/>
<stop offset="0.84" stop-color="#714EB3"/>
<stop offset="0.9" stop-color="#7446AC"/>
</radialGradient>
<radialGradient id="paint49_radial_2307_9647" cx="0" cy="0" r="1" gradientUnits="userSpaceOnUse" gradientTransform="translate(40.5491 62.7449) rotate(126.808) scale(72.3727 104.204)">
<stop offset="0.1" stop-color="#7446AC"/>
<stop offset="0.16" stop-color="#714EB3"/>
<stop offset="0.26" stop-color="#6B64C7"/>
<stop offset="0.37" stop-color="#5F89E8"/>
<stop offset="0.38" stop-color="#5E8DEC"/>
<stop offset="0.55" stop-color="#8EE1EE"/>
<stop offset="0.65" stop-color="#B5E4C3"/>
<stop offset="0.75" stop-color="#D4E5A2"/>
<stop offset="0.84" stop-color="#E9E78A"/>
<stop offset="0.93" stop-color="#F6E87C"/>
<stop offset="1" stop-color="#FBE877"/>
</radialGradient>
<radialGradient id="paint50_radial_2307_9647" cx="0" cy="0" r="1" gradientUnits="userSpaceOnUse" gradientTransform="translate(-31425.6 -16386.7) rotate(125.299) scale(2322.99 4263.59)">
<stop offset="0.1" stop-color="#7446AC"/>
<stop offset="0.16" stop-color="#714EB3"/>
<stop offset="0.26" stop-color="#6B64C7"/>
<stop offset="0.37" stop-color="#5F89E8"/>
<stop offset="0.38" stop-color="#5E8DEC"/>
<stop offset="0.55" stop-color="#8EE1EE"/>
<stop offset="0.65" stop-color="#B5E4C3"/>
<stop offset="0.75" stop-color="#D4E5A2"/>
<stop offset="0.84" stop-color="#E9E78A"/>
<stop offset="0.93" stop-color="#F6E87C"/>
<stop offset="1" stop-color="#FBE877"/>
</radialGradient>
<radialGradient id="paint51_radial_2307_9647" cx="0" cy="0" r="1" gradientUnits="userSpaceOnUse" gradientTransform="translate(-17435.7 -9021.41) rotate(125.299) scale(721.274 1323.83)">
<stop offset="0.1" stop-color="#7446AC"/>
<stop offset="0.16" stop-color="#714EB3"/>
<stop offset="0.26" stop-color="#6B64C7"/>
<stop offset="0.37" stop-color="#5F89E8"/>
<stop offset="0.38" stop-color="#5E8DEC"/>
<stop offset="0.55" stop-color="#8EE1EE"/>
<stop offset="0.65" stop-color="#B5E4C3"/>
<stop offset="0.75" stop-color="#D4E5A2"/>
<stop offset="0.84" stop-color="#E9E78A"/>
<stop offset="0.93" stop-color="#F6E87C"/>
<stop offset="1" stop-color="#FBE877"/>
</radialGradient>
</defs>
</svg>
