<svg width="226" height="229" viewBox="0 0 226 229" fill="none" xmlns="http://www.w3.org/2000/svg">
<path d="M225.997 114.847C225.971 134.966 220.668 154.719 210.627 172.096C200.586 189.473 186.167 203.853 168.835 213.774C151.846 223.623 132.588 228.781 112.998 228.729C83.0692 228.729 54.3625 216.738 33.1778 195.388C11.9931 174.038 0.0610487 145.072 0 114.847C0 112.131 0.115246 109.455 0.345737 106.817C2.21204 77.1855 15.4463 49.4573 37.2363 29.5244C59.0262 9.5915 87.6541 -0.974832 117.036 0.0708276C146.418 1.11649 174.239 13.6917 194.585 35.1242C214.932 56.5566 226.201 85.1569 225.997 114.847V114.847Z" fill="url(#paint0_radial_4674_8036)"/>
<path d="M220.408 117.116C220.47 136.839 215.351 156.226 205.572 173.298C195.793 190.371 181.705 204.518 164.744 214.297C148.169 223.946 129.365 229.004 110.233 228.962C95.7198 228.939 81.3535 226.026 67.9558 220.391C54.5582 214.756 42.3923 206.508 32.154 196.12C21.9157 185.732 13.806 173.407 8.28873 159.851C2.77151 146.295 -0.0449244 131.773 0.000541812 117.116C0.000541812 114.478 0.115787 111.86 0.346279 109.26C2.40658 80.5391 15.4133 53.7431 36.6319 34.5057C57.8505 15.2684 85.6283 5.08834 114.125 6.10565C142.622 7.12297 169.619 19.2584 189.44 39.9608C209.26 60.6632 220.361 88.3198 220.408 117.116V117.116Z" fill="url(#paint1_radial_4674_8036)"/>
<path d="M0.289383 112.927C0.289383 115.429 0.289383 117.989 0.289383 120.55C0.105123 149.067 11.1269 176.495 30.9378 196.818C50.7487 217.141 77.7316 228.701 105.97 228.962C124.377 229.023 142.465 224.1 158.349 214.705C174.703 205.17 188.272 191.44 197.683 174.906C207.093 158.372 212.011 139.62 211.938 120.55C211.938 118.455 210.497 115.254 210.44 112.81C210.44 111.588 210.44 110.308 210.44 109.086C210.44 106.351 209.806 103.79 209.806 101.055C209.806 99.6588 209.806 98.2622 209.806 96.9238C209.806 95.5854 209.23 94.5961 209.172 93.374C208.701 90.8038 208.547 88.1848 208.711 85.5763C209.057 83.8305 209.864 82.2012 208.02 81.0373C206.176 79.8735 206.464 80.63 205.657 79.1752C205.039 78.142 204.305 77.1851 203.467 76.3237C202.032 75.0318 200.738 73.5881 199.607 72.0175C199.24 71.5407 198.913 71.0347 198.627 70.5045C198.627 69.8062 199.376 69.2243 199.031 68.5842C197.532 68.1768 195.977 68.5842 194.536 68.5842C193.095 68.5842 192.462 66.4311 192.231 64.7435C192.139 63.8311 192.278 62.91 192.634 62.0666C192.749 61.1392 192.749 60.2009 192.634 59.2734V60.7282C192.91 58.7985 192.91 56.8388 192.634 54.909C192.013 53.5758 191.175 52.3564 190.157 51.3011C188.814 50.2246 187.194 49.5583 185.489 49.3808C183.127 48.7406 183.53 46.0638 182.493 44.2016C182.027 43.4346 181.443 42.7471 180.764 42.1649C179.154 40.3453 177.69 38.3995 176.385 36.3457C173.849 32.9124 171.833 32.9706 167.857 32.796C163.931 32.4781 160.09 31.4739 156.505 29.8282C152.151 26.883 146.99 25.3967 141.753 25.5801C138.738 26.6631 135.659 27.5571 132.534 28.257C129.813 28.126 127.182 27.2401 124.928 25.6965C120.078 22.2786 114.677 19.7385 108.966 18.1897C103.799 17.2112 98.5167 17.0151 93.2926 17.6078C87.8031 18.6863 82.4359 20.3241 77.2735 22.496C71.5826 25.2566 66.2745 28.7586 61.4848 32.9124C57.1055 35.9384 51.5737 36.5785 47.3672 39.779C45.5265 41.123 43.9282 42.7764 42.6422 44.6672C42.1812 45.4819 42.0083 46.5293 41.5473 47.4022C40.7496 48.7969 39.7601 50.0704 38.6086 51.1847C29.5618 61.3683 14.1189 65.0345 7.43461 76.9639C6.33978 78.9424 3.57388 89.5916 2.94003 91.6865C1.67233 95.8763 10.892 98.8441 9.79715 103.034C9.29717 104.238 8.67947 105.388 7.95322 106.467C7.45618 107.721 6.75503 108.881 5.8788 109.901C4.6111 111.297 1.44184 111.297 0.289383 112.927Z" fill="url(#paint2_radial_4674_8036)"/>
<g style="mix-blend-mode:multiply" opacity="0.2">
<path d="M195.168 138.24C198.164 142.004 200.379 146.338 201.68 150.984C202.166 154.228 201.705 157.545 200.355 160.528C199.979 161.563 199.433 162.527 198.741 163.379C197.795 164.066 196.77 164.633 195.687 165.067C193.839 166.304 192.121 167.727 190.559 169.315C189.637 170.13 188.599 170.886 187.735 171.759C186.409 173.379 185.196 175.09 184.105 176.88C181.339 180.488 179.322 184.969 175.231 187.064C172.638 188.685 169.636 189.514 166.588 189.449C163.362 189.123 160.28 187.938 157.656 186.016C155.842 184.951 153.907 184.111 151.894 183.514C149.237 182.435 146.525 181.503 143.769 180.721C140.178 179.513 136.431 178.847 132.648 178.742C131.094 178.767 129.606 179.378 128.475 180.455C127.345 181.531 126.655 182.996 126.54 184.561C126.54 187.82 129.478 191.021 131.38 193.639C132.014 194.512 132.187 195.152 133.051 196.374C133.915 197.596 134.376 199.226 135.586 200.04C137.908 201.474 140.407 202.589 143.02 203.357C146.074 204.347 149.358 204.754 152.297 205.918C155.961 206.912 159.56 208.137 163.073 209.584C165.215 210.738 167.161 212.231 168.835 214.007C151.846 223.856 132.588 229.014 112.998 228.962C83.0293 228.962 54.2877 216.939 33.0964 195.539C11.9051 174.138 0 145.112 0 114.847C0 112.131 0.0768304 109.532 0.230491 107.049C0.631185 107.116 1.03988 107.116 1.44057 107.049C2.93486 107.073 4.39185 106.577 5.56698 105.645C6.74212 104.713 7.56388 103.4 7.89432 101.928C8.12482 100.706 8.5858 99.077 8.87391 98.4951C9.16203 97.9131 8.87391 95.76 9.16203 95.4109C10.6602 93.5487 12.2737 97.8549 12.677 98.6696C15.0972 104.023 17.2292 112.985 23.7982 112.81C30.3672 112.636 31.2892 103.558 30.3672 98.7278C29.7723 94.4224 30.4962 90.0362 32.4416 86.1583C35.6685 79.0589 38.0311 71.843 41.4308 64.9182C42.5072 61.6202 44.5091 58.709 47.1931 56.5385C49.4021 54.6926 51.9755 53.3436 54.7417 52.5814C56.3458 52.1616 58.0466 52.3478 59.5244 53.1051C61.3 54.6644 62.6325 56.6729 63.3851 58.9244C65.045 63.8163 66.0904 68.8994 66.4967 74.0543C66.9577 78.186 66.0934 84.1798 69.3202 87.3804C71.6765 89.3514 74.4293 90.7811 77.3874 91.5702C79.1755 92.194 81.0962 92.3232 82.9504 91.9446C84.8046 91.566 86.5248 90.6933 87.9324 89.4171C89.9146 87.9113 91.7306 86.1944 93.349 84.2962C94.5014 82.8995 95.5962 81.0956 96.8639 79.8154C97.3404 79.2963 97.765 78.731 98.1316 78.1278C98.5995 77.3045 99.2756 76.6217 100.091 76.1493C102.822 74.893 105.909 74.6659 108.792 75.5091C110.269 75.7771 111.664 76.3903 112.864 77.2997C114.065 78.209 115.038 79.3894 115.707 80.7464C117.159 83.7487 118.937 86.5787 121.008 89.1843C123.291 91.7994 124.613 95.1281 124.753 98.6114C124.67 100.676 124.16 102.699 123.257 104.553C122.354 106.407 121.078 108.05 119.51 109.377C116.473 112.678 113.114 115.661 109.483 118.28C108.187 119.066 107.069 120.116 106.199 121.365C105.327 122.975 104.152 124.398 102.741 125.554C100.807 126.919 98.5036 127.65 96.1437 127.65C93.7838 127.65 91.4807 126.919 89.5458 125.554C85.0457 122.557 80.1854 120.152 75.0825 118.397C72.2975 117.828 69.4074 118.117 66.7872 119.228C64.1671 120.338 61.9378 122.218 60.3887 124.623C59.032 127.794 58.6896 131.314 59.4091 134.691C60.2717 137.616 62.2376 140.082 64.8833 141.557C68.9211 143.896 73.2954 145.584 77.8484 146.562C79.9343 146.986 82.0595 147.181 84.1869 147.144C86.319 147.086 88.2205 147.784 90.2373 147.784C94.0866 147.974 97.945 147.798 101.762 147.26C105.922 147.265 110.065 146.737 114.093 145.689C118.155 143.614 121.611 140.505 124.12 136.669C127.116 132.77 128.556 128.173 131.207 124.1C132.307 122.079 133.539 120.135 134.895 118.28C136.451 116.535 138.237 114.905 139.908 113.101C142.851 110.748 145.316 107.844 147.169 104.547C148.34 101.954 148.492 99.0092 147.593 96.3079C146.694 93.6066 144.812 91.3513 142.328 89.999C135.529 86.3911 126.77 83.4815 123.198 76.0329C122.472 74.3815 121.968 72.6397 121.699 70.8538C121.235 69.4097 121.077 67.8827 121.238 66.373C121.884 64.0548 123.17 61.9701 124.945 60.3626C126.721 58.755 128.913 57.6911 131.265 57.295C136.243 55.6524 141.418 54.6933 146.65 54.4436C149.971 54.7374 153.173 55.8352 155.985 57.6441C160.537 60.2628 157.368 66.3148 160.537 69.9227C163.195 71.7283 166.323 72.7 169.526 72.7159C171.469 72.6121 173.415 72.8283 175.289 73.356C177.133 74.2871 177.651 76.0329 178.804 77.5459C180.882 80.0295 183.48 82.017 186.41 83.3651C188.052 84.1727 189.49 85.3467 190.616 86.7984C191.826 88.777 191.308 90.4645 191.826 92.6176C192.269 94.8921 192.007 97.2489 191.077 99.368C190.707 101.445 189.923 103.425 188.772 105.187C187.552 106.934 186.183 108.569 184.681 110.075C183.241 111.414 181.108 112.403 180.302 114.207C178.688 117.582 181.858 120.724 183.874 122.936C185.704 124.965 187.361 127.145 188.83 129.453C190.904 132.421 193.152 135.214 195.168 138.24Z" fill="#00104A"/>
</g>
<g style="mix-blend-mode:multiply" opacity="0.2">
<path d="M96.23 58.9243C93.3654 54.2908 91.6826 49.0125 91.332 43.5615C91.332 40.3027 92.715 36.6366 96.23 35.8801C99.1786 35.6849 102.11 36.4609 104.585 38.0914C105.899 38.7552 107.104 39.6188 108.158 40.6519C109.124 41.9127 109.776 43.3896 110.059 44.9581C111.27 48.7988 113.459 56.5966 108.792 58.8079C106.841 59.7799 104.699 60.2952 102.524 60.3153C100.349 60.3355 98.1977 59.86 96.23 58.9243V58.9243Z" fill="#00104A"/>
</g>
<g style="mix-blend-mode:multiply" opacity="0.2">
<path d="M83.0358 37.3934C84.7081 38.2008 86.4981 38.7314 88.3372 38.9647C88.3372 38.15 88.8558 38.0336 89.0863 37.3934C89.2304 36.8008 89.2304 36.1818 89.0863 35.5893C88.9451 35.2179 88.7021 34.8948 88.3858 34.6578C88.0694 34.4207 87.6928 34.2795 87.3 34.2507C86.7237 34.2507 86.0899 34.2507 85.5136 34.2507C84.9374 34.2507 85.1679 33.7852 84.7069 33.7852C84.2459 33.7852 82.8054 35.8803 82.9206 36.8696L83.0358 37.3934Z" fill="#00104A"/>
</g>
<g style="mix-blend-mode:multiply" opacity="0.2">
<path d="M150.338 40.943C152.816 39.721 158.175 36.1713 161.46 37.8589C163.917 39.399 166.083 41.3696 167.856 43.6781C168.698 44.573 169.32 45.6559 169.67 46.8388C170.02 48.0217 170.09 49.2714 169.872 50.4865C169.334 51.5841 168.517 52.5179 167.505 53.1926C166.493 53.8673 165.321 54.2588 164.11 54.3271C162.619 54.1909 161.15 53.8784 159.731 53.3961C157.953 53.0273 156.202 52.5413 154.487 51.9413C153.081 51.2738 151.81 50.3461 150.742 49.2063C149.973 48.6575 149.276 48.0122 148.667 47.2859C148.34 46.6686 148.168 45.9789 148.168 45.2783C148.168 44.5778 148.34 43.8881 148.667 43.2707C149.128 42.2233 150.396 39.5464 150.338 40.943Z" fill="#00104A"/>
</g>
<g style="mix-blend-mode:multiply" opacity="0.2">
<path d="M104.125 152.439C105.047 156.512 105.22 164.601 111.213 164.485C114.267 164.485 115.534 162.564 115.073 159.655C114.972 158.044 114.442 156.491 113.54 155.16C112.637 153.828 111.395 152.768 109.945 152.09C109.087 151.725 108.168 151.527 107.237 151.508C106.142 151.508 105.105 153.254 104.125 153.777V152.439Z" fill="#00104A"/>
</g>
<defs>
<radialGradient id="paint0_radial_4674_8036" cx="0" cy="0" r="1" gradientUnits="userSpaceOnUse" gradientTransform="translate(137.949 52.4651) scale(131.15 132.445)">
<stop stop-color="#2BCCB7"/>
<stop offset="0.15" stop-color="#28BEB1"/>
<stop offset="0.44" stop-color="#2299A1"/>
<stop offset="0.82" stop-color="#175D88"/>
<stop offset="1" stop-color="#12407B"/>
</radialGradient>
<radialGradient id="paint1_radial_4674_8036" cx="0" cy="0" r="1" gradientUnits="userSpaceOnUse" gradientTransform="translate(133.888 56.4895) scale(127.34 129.871)">
<stop stop-color="#1E7699"/>
<stop offset="0.25" stop-color="#1A6E8B"/>
<stop offset="0.73" stop-color="#0E5766"/>
<stop offset="1" stop-color="#07494E"/>
</radialGradient>
<radialGradient id="paint2_radial_4674_8036" cx="0" cy="0" r="1" gradientUnits="userSpaceOnUse" gradientTransform="translate(129.852 65.3493) scale(121.242 123.689)">
<stop offset="0.28" stop-color="#0E4C62"/>
<stop offset="0.51" stop-color="#0D4761"/>
<stop offset="0.78" stop-color="#09395F"/>
<stop offset="1" stop-color="#04285D"/>
</radialGradient>
</defs>
</svg>
