<svg width="350" height="341" viewBox="0 0 350 341" fill="none" xmlns="http://www.w3.org/2000/svg">
<g filter="url(#filter0_d_4674_7892)">
<path fill-rule="evenodd" clip-rule="evenodd" d="M296.551 81.4063C297.444 82.5877 298.338 83.8085 299.149 85.0293C307.466 96.8514 313.898 109.822 318.229 123.505C327.184 151.828 327.027 182.127 317.779 210.361C308.53 238.596 290.63 263.425 266.465 281.538C242.299 299.651 213.017 310.188 182.521 311.743C152.025 313.299 121.765 305.799 95.7743 290.244C93.1763 288.669 90.6189 287.054 88.102 285.321C69.6595 272.587 54.4226 255.973 43.5303 236.722C32.6381 217.471 26.3723 196.08 25.2012 174.149C24.03 152.218 27.9839 130.313 36.7673 110.073C45.5508 89.8329 58.9365 71.7806 75.9239 57.2657C78.7655 54.8241 81.6882 52.5006 84.7733 50.2952C85.5852 49.6651 86.4376 49.0744 87.2901 48.4837C96.214 42.2219 105.826 36.9388 115.949 32.7313C122.103 30.1471 128.438 27.9889 134.907 26.2728C164.454 18.3445 195.794 19.3776 224.719 29.2332C253.643 39.0888 278.766 57.2949 296.714 81.4063H296.551Z" fill="url(#paint0_radial_4674_7892)"/>
<path style="mix-blend-mode:multiply" opacity="0.3" fill-rule="evenodd" clip-rule="evenodd" d="M230.749 31.4302H229.572C227.407 31.4164 225.246 31.601 223.117 31.9815C221.331 32.3359 219.829 33.2417 218.246 33.6749C215.421 34.4003 212.52 34.8099 209.6 34.8957C206.109 34.8957 202.902 36.0378 199.411 36.2741C190.236 36.9042 181.427 32.336 172.984 29.6974C171.176 29.1714 169.412 28.5131 167.707 27.7284C166.417 27.2025 165.044 26.8961 163.647 26.8226C160.519 26.1399 157.249 26.4434 154.311 27.689C152.606 28.5554 151.956 30.3275 150.942 31.9815C149.927 33.6355 149.034 34.9351 151.469 35.9196C155.732 37.5736 161.13 38.6369 160.765 44.3078C160.706 47.8834 160.381 51.4501 159.791 54.9801C158.938 58.9182 159.182 63.8014 156.3 67.0701C154.148 69.4723 150.251 69.3542 147.207 70.1418C144.401 70.6236 141.672 71.4576 139.088 72.6228C137.413 73.8416 135.899 75.257 134.582 76.8366C133.555 78.088 132.138 78.983 130.543 79.3876C128.947 79.7923 127.26 79.6848 125.733 79.0813C124.556 78.4906 124.637 78.018 123.135 78.018C121.604 78.2112 120.12 78.6645 118.751 79.357C115.057 80.8928 111.809 83.5707 108.115 85.0278C105.453 85.907 102.742 86.6433 99.9963 87.2332C98.3662 87.913 96.6831 88.4661 94.9627 88.8872C94.029 88.8872 92.8112 88.8872 91.8369 88.8872C89.1889 88.7581 86.5856 89.5859 84.5301 91.2106C79.1729 95.2459 74.736 100.315 71.4993 106.097C69.6726 109.562 70.8498 111.137 73.7726 113.107C76.6953 115.076 80.43 116.257 81.6478 119.092C82.2555 121.61 82.7029 124.162 82.9875 126.732C83.1388 127.926 83.5411 129.076 84.1696 130.113C84.798 131.149 85.6393 132.05 86.641 132.758C91.0116 134.431 95.4856 135.839 100.037 136.971C104.665 139.019 110.145 144.099 108.156 149.337C107.42 151.898 107.2 154.572 107.506 157.213C107.506 159.064 108.115 161.585 105.923 162.49C104.462 163.081 102.27 162.215 100.768 162.49C99.9996 162.791 99.314 163.261 98.7647 163.862C98.2153 164.464 97.8169 165.18 97.6012 165.956C96.2901 168.369 95.3077 170.937 94.6785 173.596C94.8119 176.178 95.629 178.683 97.0511 180.87C98.4732 183.057 100.452 184.851 102.797 186.08C107.587 188.6 112.256 191.396 117.858 190.451C121.471 189.86 124.759 187.576 128.412 189.309C130.645 190.412 131.659 192.341 133.405 193.838C135.271 195.17 137.047 196.617 138.723 198.17C140.191 199.804 141.807 201.306 143.553 202.659C145.999 204.717 148.575 206.624 151.266 208.369C154.563 209.866 158.021 211.002 161.577 211.756C164.516 212.406 167.501 212.841 170.508 213.056C174.022 213.34 177.478 214.095 180.778 215.3C183.133 216.521 185.406 217.978 187.841 219.239C194.702 222.271 197.624 215.064 199.573 209.984C201.043 206.632 202.066 203.112 202.617 199.509C202.814 196.54 203.317 193.598 204.12 190.727C204.948 187.891 205.978 185.114 207.205 182.417C207.849 181.448 208.328 180.384 208.625 179.267C208.72 177.331 208.117 175.423 206.921 173.872C204.56 169.796 201.697 166.014 198.396 162.609C194.783 159.537 190.845 162.845 187.801 164.893C186.991 165.608 186.009 166.113 184.944 166.36C183.879 166.608 182.768 166.591 181.712 166.31C179.844 165.405 178.911 163.593 176.8 162.766C175.769 162.336 174.62 162.249 173.533 162.52C172.446 162.791 171.482 163.404 170.792 164.263C170.061 165.011 169.777 165.877 168.965 166.625C168.153 167.374 167.139 167.413 166.976 168.594C166.53 171.075 170.467 171.312 172.253 171.824C175.42 172.729 175.907 173.084 176.313 176.234C176.637 178.046 176.962 181 174.608 181.551C172.943 181.945 169.98 179.857 168.437 179.464C161.861 177.731 155.204 175.998 155.163 168.004C155.163 165.523 156.381 164.853 157.152 162.727C157.924 160.6 157.152 157.962 158.005 155.677C159.263 152.724 163.282 150.991 165.88 149.14C169.17 146.864 172.677 144.899 176.353 143.272C178.543 142.403 180.888 141.961 183.254 141.973C185.771 141.737 187.314 139.61 189.465 138.665C193.524 136.971 197.015 138.429 201.115 139.256C204.633 140.127 207.827 141.942 210.33 144.493C216.878 149.663 222.765 155.572 227.867 162.097C231.707 168.094 236.227 173.655 241.344 178.676C243.881 180.831 246.596 182.781 249.463 184.504C250.396 185.056 250.518 184.504 251.086 185.804C251.53 187.157 251.79 188.56 251.858 189.978C251.47 192.45 250.873 194.887 250.072 197.264C249.478 199.353 248.718 201.394 247.798 203.368C246.662 206.361 245.403 209.157 244.186 212.071C242.237 216.797 245.769 221.404 244.754 226.445C243.292 233.613 238.665 237.984 234.605 243.891C231.141 248.368 227.968 253.05 225.107 257.911C223.797 261.08 222.32 264.183 220.682 267.205C217.967 270.853 215.011 274.326 211.832 277.601C209.579 280.367 206.828 282.715 203.713 284.532C201.638 285.402 199.631 286.415 197.706 287.565C194.052 290.124 190.439 292.763 186.745 295.244C184.671 296.339 182.42 297.085 180.088 297.449C177.774 298.079 175.298 298.513 172.943 299.143C166.732 300.757 159.182 304.695 152.646 302.726C150.779 302.136 148.993 301.112 147.045 300.679C145.451 300.541 143.848 300.541 142.254 300.679C140.971 300.581 139.682 300.581 138.398 300.679C136.453 300.728 134.511 300.503 132.634 300.009C130.883 299.773 129.107 299.773 127.357 300.009C126.3 300.307 125.209 300.479 124.109 300.521C122.972 300.285 123.054 299.655 122.282 298.906C121.511 298.158 120.415 297.607 119.481 296.819C116.88 294.311 113.366 292.897 109.698 292.881C108.016 293.216 106.301 293.374 104.583 293.354C101.394 293.311 98.3148 292.214 95.8556 290.243C95.8556 290.243 95.8556 290.479 95.8556 290.558C126.256 308.615 162.285 315.594 197.503 310.248C198.098 309.303 198.666 308.358 199.208 307.413C200.834 304.797 203.108 302.617 205.824 301.072C209.358 298.605 212.647 295.823 215.648 292.763C218.374 290.161 221.336 287.802 224.498 285.714C228.557 282.997 231.642 279.492 235.661 276.735C239.5 274.428 243.582 272.527 247.839 271.064C253.682 267.955 258.786 263.689 262.818 258.541C264.848 256.454 266.066 253.658 268.177 251.689C269.476 250.468 270.937 249.601 272.236 248.262C275.518 244.891 279.31 242.022 283.48 239.756C286.119 238.417 288.433 239.756 291.072 239.441C293.71 239.126 295.659 236.606 297.932 235.503C299.316 234.903 300.832 234.651 302.343 234.768C303.854 234.885 305.31 235.368 306.578 236.172C316.189 219.104 322.187 200.346 324.223 180.998C326.258 161.65 324.289 142.103 318.432 123.503C315.062 125.905 311.977 132.128 309.907 133.309C308.649 134.057 307.147 134.097 305.848 135.002C304.765 135.868 303.797 136.86 302.965 137.956C301.463 139.492 299.556 141.422 297.404 140.476C295.253 139.531 294.684 135.278 291.802 136.538C290.381 137.287 289.894 139.059 288.23 139.846C286.891 140.345 285.622 141.006 284.455 141.815C282.565 143.347 280.788 145.005 279.137 146.777C278.24 147.498 277.184 148.01 276.052 148.274C275.008 148.929 273.908 149.496 272.764 149.967C269.557 150.4 269.882 146.659 269.8 144.651C269.861 143.523 269.861 142.392 269.8 141.264C269.522 140.352 269.097 139.488 268.542 138.704C267.449 136.023 267.362 133.053 268.298 130.316C269.514 126.193 270.115 121.923 270.085 117.635C270.256 115.99 270.02 114.33 269.394 112.791C268.785 111.531 268.176 110.271 267.608 108.853C266.94 107.389 266.397 105.875 265.985 104.325C265.376 102.159 264.036 100.386 263.346 98.2205C262.51 95.6723 262.384 92.955 262.981 90.3443C263.346 89.4779 264.279 89.0053 264.604 88.0208C264.929 87.0363 264.604 86.288 265.091 85.4217C266.39 83.3738 271.059 82.5074 273.21 81.9167C276.69 81.0201 280.32 80.8059 283.886 81.2866C287.268 81.9442 290.583 82.8931 293.791 84.1221C295.587 84.7339 297.501 84.9492 299.393 84.7522C298.581 83.5313 297.688 82.3105 296.795 81.1291C280.108 58.7988 257.194 41.5564 230.749 31.4302V31.4302ZM208.666 129.883C208.991 130.867 207.651 132.482 206.799 132.915C205.053 133.782 202.739 132.915 200.669 132.915C198.696 132.842 196.831 132.022 195.473 130.631H197.178C194.905 129.883 191.982 129.686 191.86 126.693C191.837 125.981 192.099 125.289 192.591 124.76C193.083 124.231 193.766 123.908 194.499 123.858C197.068 123.125 199.777 122.976 202.414 123.424C204.006 124.056 205.315 125.214 206.109 126.693C207.146 127.717 208.059 128.853 208.828 130.08L208.666 129.883ZM184.472 45.2529C184.632 47.0806 184.13 48.9052 183.051 50.4118C182.123 51.7666 180.971 52.964 179.641 53.9562C176.717 55.4146 173.379 55.899 170.142 55.3345C168.397 55.3345 164.175 54.5075 168.437 53.1685C167.349 52.6579 166.392 51.9179 165.636 51.0026C165.213 50.2144 164.847 49.3986 164.541 48.561C163.769 46.7888 163.81 44.8591 163.16 43.0476C162.692 41.5582 162.066 40.1197 161.293 38.7551C160.562 37.6524 159.547 36.9435 159.994 35.4864C160.07 35.1043 160.283 34.7606 160.595 34.5157C160.907 34.2707 161.298 34.1404 161.699 34.1475C162.81 34.2839 163.9 34.5483 164.946 34.9351C166.042 35.1714 167.098 35.4471 168.153 35.7621C171.279 36.5497 173.958 38.5188 177.003 39.7002C178.646 40.1049 180.219 40.7418 181.671 41.5905C182.369 41.9852 182.977 42.5133 183.459 43.1429C183.94 43.7724 184.285 44.4903 184.472 45.2529V45.2529ZM274.428 71.2444C274.753 74.198 271.952 77.1122 269.922 79.1207C266.432 81.8157 262.472 83.883 258.231 85.2247C256.747 85.8465 255.136 86.1295 253.522 86.0517C251.695 86.0517 249.788 86.6031 252.02 85.4217C250.105 84.0441 248.275 82.5581 246.54 80.9716C244.214 79.0908 241.789 77.3294 239.274 75.6945C234.796 72.9277 231.143 69.0717 228.679 64.5103C227.995 62.9082 227.719 61.1698 227.874 59.4423C228.03 57.7148 228.612 56.0491 229.572 54.5863C231.194 52.6006 233.382 51.1215 235.864 50.3331C238.776 49.5913 241.812 49.4173 244.794 49.8212C247.711 50.027 250.516 50.993 252.913 52.6172C254.578 53.8774 255.958 55.4526 257.744 56.5553C258.637 57.146 259.489 57.658 260.342 58.2881C261.437 58.9783 262.645 59.4842 263.914 59.7846C265.711 60.1597 267.342 61.0681 268.582 62.3837C269.76 63.8408 270.774 65.3767 271.911 66.8731C273.213 68.0549 274.142 69.5707 274.59 71.2444H274.428Z" fill="url(#paint1_linear_4674_7892)"/>
<path style="mix-blend-mode:multiply" opacity="0.3" fill-rule="evenodd" clip-rule="evenodd" d="M89.9675 174.07C90.2517 175.487 91.1448 178.599 90.333 180.056C89.5211 181.513 86.517 181.395 84.9744 181.631C83.6114 181.668 82.2537 181.812 80.915 182.064C79.9484 182.526 78.9435 182.908 77.911 183.206C76.9162 183.363 75.9019 183.363 74.9071 183.206C74.0773 182.904 73.308 182.465 72.6338 181.907C70.8492 180.484 69.1674 178.945 67.6001 177.299C66.6419 176.428 65.9649 175.306 65.6514 174.07C65.0019 172.376 64.2306 170.722 63.6623 168.989C62.6529 166.455 61.9712 163.81 61.6325 161.113C61.4514 158.905 62.0686 156.705 63.3781 154.891C63.9058 154.024 64.6365 153.394 65.1642 152.528C65.7157 151.443 66.397 150.425 67.194 149.496C67.6812 148.976 68.2416 148.525 68.8585 148.157C69.5736 147.905 70.3307 147.785 71.0911 147.802C72.0751 147.546 73.1111 147.546 74.0951 147.802C75.012 148.086 75.8757 148.511 76.6526 149.062C78.1952 150.244 80.0625 151.15 81.4834 152.41C83.4308 153.894 84.8504 155.932 85.5428 158.238C86.1689 160.42 86.9977 162.542 88.019 164.579C89.0623 166.467 89.7497 168.521 90.0488 170.643C89.9416 171.782 89.9144 172.927 89.9675 174.07V174.07Z" fill="url(#paint2_linear_4674_7892)"/>
<path style="mix-blend-mode:multiply" opacity="0.3" fill-rule="evenodd" clip-rule="evenodd" d="M85.9096 190.098C85.7036 191.006 85.7888 191.954 86.1534 192.815C87.5338 192.618 88.7924 194.469 90.2134 193.839C90.2134 192.618 91.3907 190.531 89.6449 189.901C89.4013 189.901 88.8735 189.901 88.5893 189.901C88.3051 189.901 87.8178 189.507 87.4524 189.546C87.087 189.586 85.2195 191.082 84.5293 191.555L85.9096 190.098Z" fill="url(#paint3_linear_4674_7892)"/>
<path style="mix-blend-mode:multiply" opacity="0.3" fill-rule="evenodd" clip-rule="evenodd" d="M118.22 181.869C119.233 182.468 120.369 182.845 121.549 182.972C122.604 182.972 123.863 182.972 124.959 182.972C127.066 182.918 129.173 183.063 131.251 183.405C133.159 183.917 133.565 185.177 134.742 186.398C135.919 187.619 136.284 187.816 137.056 188.524C137.509 188.869 137.942 189.238 138.355 189.627C138.729 190.208 139.164 190.749 139.654 191.242C140.75 192.148 142.211 192.423 143.307 193.329C144.068 194.183 145.01 194.868 146.067 195.337C146.916 195.455 147.777 195.455 148.625 195.337C149.723 195.401 150.804 195.627 151.832 196.007C155.404 197.149 157.799 199.945 161.209 201.363C164.619 202.78 167.663 199.315 170.221 198.173C170.667 198.173 171.195 198.173 171.56 197.74C171.921 197.329 172.209 196.863 172.413 196.361C172.904 195.607 173.609 195.005 174.443 194.629C174.97 194.392 174.93 194.904 175.458 194.313C175.765 193.745 175.878 193.097 175.782 192.463C175.71 191.818 175.486 191.199 175.127 190.653C174.767 190.106 174.283 189.647 173.712 189.312L170.261 186.595C169.103 185.888 167.992 185.112 166.933 184.271C165.999 183.326 165.431 182.145 164.457 181.239C162.209 179.336 159.321 178.299 156.338 178.325C153.415 177.931 149.721 178.325 147.894 175.686C147.163 174.584 147.61 174.229 147.61 173.087C147.348 171.791 147.28 170.464 147.407 169.149C147.765 168.424 148.201 167.738 148.706 167.101C149.429 166.233 150.08 165.311 150.655 164.345C151.263 163.242 150.655 162.572 150.655 161.43C150.655 160.288 150.939 160.997 151.223 160.407C151.549 159.825 151.73 159.178 151.751 158.516C151.974 157.212 151.974 155.882 151.751 154.578C151.447 153.515 151.364 152.404 151.507 151.31C151.726 149.871 152.052 148.45 152.481 147.056C152.909 145.58 153.703 144.228 154.795 143.118C155.359 142.629 155.971 142.194 156.622 141.819C158.218 140.372 159.501 138.632 160.397 136.699C162.021 134.061 163.563 128.823 167.663 129.768C168.922 130.044 169.693 131.107 171.033 131.147C173.834 131.147 175.092 128.626 176.513 126.618C178.518 123.2 179.892 119.468 180.572 115.591C180.985 114.489 181.148 113.313 181.05 112.144C180.952 110.975 180.595 109.84 180.004 108.818C177.162 104.525 171.561 104.171 168.069 100.626C164.578 97.0821 163.401 91.8444 161.168 87.7094C160.045 85.3525 158.085 83.4657 155.648 82.393C154.718 82.0928 153.746 81.9334 152.765 81.9204C150.736 81.9204 150.127 83.1018 148.503 83.8895C147.601 84.2894 146.587 84.3864 145.621 84.1651C142.658 83.9288 139.775 87.1581 137.502 88.6546C134.276 91.0907 130.486 92.7263 126.461 93.4197C121.8 93.9709 117.11 94.2471 112.415 94.2466C108.919 94.1214 105.418 94.253 101.942 94.6404C99.5193 95.1118 97.233 96.0932 95.244 97.5153C93.8201 98.3431 92.6345 99.5062 91.7971 100.897C90.9598 102.287 90.498 103.86 90.454 105.47C90.2104 108.699 91.9558 109.172 94.3102 110.865C95.0815 111.377 96.7865 112.401 96.9083 113.465C97.0301 114.528 94.6352 116.339 93.4985 117.088C92.3619 117.836 90.048 118.86 90.3727 120.396C90.6975 121.931 92.4024 123.231 93.0924 124.334C93.7825 125.436 94.2697 126.46 95.447 126.736C96.6242 127.012 97.1113 126.421 97.9638 126.303C99.5063 126.303 100.481 126.933 101.82 127.405C102.858 127.642 103.92 127.761 104.986 127.76C106.306 128.126 107.673 128.312 109.046 128.311C111.278 127.996 112.578 126.46 115.013 126.815C115.846 127.045 116.705 127.177 117.571 127.208C118.25 127.085 118.916 126.9 119.56 126.657C121.143 126.224 123.619 125.673 124.837 127.09C126.055 128.508 124.837 131.028 123.822 132.131C122.807 133.234 121.265 134.455 121.833 136.069C122.401 137.684 123.741 137.841 123.781 139.338C123.781 144.024 117.611 144.575 114.607 146.82C110.101 150.128 110.548 155.602 110.548 160.525C110.548 160.997 110.548 161.47 110.548 161.903C110.548 162.336 110.954 162.927 111.157 163.636C111.252 164.627 110.978 165.619 110.385 166.432C109.925 167.494 109.216 168.437 108.315 169.188C107.049 169.961 105.829 170.802 104.662 171.709C104.236 172.201 103.924 172.776 103.747 173.396C103.57 174.015 103.533 174.664 103.637 175.299C103.74 175.933 103.983 176.539 104.349 177.075C104.715 177.61 105.196 178.063 105.758 178.404C107.138 179.427 109.492 179.309 111.075 180.018C112.263 180.705 113.513 181.285 114.81 181.751C115.617 181.871 116.43 181.95 117.246 181.987C118.098 181.908 118.991 182.617 118.22 181.869Z" fill="url(#paint4_linear_4674_7892)"/>
<path style="mix-blend-mode:multiply" opacity="0.3" fill-rule="evenodd" clip-rule="evenodd" d="M214.39 134.652C214.89 135.905 215.589 137.074 216.46 138.118C217.313 138.984 218.165 139.772 218.937 140.717C220.926 143.237 222.387 146.23 224.336 148.869C225.499 150.289 226.79 151.606 228.192 152.807C229.728 154.651 231.087 156.629 232.251 158.714C233.955 161.548 236.583 163.751 239.721 164.975C240.304 165.186 240.93 165.264 241.549 165.202C242.169 165.141 242.765 164.942 243.293 164.621C244.429 163.912 244.876 162.77 246.013 162.061C247.149 161.352 247.961 161.667 249.057 161.471C250.153 161.274 251.817 160.88 253.116 160.525C254.238 160.27 255.405 160.27 256.526 160.525C257.623 160.525 258.84 160.525 259.774 161.077C260.708 161.628 260.139 163.282 260.058 164.463C260.073 166.699 259.56 168.909 258.556 170.922C258.317 171.454 257.949 171.923 257.482 172.286C257.015 172.65 256.465 172.898 255.877 173.009C254.578 173.403 253.32 173.757 252.751 175.175C251.949 177.055 251.642 179.098 251.858 181.122C251.925 181.585 252.062 182.036 252.264 182.461C252.751 183.288 252.264 182.736 253.157 183.051C253.994 183.24 254.747 183.681 255.309 184.311C256.189 185.7 256.743 187.26 256.932 188.88C257.135 189.881 257.135 190.911 256.932 191.912C256.751 193.027 256.507 194.131 256.202 195.22C255.662 197.411 254.984 199.568 254.172 201.679C252.95 204.22 251.945 206.854 251.168 209.555C249.382 215.186 246.703 220.148 247.393 226.252C247.506 227.193 247.816 228.101 248.305 228.92C248.794 229.74 249.45 230.453 250.234 231.017C251 231.153 251.772 231.245 252.548 231.293C253.688 231.667 254.748 232.241 255.674 232.986C256.952 234.005 258.474 234.696 260.099 234.995C261.769 234.9 263.382 234.369 264.767 233.459C265.431 232.964 266.122 232.504 266.837 232.081C267.426 231.895 267.997 231.657 268.542 231.372C270.392 229.902 272.627 228.961 274.997 228.654C275.891 228.612 276.786 228.732 277.635 229.009C278.66 229.477 279.718 229.872 280.802 230.19C282.912 230.466 284.861 227.512 285.632 226.252C286.972 224.283 288.19 221.645 290.544 220.581C292.025 220.216 293.531 219.953 295.05 219.794C296.939 219.174 298.905 218.803 300.895 218.691C301.677 218.763 302.462 218.583 303.128 218.179C305.398 216.348 307.11 213.952 308.081 211.248C309.501 208.295 310.435 205.183 311.856 202.269C313.305 199.3 314.303 196.143 314.819 192.897C315.549 189.834 316.485 186.822 317.62 183.878C318.351 181.594 319 179.271 319.65 176.947C320.196 174.548 320.563 172.113 320.746 169.662C321.145 167.795 321.362 165.897 321.395 163.991C321.18 161.818 321.085 159.636 321.111 157.454C321.287 155.221 321.219 152.977 320.908 150.759C320.624 148.672 319.772 144.734 316.849 145.127C314.616 145.403 312.505 147.569 310.76 148.79C309.33 149.596 307.738 150.094 306.092 150.25C304.446 150.406 302.784 150.217 301.22 149.696C298.622 149.105 296.187 148.081 293.507 147.687C292.094 147.245 290.597 147.111 289.123 147.293C288.066 147.763 287.124 148.448 286.363 149.302C284.732 151.053 282.759 152.472 280.558 153.476C278.407 154.623 275.99 155.219 273.535 155.209C272.161 154.857 270.806 154.436 269.476 153.949C268.44 153.444 267.536 152.718 266.833 151.824C266.129 150.93 265.645 149.892 265.417 148.79C264.32 144.852 262.088 141.15 261.154 136.976C260.586 134.416 263.671 133.037 264.727 130.95C265.246 129.318 265.506 127.618 265.498 125.909C265.863 124.348 266.365 122.819 267 121.341C267.424 120.258 267.597 119.097 267.506 117.942C267.415 116.786 267.062 115.665 266.473 114.657C265.884 113.649 265.072 112.779 264.097 112.11C263.121 111.441 262.006 110.99 260.829 110.787C259.355 110.399 257.795 110.446 256.348 110.923C254.902 111.4 253.635 112.285 252.711 113.465C251.814 114.511 250.974 115.602 250.194 116.734C249.452 118.332 248.497 119.828 247.352 121.184C242.197 126.146 235.174 126.461 228.273 127.13C225.076 127.403 221.955 128.23 219.058 129.572C217.516 130.36 217.029 130.478 216.257 132.132C215.712 133.123 215.088 134.071 214.39 134.967C213.294 135.873 213.253 137.212 214.39 134.652Z" fill="url(#paint5_linear_4674_7892)"/>
<path fill-rule="evenodd" clip-rule="evenodd" d="M115.788 32.6909L115.301 33.1635C113.15 35.4951 110.709 37.5587 108.034 39.3069C107.432 39.8262 106.779 40.2878 106.086 40.6853C105.558 40.9216 105.193 40.6853 104.665 41.0791C103.488 41.6698 102.27 42.2605 101.133 42.7331C98.9715 43.7812 96.9647 45.1057 95.1659 46.6712C92.5947 47.8582 90.0882 49.1726 87.6562 50.6093C85.6495 52.8324 83.4932 54.9242 81.2016 56.8709L79.4561 58.0917C77.9542 59.155 77.9135 60.4546 76.8174 62.2661C77.5353 63.6869 77.897 65.2522 77.8729 66.8343C77.7092 67.3223 77.477 67.7861 77.1829 68.2127C76.5292 69.3742 75.797 70.4924 74.9909 71.56C73.394 73.5752 71.5845 75.423 69.5919 77.0734C67.8704 78.2566 66.0664 79.3224 64.1928 80.2633C60.3198 81.8985 56.9896 84.543 54.5721 87.9032C53.3543 89.951 52.2176 92.0776 50.9592 94.1254C50.1613 95.3202 49.4559 96.5707 48.8485 97.8666C48.5237 98.8511 48.4017 99.9144 48.1176 100.899C47.5524 102.004 46.8281 103.025 45.9662 103.931C45.2623 105.129 44.9112 106.491 44.9514 107.869C44.9514 109.838 46.2097 111.296 46.4127 113.146C46.3714 114.193 46.0496 115.211 45.4791 116.1C43.4494 120.511 44.9919 124.921 44.383 129.568C43.9365 132.916 41.5821 135.751 40.892 139.138C40.2885 142.55 39.9087 145.997 39.7552 149.456C39.5932 151.375 38.8911 153.214 37.7256 154.772C36.4822 156.73 35.6671 158.915 35.3307 161.191C35.1802 163.474 34.9092 165.748 34.5187 168.004C34.1534 169.776 33.179 171.391 32.8949 173.163C32.8399 174.823 32.9487 176.485 33.2197 178.125C33.4227 181.788 34.5998 185.174 34.9246 188.797C35.2087 191.79 34.3158 195.295 36.0613 197.934C36.606 198.716 37.2777 199.408 38.0504 199.982C39.1218 201.107 40.0738 202.334 40.892 203.644C41.4635 204.254 42.1192 204.784 42.8404 205.219C43.6338 206.005 44.4888 206.729 45.3978 207.385C47.1481 207.998 48.9382 208.498 50.7563 208.882C51.6712 209.24 52.4841 209.807 53.1269 210.533C53.7696 211.259 54.2234 212.125 54.4502 213.056C55.0997 214.986 55.6682 216.994 56.1959 219.042C56.4182 222.265 56.9069 225.465 57.6573 228.612C58.2526 229.602 59.0546 230.46 60.0118 231.132C61.0266 232.038 62.1227 233.141 63.0563 234.164C63.9922 235.26 64.7081 236.515 65.167 237.866C65.4354 238.802 65.5587 239.771 65.5325 240.741C65.5325 241.214 65.5325 241.686 65.5325 242.119C65.6779 242.92 65.8813 243.71 66.1412 244.482C66.5431 245.595 66.6272 246.792 66.3848 247.948C65.4511 249.641 62.8937 247.239 62.6096 248.696C62.3254 250.153 63.9492 250.862 64.4364 251.689C65.0689 252.866 65.5203 254.126 65.776 255.43C66.2632 257.911 65.7761 258.935 67.887 260.55C69.4751 261.838 71.2541 262.887 73.1641 263.661C75.5592 264.645 76.4521 266.654 78.3194 268.19C79.1932 269.118 79.9811 270.12 80.6739 271.183C81.5148 272.003 82.4245 272.754 83.3936 273.427C84.2061 274.078 84.8348 274.918 85.2204 275.869C85.2204 276.499 84.9364 277.208 84.8552 277.799C84.8676 278.888 85.1605 279.958 85.7075 280.91C86.2915 282.464 87.1127 283.924 88.1433 285.242C69.7008 272.507 54.4638 255.894 43.5716 236.642C32.6793 217.391 26.4133 196 25.2422 174.069C24.071 152.138 28.0251 130.233 36.8086 109.993C45.592 89.7532 58.9777 71.7009 75.9651 57.1859C78.8067 54.7443 81.7294 52.4208 84.8145 50.2155C85.6264 49.5854 86.4789 48.9947 87.3313 48.404C96.1932 42.1685 105.736 36.899 115.788 32.6909V32.6909Z" fill="url(#paint6_radial_4674_7892)"/>
</g>
<defs>
<filter id="filter0_d_4674_7892" x="0" y="0" width="350" height="341" filterUnits="userSpaceOnUse" color-interpolation-filters="sRGB">
<feFlood flood-opacity="0" result="BackgroundImageFix"/>
<feColorMatrix in="SourceAlpha" type="matrix" values="0 0 0 0 0 0 0 0 0 0 0 0 0 0 0 0 0 0 127 0" result="hardAlpha"/>
<feOffset dy="4"/>
<feGaussianBlur stdDeviation="12.5"/>
<feComposite in2="hardAlpha" operator="out"/>
<feColorMatrix type="matrix" values="0 0 0 0 0.286275 0 0 0 0 0.650981 0 0 0 0 0.952941 0 0 0 0.72 0"/>
<feBlend mode="normal" in2="BackgroundImageFix" result="effect1_dropShadow_4674_7892"/>
<feBlend mode="normal" in="SourceGraphic" in2="effect1_dropShadow_4674_7892" result="shape"/>
</filter>
<radialGradient id="paint0_radial_4674_7892" cx="0" cy="0" r="1" gradientUnits="userSpaceOnUse" gradientTransform="translate(58.6427 164.034) rotate(-34.9697) scale(238.568 236.195)">
<stop offset="0.01" stop-color="#4FB1FF"/>
<stop offset="0.21" stop-color="#4EAEFC"/>
<stop offset="0.37" stop-color="#49A6F3"/>
<stop offset="0.5" stop-color="#4298E3"/>
<stop offset="0.63" stop-color="#3883CC"/>
<stop offset="0.75" stop-color="#2B69AF"/>
<stop offset="0.86" stop-color="#1A498B"/>
<stop offset="0.96" stop-color="#072462"/>
<stop offset="1" stop-color="#001652"/>
</radialGradient>
<linearGradient id="paint1_linear_4674_7892" x1="232.262" y1="301.929" x2="163.63" y2="25.1903" gradientUnits="userSpaceOnUse">
<stop stop-color="#E8DDFF"/>
<stop offset="1" stop-color="#AA8AD8"/>
</linearGradient>
<linearGradient id="paint2_linear_4674_7892" x1="20600.5" y1="-9735.34" x2="20401.4" y2="-10020" gradientUnits="userSpaceOnUse">
<stop stop-color="#E8DDFF"/>
<stop offset="1" stop-color="#AA8AD8"/>
</linearGradient>
<linearGradient id="paint3_linear_4674_7892" x1="4198.18" y1="-2085.38" x2="4194.59" y2="-2090.51" gradientUnits="userSpaceOnUse">
<stop stop-color="#E8DDFF"/>
<stop offset="1" stop-color="#AA8AD8"/>
</linearGradient>
<linearGradient id="paint4_linear_4674_7892" x1="67048.2" y1="-29588.5" x2="64858.8" y2="-32718.8" gradientUnits="userSpaceOnUse">
<stop stop-color="#E8DDFF"/>
<stop offset="1" stop-color="#AA8AD8"/>
</linearGradient>
<linearGradient id="paint5_linear_4674_7892" x1="82171.6" y1="-35925.4" x2="79979.3" y2="-39059.8" gradientUnits="userSpaceOnUse">
<stop stop-color="#E8DDFF"/>
<stop offset="1" stop-color="#AA8AD8"/>
</linearGradient>
<radialGradient id="paint6_radial_4674_7892" cx="0" cy="0" r="1" gradientUnits="userSpaceOnUse" gradientTransform="translate(41.481 153.801) rotate(-34.9696) scale(95.194 94.2472)">
<stop stop-color="#A9FAFF"/>
<stop offset="1" stop-color="#70B7F8"/>
</radialGradient>
</defs>
</svg>
