<svg width="118" height="120" viewBox="0 0 118 120" fill="none" xmlns="http://www.w3.org/2000/svg">
<path style="mix-blend-mode:screen" d="M59 119.547C91.5848 119.547 118 92.7852 118 59.7733C118 26.7614 91.5848 0 59 0C26.4152 0 0 26.7614 0 59.7733C0 92.7852 26.4152 119.547 59 119.547Z" fill="url(#paint0_radial_2307_9566)"/>
<path d="M58.9993 109.413C86.0597 109.413 107.997 87.1885 107.997 59.7733C107.997 32.3582 86.0597 10.1338 58.9993 10.1338C31.9388 10.1338 10.002 32.3582 10.002 59.7733C10.002 87.1885 31.9388 109.413 58.9993 109.413Z" fill="url(#paint1_radial_2307_9566)"/>
<path d="M63.0355 10.3153C62.2783 10.2547 61.5211 10.2043 60.754 10.1841C60.5248 10.7492 60.4326 11.3618 60.485 11.9704C60.5268 12.4479 60.663 12.912 60.8855 13.3351C61.108 13.7582 61.4123 14.1316 61.7802 14.433C62.3712 14.8848 63.057 15.1926 63.7843 15.3326C64.5117 15.4726 65.2612 15.4411 65.9746 15.2404C66.9603 14.9348 67.8682 14.4147 68.6347 13.7165C69.8601 12.6063 70.3682 11.8393 70.2785 11.698C70.1889 11.5567 69.4317 12.1319 68.1166 12.9393C67.3776 13.4305 66.5523 13.7731 65.6857 13.9486C65.1923 14.0238 64.6888 13.9887 64.2103 13.8457C63.7318 13.7027 63.29 13.4554 62.916 13.121C62.5691 12.7486 62.3809 12.2529 62.3921 11.741C62.4033 11.2292 62.6129 10.7424 62.9757 10.3859L63.0355 10.3153Z" fill="url(#paint2_radial_2307_9566)"/>
<path d="M84.884 20.5605C75.8767 24.8242 67.6446 30.598 60.5348 37.6386C59.4221 38.7041 58.5106 39.9662 57.8448 41.3631C57.4765 42.1822 57.2802 43.0698 57.2682 43.9699C57.2562 44.8699 57.4288 45.7626 57.7751 46.5915C58.445 48.1351 59.5643 49.4345 60.9831 50.316C62.2872 51.111 63.7386 51.6263 65.2472 51.83C67.7836 52.1091 70.3424 52.1091 72.8788 51.83C75.0962 51.633 77.3013 51.3129 79.4841 50.8711C82.7582 50.2132 85.9712 49.2745 89.0883 48.0651C91.3399 47.1971 92.5952 46.6117 92.5952 46.6117L93.4919 46.1575C94.0697 45.8748 94.9166 45.4408 95.9726 44.8352C98.6969 43.303 101.301 41.5619 103.764 39.627C103.196 38.3451 102.588 37.0935 101.92 35.8722L101.811 35.9631C99.3225 37.8628 96.6833 39.5508 93.9203 41.0098C92.924 41.5447 92.1369 41.9283 91.589 42.1806L90.7521 42.5743C90.7521 42.5743 89.5964 43.1496 87.5142 44.0177C82.6996 46.0043 77.6428 47.325 72.4802 47.944C70.2469 48.2674 67.9866 48.3553 65.7354 48.2064C64.7168 48.1104 63.7276 47.8083 62.8263 47.3182C61.9995 46.8532 61.327 46.1509 60.8935 45.2995C60.7084 44.8982 60.6124 44.4606 60.6124 44.0177C60.6124 43.5747 60.7084 43.1371 60.8935 42.7358C61.3639 41.6862 62.0188 40.7319 62.8263 39.9197C69.5109 32.8462 77.2416 26.87 85.7408 22.2057C86.8566 21.59 87.9226 21.0349 88.9289 20.5201C88.4806 20.1668 88.0223 19.8236 87.564 19.5107C86.6474 19.7934 85.7806 20.1365 84.884 20.5605Z" fill="url(#paint3_radial_2307_9566)"/>
<path d="M78.9262 37.4269C79.3745 37.1039 79.9225 36.7506 80.4206 36.4175C84.7138 33.5901 89.3052 31.2575 94.1097 29.4631C95.1059 29.1098 96.0424 28.7868 97.0188 28.4537C96.2915 27.5453 95.5343 26.6773 94.7473 25.8193C94.1595 26.0515 93.5617 26.2534 92.9739 26.4956C88.0432 28.5555 83.3631 31.1836 79.0259 34.3282C78.5078 34.7218 78.0296 35.065 77.4816 35.4889C76.7528 36.0276 76.173 36.7471 75.7979 37.5783C75.4945 38.353 75.4945 39.2159 75.7979 39.9907C75.9326 40.3629 76.1558 40.6959 76.4477 40.9599C76.7396 41.224 77.0913 41.4111 77.4716 41.5047C78.2541 41.6651 79.0604 41.6651 79.8428 41.5047C80.4705 41.4139 80.9786 41.3129 81.5265 41.2221C82.6125 41.0101 83.6486 40.788 84.635 40.5357C87.8069 39.7308 90.8835 38.5802 93.8108 37.1039C95.9129 36.0239 97.0089 35.2265 96.9491 35.0852C96.7996 34.742 92.0274 37.3462 84.2663 38.8198C83.27 39.0116 82.2738 39.1529 81.2775 39.2942C80.7694 39.3548 80.1915 39.4254 79.7033 39.4658C79.4116 39.491 79.1183 39.491 78.8266 39.4658C78.1691 39.3951 78.0196 38.4564 78.3783 38.0325C78.518 37.7947 78.7045 37.5886 78.9262 37.4269Z" fill="url(#paint4_radial_2307_9566)"/>
<path d="M98.0344 59.0158C97.026 59.7058 96.0999 60.512 95.2747 61.418C94.8286 61.9594 94.4903 62.5833 94.2784 63.255C94.0384 63.9815 94.0073 64.7622 94.1888 65.5059C94.365 66.2859 94.8101 66.9766 95.4441 67.4539C96.0606 67.8649 96.7889 68.0697 97.5263 68.0393C99.5007 67.9239 101.454 67.568 103.345 66.9795C104.862 66.5146 106.333 65.9064 107.738 65.1627C107.798 64.658 107.828 64.1533 107.868 63.6386C106.262 64.3463 104.594 64.9005 102.886 65.2939C101.133 65.6931 99.343 65.8995 97.5462 65.9096C97.2742 65.9329 97.0038 65.8495 96.7906 65.6768C96.5774 65.504 96.4378 65.2549 96.4005 64.981C96.3644 64.6256 96.4135 64.2666 96.5435 63.9345C96.6736 63.6024 96.8809 63.307 97.1477 63.0733C97.8806 62.3725 98.6856 61.7532 99.5488 61.2262C100.459 60.6274 101.405 60.0722 102.388 59.5608C104.188 58.6348 106.041 57.8191 107.938 57.1182C107.938 56.0181 107.778 54.928 107.649 53.8379L107.489 53.9085C105.273 54.8141 103.12 55.8696 101.043 57.0678C99.9872 57.6734 98.9909 58.3193 98.0344 59.0158Z" fill="url(#paint5_radial_2307_9566)"/>
<path d="M49.2555 11.1129C48.9586 12.1608 48.7946 13.2428 48.7673 14.3327C48.7113 16.3924 49.3007 18.4171 50.4511 20.1163C51.7524 21.9017 53.6761 23.118 55.831 23.5179C60.0353 24.3152 63.8013 23.0031 67.099 21.8524C71.5962 20.1753 75.7978 17.776 79.5426 14.7466C78.088 14.0602 76.5537 13.4546 75.0693 12.9095C74.5778 13.3065 74.0497 13.7002 73.4852 14.0905C71.071 15.8111 68.4826 17.2661 65.764 18.4307C62.7751 19.6823 59.4176 20.8834 56.3889 20.4494C54.9463 20.2837 53.6223 19.5606 52.6927 18.4307C51.7901 17.2484 51.2808 15.8066 51.2381 14.3125C51.1601 13.096 51.3158 11.8757 51.6964 10.7192C50.8795 10.8101 50.0625 10.9514 49.2555 11.1129Z" fill="url(#paint6_radial_2307_9566)"/>
<path d="M104.739 45.7436C101.124 47.6127 97.6421 49.7341 94.3178 52.0924C90.7312 54.6864 86.7958 57.4924 83.7273 61.56C82.9626 62.5874 82.2954 63.6858 81.7347 64.8404C81.1335 66.049 80.7137 67.3417 80.4894 68.6759C80.3794 69.4815 80.4268 70.3011 80.6289 71.0882C80.8537 71.9078 81.2668 72.6618 81.8344 73.2886C82.7808 74.2878 83.9158 75.0841 85.1719 75.6303C87.3571 76.5719 89.7117 77.0428 92.0861 77.0131C94.0925 77.0005 96.0935 76.8012 98.0638 76.4176C100.693 75.9554 103.282 75.2804 105.805 74.3989C106.325 72.6888 106.747 70.9499 107.07 69.1907C106.592 69.4026 105.934 69.6953 105.078 70.0385C102.555 71.0374 99.9563 71.824 97.3066 72.3903C94.0587 73.0766 90.0935 73.6419 86.6364 72.2389C85.8268 71.9304 85.0828 71.4679 84.4446 70.8763C84.2145 70.6453 84.0434 70.361 83.9462 70.0479C83.8489 69.7348 83.8285 69.4025 83.8867 69.0796C84.0247 68.0952 84.3032 67.1365 84.7136 66.2333C85.1397 65.2455 85.6603 64.3023 86.2678 63.4172C88.7386 59.7937 92.4149 56.8262 95.7923 54.1111C98.9132 51.6604 102.17 49.3924 105.546 47.3182L106.263 46.8842C106.124 46.3391 105.974 45.784 105.805 45.249L104.739 45.7436Z" fill="url(#paint7_radial_2307_9566)"/>
<path d="M34.8593 31.825L34.4807 32.2085C34.2234 32.451 33.954 32.6801 33.6737 32.8948C33.1847 33.302 32.6724 33.6794 32.1394 34.0253C31.0002 34.7612 29.8041 35.4025 28.5628 35.943C24.219 37.9617 19.118 38.9711 13.9872 39.9804C13.499 41.1109 13.0706 42.2615 12.6621 43.4324C18.5103 42.1202 24.4083 40.798 29.5989 38.1636C30.9164 37.5061 32.1762 36.7362 33.3649 35.8623C33.9613 35.4345 34.5335 34.9728 35.0785 34.4795C35.8257 33.8234 36.4533 33.0866 37.071 32.4608L37.9478 31.4515L38.157 31.1891C38.157 31.1083 38.3961 31.0074 38.2168 30.967L37.5991 30.6541C36.7921 30.21 35.9851 29.8567 35.198 29.5136C34.798 29.3392 34.3849 29.1974 33.9626 29.0896C33.6369 28.9814 33.304 28.8971 32.9664 28.8373C32.3612 28.7117 31.749 28.6241 31.1332 28.5749C27.2578 28.2121 23.3844 29.2882 20.2339 31.6029C18.0221 33.3087 17.3048 34.7823 17.3845 34.8328C17.4642 34.8832 18.5003 33.7124 20.732 32.3498C23.8008 30.5028 27.3989 29.7694 30.9339 30.2706C31.4813 30.3485 32.0236 30.4597 32.5579 30.6036C32.8119 30.6635 33.0616 30.741 33.3051 30.8358C33.4676 30.8874 33.6273 30.9481 33.7833 31.0175C34.095 31.1492 34.3951 31.308 34.68 31.4919L34.8892 31.613C35.0486 31.6836 34.8991 31.7644 34.8593 31.825Z" fill="url(#paint8_radial_2307_9566)"/>
<path d="M74.1531 93.1423C78.4349 90.8159 83.0561 89.1974 87.842 88.348C89.986 88.0015 92.1624 87.9067 94.3278 88.0654C95.8019 88.188 97.2602 88.4585 98.6816 88.8728C99.5085 87.7222 100.296 86.5311 101.023 85.2998C98.9262 84.6593 96.7629 84.2698 94.5769 84.139C92.1131 84.0367 89.6459 84.223 87.2243 84.6942C82.1027 85.7681 77.1891 87.6843 72.6786 90.3666C64.4153 95.2406 56.8778 101.28 50.292 108.302L50.043 108.575C50.7503 108.706 51.4577 108.827 52.175 108.928C58.8276 102.765 66.2101 97.4621 74.1531 93.1423V93.1423Z" fill="url(#paint9_radial_2307_9566)"/>
<path d="M30.7256 21.9125C35.6229 22.253 40.3479 23.8811 44.4345 26.6363C46.5367 28.1503 48.9875 30.1892 49.4159 32.1675C49.8443 34.1458 48.2702 36.6086 46.1581 38.5264C41.761 42.4626 36.9025 45.8357 31.692 48.5694C27.1181 50.9721 22.3144 52.8964 17.3555 54.3126C14.6755 55.0797 12.2346 55.6146 10.1424 55.9982C10.1424 56.4221 10.0727 56.8359 10.0527 57.2498C12.6497 56.996 15.2285 56.578 17.7739 55.9982C22.9501 54.8276 27.9846 53.088 32.7879 50.8101C38.3312 48.1821 43.5206 44.8478 48.2303 40.8882C49.5399 39.7947 50.6727 38.5006 51.5878 37.0527C52.6554 35.407 53.0683 33.4127 52.7435 31.471C52.3159 29.668 51.3897 28.0258 50.0735 26.7372C48.9921 25.593 47.8117 24.5493 46.5466 23.6183C42.3996 20.6241 37.5953 18.698 32.5488 18.0063C30.7633 19.1662 29.0528 20.4406 27.4279 21.8217C28.474 21.8116 29.56 21.8116 30.7256 21.9125Z" fill="url(#paint10_radial_2307_9566)"/>
<path d="M70.975 107.909C71.8116 106.824 72.7133 105.792 73.6749 104.82C75.2745 103.226 77.0116 101.78 78.8656 100.5C80.5554 99.3583 82.3271 98.3461 84.1658 97.4719C87.2861 96.0686 90.5705 95.0748 93.9394 94.5145C94.1785 94.2722 94.4076 94.0199 94.6467 93.7676C94.1187 93.7676 93.501 93.7676 92.7638 93.818C89.5986 94.035 86.4811 94.715 83.5083 95.8367C81.5177 96.6064 79.5919 97.538 77.7497 98.6226C75.7003 99.8766 73.7693 101.319 71.9812 102.932C70.0808 104.649 68.3795 106.579 66.9102 108.686C68.285 108.511 69.64 108.252 70.975 107.909Z" fill="url(#paint11_radial_2307_9566)"/>
<path d="M34.8505 97.5128C37.939 96.6952 39.6825 96.13 39.6825 96.13C39.6825 96.13 41.5256 95.5547 44.6639 94.3334C49.0526 92.654 53.2811 90.5729 57.2968 88.1158C63.0719 84.6411 68.1596 80.1097 72.3008 74.7521C72.9521 73.8845 73.4756 72.9258 73.855 71.9058C74.3693 70.6104 74.3693 69.1638 73.855 67.8684C73.2744 66.735 72.3722 65.8034 71.2647 65.1937C70.4478 64.6587 69.6009 64.1843 68.7342 63.7099C65.2096 61.8667 61.3918 60.6674 57.4562 60.1671C49.4859 59.1578 41.8345 61.0654 35.0299 62.9731C31.6026 63.932 28.3249 64.9413 25.2165 65.7488C22.3055 66.5185 19.351 67.1083 16.3695 67.5151C14.4669 67.7697 12.5499 67.8979 10.6309 67.8987C10.7106 68.3832 10.8002 68.908 10.8899 69.3421C12.7761 69.4476 14.6674 69.4138 16.5488 69.2411C19.6272 68.9672 22.6853 68.4952 25.7046 67.828C28.9127 67.1215 32.2203 66.2333 35.6675 65.3854C42.4721 63.7099 49.8944 62.1656 57.0378 63.2961C60.5684 63.858 63.9742 65.0435 67.1002 66.7985C67.8674 67.2325 68.6146 67.6867 69.3319 68.1813C70.0493 68.6759 70.5275 69.0897 70.6072 69.3723C70.9061 69.877 70.3681 71.391 69.4017 72.5518C65.4443 77.4134 60.643 81.5012 55.2345 84.6134C51.3898 86.8632 47.3516 88.7551 43.1695 90.2657C40.1807 91.3861 38.3574 91.9009 38.3574 91.9009C38.3574 91.9009 36.7036 92.4762 33.7347 93.3139C31.4532 93.9195 28.4245 94.7674 24.8279 95.3326C26.0927 96.5882 27.423 97.7741 28.813 98.8855C31.2041 98.4111 33.2166 97.8964 34.8505 97.5128Z" fill="url(#paint12_radial_2307_9566)"/>
<path d="M27.9847 83.2909C27.9847 83.2909 27.895 83.1799 27.626 83.5533C27.5165 83.7956 27.7257 84.1387 28.0843 84.3911C28.3301 84.5799 28.6123 84.7144 28.9127 84.7857C29.213 84.857 29.5248 84.8635 29.8278 84.8049C31.8004 84.5495 33.7541 84.1618 35.676 83.6442L41.6039 82.2109C42.8334 81.8549 44.0198 81.3606 45.1407 80.7373C46.4854 80.0496 47.6189 79.0025 48.4185 77.7092C48.8601 76.9097 49.0787 76.0035 49.0506 75.0878C49.0225 74.172 48.7489 73.2813 48.2591 72.5111C47.7327 71.7489 47.0599 71.1022 46.281 70.6097C45.5021 70.1171 44.6331 69.7889 43.726 69.6446C41.9476 69.4065 40.1394 69.5615 38.4258 70.0988C36.752 70.5731 35.1779 71.1081 33.5241 71.6633C27.1379 73.8132 20.4727 76.4173 13.957 79.3444C14.3755 80.3537 14.8238 81.2924 15.302 82.2412C21.6483 79.2131 28.1341 76.4374 34.3709 74.1059C37.5889 72.9754 40.6973 71.4916 43.3873 71.855C44.0102 71.9277 44.6127 72.1248 45.1599 72.4349C45.7071 72.745 46.1882 73.162 46.5753 73.6617C46.8977 74.1156 47.0898 74.651 47.1302 75.2086C47.1707 75.7662 47.0579 76.3243 46.8045 76.821C46.2072 77.8724 45.344 78.7434 44.3038 79.3444C43.3122 79.9615 42.2564 80.4659 41.1556 80.8483L35.397 82.6651C33.4853 83.2114 31.6115 83.8858 29.788 84.6838C29.5089 84.7481 29.2193 84.7508 28.9391 84.6916C28.6588 84.6323 28.3945 84.5127 28.164 84.3406C27.8153 84.1085 27.636 83.8258 27.7157 83.6542C27.7954 83.4827 28.0246 83.3817 27.9847 83.2909Z" fill="url(#paint13_radial_2307_9566)"/>
<path style="mix-blend-mode:screen" d="M57.8841 75.8936C58.0534 76.1763 59.6574 75.0962 60.1556 73.2085C60.4049 72.3609 60.4628 71.4673 60.325 70.594C60.2565 70.1788 60.1429 69.7725 59.9862 69.3827C59.7803 69.0181 59.5328 68.6793 59.249 68.3732C58.6553 67.7227 57.9226 67.2186 57.107 66.8994C55.3236 66.1423 53.5104 66.7682 53.62 67.071C53.7296 67.3738 55.2638 67.4142 56.3996 68.3025C56.9013 68.6619 57.3279 69.1182 57.6549 69.6451C57.7978 69.8697 57.9148 70.1102 58.0036 70.3618C58.1472 70.5825 58.2642 70.8197 58.3523 71.0684C58.5622 71.6602 58.657 72.2875 58.6313 72.9158C58.6313 74.3694 57.7047 75.6715 57.8841 75.8936Z" fill="url(#paint14_radial_2307_9566)"/>
<path style="mix-blend-mode:screen" d="M66.1232 56.7454C66.8134 57.0694 67.4793 57.4439 68.1158 57.8658C70.274 59.0684 72.1156 60.7784 73.4857 62.8521C74.4367 64.297 75.1125 65.9094 75.4783 67.6061C75.7872 69.0091 75.7872 70.0084 75.9565 70.0286C76.3295 69.2449 76.4614 68.3657 76.3351 67.5052C76.2348 65.594 75.7176 63.729 74.8208 62.0446C73.9227 60.3464 72.7355 58.8224 71.3138 57.5428C70.6654 56.9527 69.9689 56.4192 69.2316 55.9481C68.4749 55.5248 67.6891 55.1571 66.8804 54.8479C65.1264 54.1809 63.2947 53.7466 61.4307 53.5559C57.3858 53.1118 53.4604 53.9697 53.5202 54.2524C53.58 54.535 57.5054 54.3129 61.2016 55.1204C62.9003 55.4608 64.5527 56.0064 66.1232 56.7454V56.7454Z" fill="url(#paint15_radial_2307_9566)"/>
<path style="mix-blend-mode:screen" d="M55.3646 37.194C53.869 38.8418 52.6566 40.7319 51.778 42.7858C51.2696 43.906 51.0567 45.1406 51.1603 46.369L51.22 46.5608L51.3396 46.4902C51.5343 46.4005 51.7018 46.2596 51.8244 46.082C51.9471 45.9045 52.0205 45.6969 52.037 45.4808C52.037 45.2789 52.037 45.2487 52.037 45.2487C52.037 45.2487 52.037 45.2487 51.9573 45.4505C51.8929 45.694 51.7575 45.9121 51.5687 46.0763C51.8536 45.0841 52.2445 44.1262 52.7344 43.2198C53.7935 41.4122 55.0981 39.7643 56.6099 38.3245C59.7881 35.1148 63.1755 32.3794 63.1755 32.3794C63.1755 32.3794 66.9016 29.0082 70.8768 25.8691C74.8519 22.7301 78.847 19.6213 78.6777 19.3588C78.5083 19.0964 74.1745 21.7409 69.9502 24.5974C65.726 27.4538 61.7408 30.6535 61.7408 30.6535C59.4828 32.6967 57.3532 34.8812 55.3646 37.194V37.194Z" fill="url(#paint16_radial_2307_9566)"/>
<path style="mix-blend-mode:screen" d="M42.6809 13.5051C42.9016 15.1744 43.3684 16.8008 44.0657 18.3297C44.912 19.7392 45.8931 21.0611 46.9948 22.2761C48.6287 24.0626 50.4619 25.5968 50.6811 25.3949C50.9003 25.1931 49.4855 23.2653 48.2302 21.2971C47.3946 20.0091 46.6553 18.6596 46.0184 17.2598C45.253 15.973 44.6442 14.597 44.2052 13.1619C44.1283 12.9373 44.0651 12.7081 44.0159 12.4756L42.6211 12.95C42.641 13.1619 42.651 13.3335 42.6809 13.5051Z" fill="url(#paint17_radial_2307_9566)"/>
<path style="mix-blend-mode:screen" d="M31.682 25.2739C32.6285 25.3648 33.2462 25.4859 33.2462 25.4859C33.7581 25.5302 34.267 25.6043 34.7705 25.7079C35.8947 25.9402 36.9813 26.3309 37.9985 26.8686C39.024 27.4203 39.9476 28.1476 40.7283 29.0184C41.3759 29.735 41.7246 30.3204 41.884 30.2598C42.0434 30.1993 41.884 29.4928 41.4356 28.5239C40.8065 27.328 39.9174 26.2926 38.8353 25.496C37.7597 24.7031 36.5656 24.0897 35.2985 23.6793C34.7219 23.4889 34.1326 23.3405 33.5351 23.2352C32.939 23.18 32.3402 23.1598 31.7418 23.1746C30.4553 23.2116 29.1748 23.367 27.9161 23.6389C26.7073 23.8985 25.516 24.2356 24.3494 24.6482C24.0505 24.951 23.7715 25.2639 23.4727 25.5666C24.4689 25.5666 26.3021 25.3244 28.1253 25.2134C29.3107 25.1457 30.4995 25.166 31.682 25.2739V25.2739Z" fill="url(#paint18_radial_2307_9566)"/>
<path style="mix-blend-mode:screen" d="M52.2661 10.9515C52.1851 11.7328 52.2425 12.5225 52.4354 13.2834C52.5287 13.6302 52.6521 13.968 52.804 14.2929C53.4382 15.259 54.3246 16.0278 55.3645 16.5137C56.8987 17.2708 58.5526 17.0185 58.5227 16.7055C58.4928 16.3926 57.1378 16.0595 56.1814 15.1712C55.0407 13.99 54.2294 12.5236 53.8302 10.9213C53.8302 10.7395 53.7804 10.5679 53.7605 10.3862C53.2823 10.4367 52.7642 10.5074 52.3258 10.578L52.2661 10.9515Z" fill="url(#paint19_radial_2307_9566)"/>
<path style="mix-blend-mode:screen" d="M69.6404 14.5948C69.7799 14.8673 71.0651 14.4434 72.2706 13.8177C72.9579 13.4544 73.6233 13.05 74.2632 12.6066C73.506 12.3542 72.7488 12.1221 71.9817 11.9102L71.364 12.5359C70.4573 13.4442 69.4909 14.3223 69.6404 14.5948Z" fill="url(#paint20_radial_2307_9566)"/>
<path style="mix-blend-mode:screen" d="M29.7488 92.4659C35.6669 91.0238 41.2463 88.4137 46.1676 84.7848C49.9236 82.1908 53.2312 79.0618 53.032 78.8297C52.8327 78.5975 49.2162 81.2521 45.3407 83.4423C40.1232 86.2368 34.7623 88.7469 29.2806 90.9619C26.8397 91.8704 24.2991 92.6173 22.7051 93.132C22.9043 93.3642 23.1135 93.5761 23.3228 93.7881C25.4902 93.4853 27.6365 93.0436 29.7488 92.4659V92.4659Z" fill="url(#paint21_radial_2307_9566)"/>
<path style="mix-blend-mode:screen" d="M25.6837 45.8344C25.6837 45.8344 29.2803 44.2901 32.8869 42.5945C34.6063 41.8282 36.1627 40.7313 37.4698 39.3647C38.4661 38.1636 38.765 37.124 38.6354 37.0735C38.5059 37.023 37.9779 37.8507 36.872 38.7389C35.4732 39.7818 33.9195 40.5926 32.2692 41.141L24.8767 43.7552C24.8767 43.7552 12.5726 49.1248 10.8789 50.3965C10.8789 50.4773 10.8789 50.5681 10.8789 50.6589C12.3634 50.669 25.6837 45.8344 25.6837 45.8344Z" fill="url(#paint22_radial_2307_9566)"/>
<path style="mix-blend-mode:screen" d="M94.05 80.6778C94.05 80.3548 91.7287 80.1327 89.5169 79.7391C88.506 79.5726 87.5074 79.3365 86.5281 79.0324C85.7609 78.7801 85.2727 78.5681 85.2727 78.5681C84.8493 78.4493 84.4334 78.3044 84.0274 78.134C83.1209 77.7695 82.2665 77.2841 81.4868 76.6905C79.7035 75.4388 78.8267 73.3089 78.5577 73.3694C78.2887 73.43 78.3884 74.0256 78.6773 74.924C79.0452 76.0201 79.6435 77.0223 80.4308 77.8615C81.2191 78.7031 82.1296 79.418 83.1307 79.9813C83.5879 80.2423 84.0604 80.4749 84.5454 80.6778C84.5454 80.6778 85.1432 80.8595 86.0499 81.0312C87.1341 81.2391 88.2342 81.3505 89.3376 81.3643C91.7586 81.3643 94.05 80.9807 94.05 80.6778Z" fill="url(#paint23_radial_2307_9566)"/>
<path style="mix-blend-mode:screen" d="M104.62 41.6855L103.145 42.4224C99.0105 44.5016 94.9856 46.813 94.9856 46.813C94.9856 46.813 91.0801 49.3263 87.3042 52.0414C85.5304 53.2651 83.8787 54.6612 82.3726 56.21C81.1572 57.5221 80.5793 58.5618 80.6889 58.6526C80.7985 58.7434 81.6154 57.9158 82.9505 56.856C84.605 55.5754 86.3424 54.4087 88.1511 53.3637L96.1213 48.7308L103.912 43.8052L105.138 43.0381C104.968 42.5839 104.799 42.1297 104.62 41.6855Z" fill="url(#paint24_radial_2307_9566)"/>
<path style="mix-blend-mode:screen" d="M89.5266 91.7392C88.288 91.5789 87.0387 91.5181 85.7906 91.5575C84.5598 91.7715 83.3474 92.0819 82.1641 92.486C80.3907 93.1016 78.7667 94.02 78.8763 94.3026C78.9859 94.5852 80.7593 94.2219 82.5128 94.02C84.2662 93.8182 85.9998 93.7778 85.9998 93.7778C85.9998 93.7778 87.7134 93.465 89.4768 93.3237C91.2403 93.1824 93.0435 93.1723 93.0933 92.8695C93.1431 92.5667 91.3797 91.9915 89.5266 91.7392Z" fill="url(#paint25_radial_2307_9566)"/>
<path style="mix-blend-mode:screen" d="M65.496 106.406C65.496 106.406 67.4886 104.518 69.6107 102.832C71.7327 101.147 74.0939 99.6525 73.9544 99.3699C73.815 99.0872 71.1947 100.097 68.7439 101.52C67.1141 102.476 65.5497 103.541 64.0614 104.71C62.6925 106.023 61.4143 107.429 60.2356 108.919C60.1061 109.071 59.9965 109.232 59.877 109.394C60.6242 109.394 61.3614 109.394 62.0987 109.303C63.8422 107.698 65.496 106.406 65.496 106.406Z" fill="url(#paint26_radial_2307_9566)"/>
<path style="mix-blend-mode:screen" d="M10.0726 62.5198C11.6767 62.2068 14.1176 61.6314 16.5884 61.0762C20.703 60.1576 24.8276 59.3298 24.8276 59.3298C24.8276 59.3298 28.9025 58.2395 33.0072 57.2502C37.1119 56.2609 41.2365 55.3321 41.1867 55.0192C41.1369 54.7062 36.9126 55.0798 32.7083 55.6956C28.504 56.3114 24.3395 57.1493 24.3395 57.1493C24.3395 57.1493 20.2248 58.2294 16.1799 59.5519C13.8486 60.309 11.5671 61.1368 10.0527 61.7627C10.0627 62.015 10.0627 62.2674 10.0726 62.5198Z" fill="url(#paint27_radial_2307_9566)"/>
<path style="mix-blend-mode:screen" d="M49.8043 102.388C51.9762 100.995 53.391 100.006 53.391 100.006C53.391 100.006 54.7758 98.9964 56.7783 97.3512C58.7809 95.706 61.3812 93.4854 63.9117 91.174C68.9529 86.521 73.755 81.6358 73.5558 81.4238C73.3565 81.2118 68.1659 85.6529 62.9055 89.9729C60.2554 92.1127 57.5953 94.2223 55.5429 95.7161C53.4906 97.2099 52.1057 98.189 52.1057 98.189L48.6885 100.672C46.6162 102.125 43.7768 103.952 40.8378 105.618L40.5488 105.769C41.2064 106.032 41.854 106.284 42.5414 106.526C45.2513 105.143 47.8616 103.629 49.8043 102.388Z" fill="url(#paint28_radial_2307_9566)"/>
<path style="mix-blend-mode:multiply" opacity="0.5" d="M91.9164 23.0127C93.3506 33.1242 91.6701 43.4377 87.1042 52.5457C82.5383 61.6536 75.3094 69.1124 66.4042 73.9037C57.4989 78.6951 47.3512 80.5858 37.346 79.3177C27.3409 78.0496 17.9657 73.6845 10.5 66.8182C11.6143 74.7052 14.586 82.2046 19.1643 88.6827C23.7425 95.1609 29.7926 100.427 36.8034 104.037C43.8142 107.647 51.5797 109.494 59.4437 109.423C67.3076 109.351 75.0391 107.363 81.9846 103.626C88.9302 99.8885 94.8858 94.5126 99.3483 87.9521C103.811 81.3916 106.649 73.8393 107.623 65.9332C108.597 58.0272 107.678 49.9998 104.945 42.5293C102.211 35.0588 97.7421 28.3647 91.9164 23.0127V23.0127Z" fill="url(#paint29_radial_2307_9566)"/>
<path style="mix-blend-mode:screen" opacity="0.5" d="M98.7115 36.9517C102.92 47.9558 102.857 60.1668 98.5343 71.1255C94.2117 82.0843 85.9511 90.9767 75.416 96.0119C64.8809 101.047 52.8539 101.851 41.757 98.2622C30.6602 94.6731 21.3178 86.9576 15.6113 76.6693C17.9097 82.6239 21.3917 88.0362 25.8411 92.5704C30.2905 97.1046 35.6123 100.664 41.4763 103.027C47.3402 105.39 53.6211 106.507 59.9289 106.309C66.2368 106.11 72.437 104.599 78.1446 101.872C83.8522 99.1436 88.9455 95.2561 93.1081 90.4506C97.2707 85.645 100.414 80.0238 102.343 73.9361C104.271 67.8483 104.944 61.4239 104.319 55.0617C103.695 48.6995 101.786 42.5352 98.7115 36.9517V36.9517Z" fill="url(#paint30_radial_2307_9566)"/>
<path style="mix-blend-mode:screen" opacity="0.45" d="M25.0477 67.9392C25.0426 60.1836 26.9379 52.548 30.5635 45.7174C34.1891 38.8868 39.4317 33.0748 45.821 28.8028C52.2102 24.5308 59.5462 21.9325 67.1709 21.2408C74.7957 20.5492 82.4706 21.7859 89.5073 24.8401C84.5226 20.2861 78.619 16.8861 72.2067 14.8765C65.7944 12.8669 59.0271 12.2957 52.3749 13.2028C45.7228 14.1098 39.3453 16.4732 33.6856 20.1289C28.0258 23.7845 23.2196 28.6448 19.6007 34.3719C15.9818 40.099 13.6371 46.5557 12.7294 53.2933C11.8217 60.031 12.3729 66.8881 14.3445 73.3883C16.3162 79.8884 19.6611 85.8757 24.1469 90.9342C28.6327 95.9927 34.1518 100.001 40.3207 102.681C35.5133 98.2983 31.6692 92.9405 29.038 86.9553C26.4068 80.97 25.0473 74.4912 25.0477 67.9392Z" fill="url(#paint31_radial_2307_9566)"/>
<path style="mix-blend-mode:screen" opacity="0.45" d="M19.925 39.718C16.6373 44.8859 15.9399 50.3767 18.4406 52.0018C20.9412 53.6269 25.5939 50.7401 28.8816 45.5823C32.1694 40.4245 32.8667 34.9236 30.3561 33.3086C27.8455 31.6937 23.2128 34.5602 19.925 39.718Z" fill="url(#paint32_radial_2307_9566)"/>
<path style="mix-blend-mode:screen" opacity="0.45" d="M33.3758 26.0209C31.2637 27.838 30.2475 30.1496 31.1143 31.1894C31.9811 32.2291 34.412 31.6032 36.5241 29.7862C38.6362 27.9692 39.6425 25.6575 38.7757 24.6178C37.9089 23.578 35.5378 24.214 33.3758 26.0209Z" fill="url(#paint33_radial_2307_9566)"/>
<path style="mix-blend-mode:multiply" opacity="0.5" d="M82.9796 62.045C82.9796 62.644 82.8043 63.2295 82.4759 63.7275C82.1475 64.2256 81.6807 64.6137 81.1345 64.843C80.5884 65.0722 79.9875 65.1321 79.4077 65.0153C78.8279 64.8984 78.2954 64.61 77.8774 64.1865C77.4594 63.7629 77.1747 63.2233 77.0594 62.6359C76.9441 62.0484 77.0032 61.4395 77.2295 60.8861C77.4557 60.3327 77.8388 59.8598 78.3303 59.527C78.8218 59.1942 79.3996 59.0166 79.9908 59.0166C80.7835 59.0166 81.5437 59.3357 82.1042 59.9036C82.6647 60.4716 82.9796 61.2418 82.9796 62.045Z" fill="url(#paint34_radial_2307_9566)"/>
<path style="mix-blend-mode:multiply" opacity="0.5" d="M86.9065 58.3289C88.2215 58.3289 89.2876 57.249 89.2876 55.9169C89.2876 54.5848 88.2215 53.5049 86.9065 53.5049C85.5915 53.5049 84.5254 54.5848 84.5254 55.9169C84.5254 57.249 85.5915 58.3289 86.9065 58.3289Z" fill="url(#paint35_radial_2307_9566)"/>
<path style="mix-blend-mode:multiply" opacity="0.5" d="M90.9804 68.6753C92.0148 68.6753 92.8534 67.8258 92.8534 66.7778C92.8534 65.7299 92.0148 64.8804 90.9804 64.8804C89.946 64.8804 89.1074 65.7299 89.1074 66.7778C89.1074 67.8258 89.946 68.6753 90.9804 68.6753Z" fill="url(#paint36_radial_2307_9566)"/>
<path style="mix-blend-mode:multiply" opacity="0.5" d="M65.9742 91.5977C65.9762 92.4166 65.7383 93.2176 65.2907 93.8994C64.843 94.5813 64.2058 95.1132 63.4596 95.428C62.7133 95.7427 61.8917 95.8261 61.0987 95.6676C60.3057 95.509 59.5769 95.1157 59.0046 94.5374C58.4324 93.9591 58.0423 93.2218 57.8839 92.4188C57.7255 91.6158 57.8058 90.7833 58.1147 90.0266C58.4235 89.2698 58.9471 88.623 59.619 88.1678C60.291 87.7127 61.0812 87.4697 61.8895 87.4697C62.9711 87.4697 64.0086 87.9043 64.7743 88.6782C65.5401 89.452 65.9716 90.502 65.9742 91.5977V91.5977Z" fill="url(#paint37_radial_2307_9566)"/>
<path style="mix-blend-mode:multiply" opacity="0.5" d="M68.6134 88.498C69.5983 88.498 70.3967 87.6893 70.3967 86.6917C70.3967 85.694 69.5983 84.8853 68.6134 84.8853C67.6285 84.8853 66.8301 85.694 66.8301 86.6917C66.8301 87.6893 67.6285 88.498 68.6134 88.498Z" fill="url(#paint38_radial_2307_9566)"/>
<path style="mix-blend-mode:multiply" opacity="0.5" d="M43.5072 80.8286C43.5072 81.5274 43.3027 82.2105 42.9195 82.7916C42.5364 83.3726 41.9918 83.8255 41.3546 84.0929C40.7174 84.3603 40.0163 84.4303 39.3399 84.2939C38.6635 84.1576 38.0422 83.8211 37.5545 83.327C37.0668 82.8329 36.7348 82.2033 36.6002 81.5179C36.4657 80.8325 36.5347 80.1221 36.7986 79.4765C37.0626 78.8309 37.5095 78.2791 38.0829 77.8908C38.6564 77.5026 39.3305 77.2954 40.0202 77.2954C40.945 77.2954 41.832 77.6676 42.4859 78.3303C43.1398 78.9929 43.5072 79.8916 43.5072 80.8286V80.8286Z" fill="url(#paint39_radial_2307_9566)"/>
<path style="mix-blend-mode:multiply" opacity="0.5" d="M51.0005 77.5573C51.0005 77.9849 50.8752 78.4028 50.6404 78.7582C50.4057 79.1136 50.0722 79.3904 49.682 79.5536C49.2918 79.7168 48.8626 79.759 48.4488 79.6748C48.0349 79.5906 47.655 79.3839 47.3573 79.0809C47.0595 78.7778 46.8572 78.392 46.7761 77.9724C46.6949 77.5528 46.7386 77.1182 46.9015 76.7238C47.0644 76.3293 47.3392 75.9927 47.6911 75.7565C48.0431 75.5204 48.4563 75.3955 48.8784 75.3975C49.1579 75.3975 49.4346 75.4534 49.6928 75.5621C49.9509 75.6707 50.1853 75.83 50.3825 76.0307C50.5796 76.2314 50.7358 76.4695 50.8418 76.7315C50.9479 76.9935 51.0018 77.2741 51.0005 77.5573V77.5573Z" fill="url(#paint40_radial_2307_9566)"/>
<path style="mix-blend-mode:multiply" opacity="0.5" d="M35.5365 88.2366C35.5365 88.5599 35.4419 88.8761 35.2645 89.1449C35.0872 89.4138 34.8351 89.6234 34.5402 89.7471C34.2453 89.8709 33.9208 89.9033 33.6077 89.8402C33.2946 89.7771 33.007 89.6214 32.7813 89.3927C32.5556 89.164 32.4019 88.8727 32.3396 88.5555C32.2773 88.2384 32.3093 87.9097 32.4314 87.6109C32.5536 87.3121 32.7605 87.0568 33.0259 86.8771C33.2913 86.6974 33.6033 86.6016 33.9225 86.6016C34.3506 86.6016 34.7611 86.7738 35.0638 87.0804C35.3665 87.3871 35.5365 87.8029 35.5365 88.2366V88.2366Z" fill="url(#paint41_radial_2307_9566)"/>
<path style="mix-blend-mode:multiply" opacity="0.5" d="M49.1261 89.3569C49.128 89.6986 49.0298 90.0333 48.8438 90.3184C48.6578 90.6035 48.3924 90.8263 48.0813 90.9585C47.7701 91.0907 47.4273 91.1263 47.0962 91.0608C46.765 90.9954 46.4605 90.8318 46.2213 90.5909C45.982 90.3499 45.8188 90.0424 45.7522 89.7074C45.6857 89.3723 45.7188 89.0248 45.8475 88.7089C45.9761 88.3929 46.1945 88.1228 46.4748 87.9327C46.7552 87.7426 47.085 87.6411 47.4224 87.6411C47.6456 87.6398 47.8669 87.6832 48.0736 87.7688C48.2802 87.8545 48.4681 87.9806 48.6265 88.1401C48.7848 88.2995 48.9104 88.4891 48.9962 88.6979C49.0819 88.9068 49.1261 89.1307 49.1261 89.3569V89.3569Z" fill="url(#paint42_radial_2307_9566)"/>
<path style="mix-blend-mode:multiply" opacity="0.5" d="M98.4738 58.6726C99.9759 58.6726 101.194 57.439 101.194 55.9174C101.194 54.3957 99.9759 53.1621 98.4738 53.1621C96.9716 53.1621 95.7539 54.3957 95.7539 55.9174C95.7539 57.439 96.9716 58.6726 98.4738 58.6726Z" fill="url(#paint43_radial_2307_9566)"/>
<defs>
<radialGradient id="paint0_radial_2307_9566" cx="0" cy="0" r="1" gradientUnits="userSpaceOnUse" gradientTransform="translate(58.6513 58.5015) scale(59.1295 59.9045)">
<stop stop-color="#F20074"/>
<stop offset="0.38" stop-color="#F10174" stop-opacity="0.99"/>
<stop offset="0.51" stop-color="#ED0376" stop-opacity="0.96"/>
<stop offset="0.61" stop-color="#E70679" stop-opacity="0.92"/>
<stop offset="0.69" stop-color="#DF0B7D" stop-opacity="0.85"/>
<stop offset="0.75" stop-color="#D31182" stop-opacity="0.75"/>
<stop offset="0.81" stop-color="#C51988" stop-opacity="0.64"/>
<stop offset="0.87" stop-color="#B42290" stop-opacity="0.51"/>
<stop offset="0.92" stop-color="#A02D98" stop-opacity="0.35"/>
<stop offset="0.96" stop-color="#8B39A2" stop-opacity="0.18"/>
<stop offset="1" stop-color="#7446AC" stop-opacity="0"/>
</radialGradient>
<radialGradient id="paint1_radial_2307_9566" cx="0" cy="0" r="1" gradientUnits="userSpaceOnUse" gradientTransform="translate(49.9231 23.6186) scale(131.689 133.415)">
<stop stop-color="#F20074"/>
<stop offset="0.14" stop-color="#ED0376"/>
<stop offset="0.31" stop-color="#DF0B7D"/>
<stop offset="0.49" stop-color="#C71887"/>
<stop offset="0.67" stop-color="#A62A96"/>
<stop offset="0.87" stop-color="#7B42A9"/>
<stop offset="0.9" stop-color="#7446AC"/>
</radialGradient>
<radialGradient id="paint2_radial_2307_9566" cx="0" cy="0" r="1" gradientUnits="userSpaceOnUse" gradientTransform="translate(50.3527 24.2934) scale(108.067 109.473)">
<stop stop-color="#FBE877"/>
<stop offset="0.07" stop-color="#F6E87C"/>
<stop offset="0.16" stop-color="#E9E78A"/>
<stop offset="0.25" stop-color="#D4E5A2"/>
<stop offset="0.35" stop-color="#B5E4C3"/>
<stop offset="0.45" stop-color="#8EE1EE"/>
<stop offset="0.62" stop-color="#5E8DEC"/>
<stop offset="0.63" stop-color="#5F89E8"/>
<stop offset="0.74" stop-color="#6B64C7"/>
<stop offset="0.84" stop-color="#714EB3"/>
<stop offset="0.9" stop-color="#7446AC"/>
</radialGradient>
<radialGradient id="paint3_radial_2307_9566" cx="0" cy="0" r="1" gradientUnits="userSpaceOnUse" gradientTransform="translate(21532.4 12688.1) scale(5043.42 3528.37)">
<stop stop-color="#FBE877"/>
<stop offset="0.07" stop-color="#F6E87C"/>
<stop offset="0.16" stop-color="#E9E78A"/>
<stop offset="0.25" stop-color="#D4E5A2"/>
<stop offset="0.35" stop-color="#B5E4C3"/>
<stop offset="0.45" stop-color="#8EE1EE"/>
<stop offset="0.62" stop-color="#5E8DEC"/>
<stop offset="0.63" stop-color="#5F89E8"/>
<stop offset="0.74" stop-color="#6B64C7"/>
<stop offset="0.84" stop-color="#714EB3"/>
<stop offset="0.9" stop-color="#7446AC"/>
</radialGradient>
<radialGradient id="paint4_radial_2307_9566" cx="0" cy="0" r="1" gradientUnits="userSpaceOnUse" gradientTransform="translate(9981.98 6181.49) scale(2326.52 1714.44)">
<stop stop-color="#FBE877"/>
<stop offset="0.07" stop-color="#F6E87C"/>
<stop offset="0.16" stop-color="#E9E78A"/>
<stop offset="0.25" stop-color="#D4E5A2"/>
<stop offset="0.35" stop-color="#B5E4C3"/>
<stop offset="0.45" stop-color="#8EE1EE"/>
<stop offset="0.62" stop-color="#5E8DEC"/>
<stop offset="0.63" stop-color="#5F89E8"/>
<stop offset="0.74" stop-color="#6B64C7"/>
<stop offset="0.84" stop-color="#714EB3"/>
<stop offset="0.9" stop-color="#7446AC"/>
</radialGradient>
<radialGradient id="paint5_radial_2307_9566" cx="0" cy="0" r="1" gradientUnits="userSpaceOnUse" gradientTransform="translate(6498.01 5585.86) scale(1503.96 1540.75)">
<stop stop-color="#FBE877"/>
<stop offset="0.07" stop-color="#F6E87C"/>
<stop offset="0.16" stop-color="#E9E78A"/>
<stop offset="0.25" stop-color="#D4E5A2"/>
<stop offset="0.35" stop-color="#B5E4C3"/>
<stop offset="0.45" stop-color="#8EE1EE"/>
<stop offset="0.62" stop-color="#5E8DEC"/>
<stop offset="0.63" stop-color="#5F89E8"/>
<stop offset="0.74" stop-color="#6B64C7"/>
<stop offset="0.84" stop-color="#714EB3"/>
<stop offset="0.9" stop-color="#7446AC"/>
</radialGradient>
<radialGradient id="paint6_radial_2307_9566" cx="0" cy="0" r="1" gradientUnits="userSpaceOnUse" gradientTransform="translate(14264.6 5090.43) scale(3338.59 1414.77)">
<stop stop-color="#FBE877"/>
<stop offset="0.07" stop-color="#F6E87C"/>
<stop offset="0.16" stop-color="#E9E78A"/>
<stop offset="0.25" stop-color="#D4E5A2"/>
<stop offset="0.35" stop-color="#B5E4C3"/>
<stop offset="0.45" stop-color="#8EE1EE"/>
<stop offset="0.62" stop-color="#5E8DEC"/>
<stop offset="0.63" stop-color="#5F89E8"/>
<stop offset="0.74" stop-color="#6B64C7"/>
<stop offset="0.84" stop-color="#714EB3"/>
<stop offset="0.9" stop-color="#7446AC"/>
</radialGradient>
<radialGradient id="paint7_radial_2307_9566" cx="0" cy="0" r="1" gradientUnits="userSpaceOnUse" gradientTransform="translate(12384 12416.6) scale(2889.48 3445.59)">
<stop stop-color="#FBE877"/>
<stop offset="0.07" stop-color="#F6E87C"/>
<stop offset="0.16" stop-color="#E9E78A"/>
<stop offset="0.25" stop-color="#D4E5A2"/>
<stop offset="0.35" stop-color="#B5E4C3"/>
<stop offset="0.45" stop-color="#8EE1EE"/>
<stop offset="0.62" stop-color="#5E8DEC"/>
<stop offset="0.63" stop-color="#5F89E8"/>
<stop offset="0.74" stop-color="#6B64C7"/>
<stop offset="0.84" stop-color="#714EB3"/>
<stop offset="0.9" stop-color="#7446AC"/>
</radialGradient>
<radialGradient id="paint8_radial_2307_9566" cx="0" cy="0" r="1" gradientUnits="userSpaceOnUse" gradientTransform="translate(11846.4 5841.79) scale(2779.15 1619.08)">
<stop stop-color="#FBE877"/>
<stop offset="0.07" stop-color="#F6E87C"/>
<stop offset="0.16" stop-color="#E9E78A"/>
<stop offset="0.25" stop-color="#D4E5A2"/>
<stop offset="0.35" stop-color="#B5E4C3"/>
<stop offset="0.45" stop-color="#8EE1EE"/>
<stop offset="0.62" stop-color="#5E8DEC"/>
<stop offset="0.63" stop-color="#5F89E8"/>
<stop offset="0.74" stop-color="#6B64C7"/>
<stop offset="0.84" stop-color="#714EB3"/>
<stop offset="0.9" stop-color="#7446AC"/>
</radialGradient>
<radialGradient id="paint9_radial_2307_9566" cx="0" cy="0" r="1" gradientUnits="userSpaceOnUse" gradientTransform="translate(23596.1 9749.11) scale(5529.79 2691.84)">
<stop stop-color="#FBE877"/>
<stop offset="0.07" stop-color="#F6E87C"/>
<stop offset="0.16" stop-color="#E9E78A"/>
<stop offset="0.25" stop-color="#D4E5A2"/>
<stop offset="0.35" stop-color="#B5E4C3"/>
<stop offset="0.45" stop-color="#8EE1EE"/>
<stop offset="0.62" stop-color="#5E8DEC"/>
<stop offset="0.63" stop-color="#5F89E8"/>
<stop offset="0.74" stop-color="#6B64C7"/>
<stop offset="0.84" stop-color="#714EB3"/>
<stop offset="0.9" stop-color="#7446AC"/>
</radialGradient>
<radialGradient id="paint10_radial_2307_9566" cx="0" cy="0" r="1" gradientUnits="userSpaceOnUse" gradientTransform="translate(19777.6 15301.7) scale(4642.4 4256.73)">
<stop stop-color="#FBE877"/>
<stop offset="0.07" stop-color="#F6E87C"/>
<stop offset="0.16" stop-color="#E9E78A"/>
<stop offset="0.25" stop-color="#D4E5A2"/>
<stop offset="0.35" stop-color="#B5E4C3"/>
<stop offset="0.45" stop-color="#8EE1EE"/>
<stop offset="0.62" stop-color="#5E8DEC"/>
<stop offset="0.63" stop-color="#5F89E8"/>
<stop offset="0.74" stop-color="#6B64C7"/>
<stop offset="0.84" stop-color="#714EB3"/>
<stop offset="0.9" stop-color="#7446AC"/>
</radialGradient>
<radialGradient id="paint11_radial_2307_9566" cx="0" cy="0" r="1" gradientUnits="userSpaceOnUse" gradientTransform="translate(12877.6 5903.81) scale(3008.59 1618.18)">
<stop stop-color="#FBE877"/>
<stop offset="0.07" stop-color="#F6E87C"/>
<stop offset="0.16" stop-color="#E9E78A"/>
<stop offset="0.25" stop-color="#D4E5A2"/>
<stop offset="0.35" stop-color="#B5E4C3"/>
<stop offset="0.45" stop-color="#8EE1EE"/>
<stop offset="0.62" stop-color="#5E8DEC"/>
<stop offset="0.63" stop-color="#5F89E8"/>
<stop offset="0.74" stop-color="#6B64C7"/>
<stop offset="0.84" stop-color="#714EB3"/>
<stop offset="0.9" stop-color="#7446AC"/>
</radialGradient>
<radialGradient id="paint12_radial_2307_9566" cx="0" cy="0" r="1" gradientUnits="userSpaceOnUse" gradientTransform="translate(29390.1 15248) scale(6899.76 4230.09)">
<stop stop-color="#FBE877"/>
<stop offset="0.07" stop-color="#F6E87C"/>
<stop offset="0.16" stop-color="#E9E78A"/>
<stop offset="0.25" stop-color="#D4E5A2"/>
<stop offset="0.35" stop-color="#B5E4C3"/>
<stop offset="0.45" stop-color="#8EE1EE"/>
<stop offset="0.62" stop-color="#5E8DEC"/>
<stop offset="0.63" stop-color="#5F89E8"/>
<stop offset="0.74" stop-color="#6B64C7"/>
<stop offset="0.84" stop-color="#714EB3"/>
<stop offset="0.9" stop-color="#7446AC"/>
</radialGradient>
<radialGradient id="paint13_radial_2307_9566" cx="0" cy="0" r="1" gradientUnits="userSpaceOnUse" gradientTransform="translate(16223.7 6031.53) scale(3806.86 1660.5)">
<stop stop-color="#FBE877"/>
<stop offset="0.07" stop-color="#F6E87C"/>
<stop offset="0.16" stop-color="#E9E78A"/>
<stop offset="0.25" stop-color="#D4E5A2"/>
<stop offset="0.35" stop-color="#B5E4C3"/>
<stop offset="0.45" stop-color="#8EE1EE"/>
<stop offset="0.62" stop-color="#5E8DEC"/>
<stop offset="0.63" stop-color="#5F89E8"/>
<stop offset="0.74" stop-color="#6B64C7"/>
<stop offset="0.84" stop-color="#714EB3"/>
<stop offset="0.9" stop-color="#7446AC"/>
</radialGradient>
<radialGradient id="paint14_radial_2307_9566" cx="0" cy="0" r="1" gradientUnits="userSpaceOnUse" gradientTransform="translate(3087.52 3626.1) scale(712.389 987.144)">
<stop stop-color="#FBE877"/>
<stop offset="0.07" stop-color="#F6E87C"/>
<stop offset="0.16" stop-color="#E9E78A"/>
<stop offset="0.25" stop-color="#D4E5A2"/>
<stop offset="0.35" stop-color="#B5E4C3"/>
<stop offset="0.45" stop-color="#8EE1EE"/>
<stop offset="0.62" stop-color="#5E8DEC"/>
<stop offset="0.63" stop-color="#5F89E8"/>
<stop offset="0.74" stop-color="#6B64C7"/>
<stop offset="0.84" stop-color="#714EB3"/>
<stop offset="0.9" stop-color="#7446AC"/>
</radialGradient>
<radialGradient id="paint15_radial_2307_9566" cx="0" cy="0" r="1" gradientUnits="userSpaceOnUse" gradientTransform="translate(10279.8 6339.55) scale(2401.21 1743.28)">
<stop stop-color="#FBE877"/>
<stop offset="0.07" stop-color="#F6E87C"/>
<stop offset="0.16" stop-color="#E9E78A"/>
<stop offset="0.25" stop-color="#D4E5A2"/>
<stop offset="0.35" stop-color="#B5E4C3"/>
<stop offset="0.45" stop-color="#8EE1EE"/>
<stop offset="0.62" stop-color="#5E8DEC"/>
<stop offset="0.63" stop-color="#5F89E8"/>
<stop offset="0.74" stop-color="#6B64C7"/>
<stop offset="0.84" stop-color="#714EB3"/>
<stop offset="0.9" stop-color="#7446AC"/>
</radialGradient>
<radialGradient id="paint16_radial_2307_9566" cx="0" cy="0" r="1" gradientUnits="userSpaceOnUse" gradientTransform="translate(12373.4 10328.4) scale(2893.38 2858.91)">
<stop stop-color="#FBE877"/>
<stop offset="0.07" stop-color="#F6E87C"/>
<stop offset="0.16" stop-color="#E9E78A"/>
<stop offset="0.25" stop-color="#D4E5A2"/>
<stop offset="0.35" stop-color="#B5E4C3"/>
<stop offset="0.45" stop-color="#8EE1EE"/>
<stop offset="0.62" stop-color="#5E8DEC"/>
<stop offset="0.63" stop-color="#5F89E8"/>
<stop offset="0.74" stop-color="#6B64C7"/>
<stop offset="0.84" stop-color="#714EB3"/>
<stop offset="0.9" stop-color="#7446AC"/>
</radialGradient>
<radialGradient id="paint17_radial_2307_9566" cx="0" cy="0" r="1" gradientUnits="userSpaceOnUse" gradientTransform="translate(3657.99 4912.2) scale(848.92 1358.8)">
<stop stop-color="#FBE877"/>
<stop offset="0.07" stop-color="#F6E87C"/>
<stop offset="0.16" stop-color="#E9E78A"/>
<stop offset="0.25" stop-color="#D4E5A2"/>
<stop offset="0.35" stop-color="#B5E4C3"/>
<stop offset="0.45" stop-color="#8EE1EE"/>
<stop offset="0.62" stop-color="#5E8DEC"/>
<stop offset="0.63" stop-color="#5F89E8"/>
<stop offset="0.74" stop-color="#6B64C7"/>
<stop offset="0.84" stop-color="#714EB3"/>
<stop offset="0.9" stop-color="#7446AC"/>
</radialGradient>
<radialGradient id="paint18_radial_2307_9566" cx="0" cy="0" r="1" gradientUnits="userSpaceOnUse" gradientTransform="translate(8285.8 2709.97) scale(1940.07 745.108)">
<stop stop-color="#FBE877"/>
<stop offset="0.07" stop-color="#F6E87C"/>
<stop offset="0.16" stop-color="#E9E78A"/>
<stop offset="0.25" stop-color="#D4E5A2"/>
<stop offset="0.35" stop-color="#B5E4C3"/>
<stop offset="0.45" stop-color="#8EE1EE"/>
<stop offset="0.62" stop-color="#5E8DEC"/>
<stop offset="0.63" stop-color="#5F89E8"/>
<stop offset="0.74" stop-color="#6B64C7"/>
<stop offset="0.84" stop-color="#714EB3"/>
<stop offset="0.9" stop-color="#7446AC"/>
</radialGradient>
<radialGradient id="paint19_radial_2307_9566" cx="0" cy="0" r="1" gradientUnits="userSpaceOnUse" gradientTransform="translate(2866.91 2519.47) scale(660.912 695.824)">
<stop stop-color="#FBE877"/>
<stop offset="0.07" stop-color="#F6E87C"/>
<stop offset="0.16" stop-color="#E9E78A"/>
<stop offset="0.25" stop-color="#D4E5A2"/>
<stop offset="0.35" stop-color="#B5E4C3"/>
<stop offset="0.45" stop-color="#8EE1EE"/>
<stop offset="0.62" stop-color="#5E8DEC"/>
<stop offset="0.63" stop-color="#5F89E8"/>
<stop offset="0.74" stop-color="#6B64C7"/>
<stop offset="0.84" stop-color="#714EB3"/>
<stop offset="0.9" stop-color="#7446AC"/>
</radialGradient>
<radialGradient id="paint20_radial_2307_9566" cx="0" cy="0" r="1" gradientUnits="userSpaceOnUse" gradientTransform="translate(2144.28 1060.54) scale(487.148 290.807)">
<stop stop-color="#FBE877"/>
<stop offset="0.07" stop-color="#F6E87C"/>
<stop offset="0.16" stop-color="#E9E78A"/>
<stop offset="0.25" stop-color="#D4E5A2"/>
<stop offset="0.35" stop-color="#B5E4C3"/>
<stop offset="0.45" stop-color="#8EE1EE"/>
<stop offset="0.62" stop-color="#5E8DEC"/>
<stop offset="0.63" stop-color="#5F89E8"/>
<stop offset="0.74" stop-color="#6B64C7"/>
<stop offset="0.84" stop-color="#714EB3"/>
<stop offset="0.9" stop-color="#7446AC"/>
</radialGradient>
<radialGradient id="paint21_radial_2307_9566" cx="0" cy="0" r="1" gradientUnits="userSpaceOnUse" gradientTransform="translate(13591.8 5749.41) scale(3186.13 1572.58)">
<stop stop-color="#FBE877"/>
<stop offset="0.07" stop-color="#F6E87C"/>
<stop offset="0.16" stop-color="#E9E78A"/>
<stop offset="0.25" stop-color="#D4E5A2"/>
<stop offset="0.35" stop-color="#B5E4C3"/>
<stop offset="0.45" stop-color="#8EE1EE"/>
<stop offset="0.62" stop-color="#5E8DEC"/>
<stop offset="0.63" stop-color="#5F89E8"/>
<stop offset="0.74" stop-color="#6B64C7"/>
<stop offset="0.84" stop-color="#714EB3"/>
<stop offset="0.9" stop-color="#7446AC"/>
</radialGradient>
<radialGradient id="paint22_radial_2307_9566" cx="0" cy="0" r="1" gradientUnits="userSpaceOnUse" gradientTransform="translate(12439.1 5183.12) scale(2918.26 1427.11)">
<stop stop-color="#FBE877"/>
<stop offset="0.07" stop-color="#F6E87C"/>
<stop offset="0.16" stop-color="#E9E78A"/>
<stop offset="0.25" stop-color="#D4E5A2"/>
<stop offset="0.35" stop-color="#B5E4C3"/>
<stop offset="0.45" stop-color="#8EE1EE"/>
<stop offset="0.62" stop-color="#5E8DEC"/>
<stop offset="0.63" stop-color="#5F89E8"/>
<stop offset="0.74" stop-color="#6B64C7"/>
<stop offset="0.84" stop-color="#714EB3"/>
<stop offset="0.9" stop-color="#7446AC"/>
</radialGradient>
<radialGradient id="paint23_radial_2307_9566" cx="0" cy="0" r="1" gradientUnits="userSpaceOnUse" gradientTransform="translate(7078.49 3101.73) scale(1643.68 839.83)">
<stop stop-color="#FBE877"/>
<stop offset="0.07" stop-color="#F6E87C"/>
<stop offset="0.16" stop-color="#E9E78A"/>
<stop offset="0.25" stop-color="#D4E5A2"/>
<stop offset="0.35" stop-color="#B5E4C3"/>
<stop offset="0.45" stop-color="#8EE1EE"/>
<stop offset="0.62" stop-color="#5E8DEC"/>
<stop offset="0.63" stop-color="#5F89E8"/>
<stop offset="0.74" stop-color="#6B64C7"/>
<stop offset="0.84" stop-color="#714EB3"/>
<stop offset="0.9" stop-color="#7446AC"/>
</radialGradient>
<radialGradient id="paint24_radial_2307_9566" cx="0" cy="0" r="1" gradientUnits="userSpaceOnUse" gradientTransform="translate(11022.5 6470.2) scale(2569.23 1782.77)">
<stop stop-color="#FBE877"/>
<stop offset="0.07" stop-color="#F6E87C"/>
<stop offset="0.16" stop-color="#E9E78A"/>
<stop offset="0.25" stop-color="#D4E5A2"/>
<stop offset="0.35" stop-color="#B5E4C3"/>
<stop offset="0.45" stop-color="#8EE1EE"/>
<stop offset="0.62" stop-color="#5E8DEC"/>
<stop offset="0.63" stop-color="#5F89E8"/>
<stop offset="0.74" stop-color="#6B64C7"/>
<stop offset="0.84" stop-color="#714EB3"/>
<stop offset="0.9" stop-color="#7446AC"/>
</radialGradient>
<radialGradient id="paint25_radial_2307_9566" cx="0" cy="0" r="1" gradientUnits="userSpaceOnUse" gradientTransform="translate(6440.94 1174.82) scale(1493.87 300.423)">
<stop stop-color="#FBE877"/>
<stop offset="0.07" stop-color="#F6E87C"/>
<stop offset="0.16" stop-color="#E9E78A"/>
<stop offset="0.25" stop-color="#D4E5A2"/>
<stop offset="0.35" stop-color="#B5E4C3"/>
<stop offset="0.45" stop-color="#8EE1EE"/>
<stop offset="0.62" stop-color="#5E8DEC"/>
<stop offset="0.63" stop-color="#5F89E8"/>
<stop offset="0.74" stop-color="#6B64C7"/>
<stop offset="0.84" stop-color="#714EB3"/>
<stop offset="0.9" stop-color="#7446AC"/>
</radialGradient>
<radialGradient id="paint26_radial_2307_9566" cx="0" cy="0" r="1" gradientUnits="userSpaceOnUse" gradientTransform="translate(6359.37 3913.71) scale(1479.18 1057.81)">
<stop stop-color="#FBE877"/>
<stop offset="0.07" stop-color="#F6E87C"/>
<stop offset="0.16" stop-color="#E9E78A"/>
<stop offset="0.25" stop-color="#D4E5A2"/>
<stop offset="0.35" stop-color="#B5E4C3"/>
<stop offset="0.45" stop-color="#8EE1EE"/>
<stop offset="0.62" stop-color="#5E8DEC"/>
<stop offset="0.63" stop-color="#5F89E8"/>
<stop offset="0.74" stop-color="#6B64C7"/>
<stop offset="0.84" stop-color="#714EB3"/>
<stop offset="0.9" stop-color="#7446AC"/>
</radialGradient>
<radialGradient id="paint27_radial_2307_9566" cx="0" cy="0" r="1" gradientUnits="userSpaceOnUse" gradientTransform="translate(13936.5 2938.38) scale(3270.05 799.649)">
<stop stop-color="#FBE877"/>
<stop offset="0.07" stop-color="#F6E87C"/>
<stop offset="0.16" stop-color="#E9E78A"/>
<stop offset="0.25" stop-color="#D4E5A2"/>
<stop offset="0.35" stop-color="#B5E4C3"/>
<stop offset="0.45" stop-color="#8EE1EE"/>
<stop offset="0.62" stop-color="#5E8DEC"/>
<stop offset="0.63" stop-color="#5F89E8"/>
<stop offset="0.74" stop-color="#6B64C7"/>
<stop offset="0.84" stop-color="#714EB3"/>
<stop offset="0.9" stop-color="#7446AC"/>
</radialGradient>
<radialGradient id="paint28_radial_2307_9566" cx="0" cy="0" r="1" gradientUnits="userSpaceOnUse" gradientTransform="translate(14807.2 9591.18) scale(3467.35 2637.26)">
<stop stop-color="#FBE877"/>
<stop offset="0.07" stop-color="#F6E87C"/>
<stop offset="0.16" stop-color="#E9E78A"/>
<stop offset="0.25" stop-color="#D4E5A2"/>
<stop offset="0.35" stop-color="#B5E4C3"/>
<stop offset="0.45" stop-color="#8EE1EE"/>
<stop offset="0.62" stop-color="#5E8DEC"/>
<stop offset="0.63" stop-color="#5F89E8"/>
<stop offset="0.74" stop-color="#6B64C7"/>
<stop offset="0.84" stop-color="#714EB3"/>
<stop offset="0.9" stop-color="#7446AC"/>
</radialGradient>
<radialGradient id="paint29_radial_2307_9566" cx="0" cy="0" r="1" gradientUnits="userSpaceOnUse" gradientTransform="translate(45030.3 34572.2) scale(11753.7 10416.9)">
<stop stop-color="#F20074"/>
<stop offset="0.14" stop-color="#ED0376"/>
<stop offset="0.31" stop-color="#DF0B7D"/>
<stop offset="0.49" stop-color="#C71887"/>
<stop offset="0.67" stop-color="#A62A96"/>
<stop offset="0.87" stop-color="#7B42A9"/>
<stop offset="0.9" stop-color="#7446AC"/>
</radialGradient>
<radialGradient id="paint30_radial_2307_9566" cx="0" cy="0" r="1" gradientUnits="userSpaceOnUse" gradientTransform="translate(41221.5 28575.5) scale(9064.17 7071.15)">
<stop stop-color="#F20074"/>
<stop offset="0.14" stop-color="#ED0376"/>
<stop offset="0.31" stop-color="#DF0B7D"/>
<stop offset="0.49" stop-color="#C71887"/>
<stop offset="0.67" stop-color="#A62A96"/>
<stop offset="0.87" stop-color="#7B42A9"/>
<stop offset="0.9" stop-color="#7446AC"/>
</radialGradient>
<radialGradient id="paint31_radial_2307_9566" cx="0" cy="0" r="1" gradientUnits="userSpaceOnUse" gradientTransform="translate(35158.8 35089.6) scale(8874.44 10333.6)">
<stop stop-color="#FBE877"/>
<stop offset="0.07" stop-color="#F6E87C"/>
<stop offset="0.16" stop-color="#E9E78A"/>
<stop offset="0.25" stop-color="#D4E5A2"/>
<stop offset="0.35" stop-color="#B5E4C3"/>
<stop offset="0.45" stop-color="#8EE1EE"/>
<stop offset="0.62" stop-color="#5E8DEC"/>
<stop offset="0.63" stop-color="#5F89E8"/>
<stop offset="0.74" stop-color="#6B64C7"/>
<stop offset="0.84" stop-color="#714EB3"/>
<stop offset="0.9" stop-color="#7446AC"/>
</radialGradient>
<radialGradient id="paint32_radial_2307_9566" cx="0" cy="0" r="1" gradientUnits="userSpaceOnUse" gradientTransform="translate(3896.42 7494.74) rotate(33.1912) scale(386.028 502.659)">
<stop stop-color="#FBE877"/>
<stop offset="0.07" stop-color="#F6E87C"/>
<stop offset="0.16" stop-color="#E9E78A"/>
<stop offset="0.25" stop-color="#D4E5A2"/>
<stop offset="0.35" stop-color="#B5E4C3"/>
<stop offset="0.45" stop-color="#8EE1EE"/>
<stop offset="0.62" stop-color="#5E8DEC"/>
<stop offset="0.63" stop-color="#5F89E8"/>
<stop offset="0.74" stop-color="#6B64C7"/>
<stop offset="0.84" stop-color="#714EB3"/>
<stop offset="0.9" stop-color="#7446AC"/>
</radialGradient>
<radialGradient id="paint33_radial_2307_9566" cx="0" cy="0" r="1" gradientUnits="userSpaceOnUse" gradientTransform="translate(1868.3 3609.57) rotate(49.8324) scale(98.2321 88.4723)">
<stop stop-color="#FBE877"/>
<stop offset="0.07" stop-color="#F6E87C"/>
<stop offset="0.16" stop-color="#E9E78A"/>
<stop offset="0.25" stop-color="#D4E5A2"/>
<stop offset="0.35" stop-color="#B5E4C3"/>
<stop offset="0.45" stop-color="#8EE1EE"/>
<stop offset="0.62" stop-color="#5E8DEC"/>
<stop offset="0.63" stop-color="#5F89E8"/>
<stop offset="0.74" stop-color="#6B64C7"/>
<stop offset="0.84" stop-color="#714EB3"/>
<stop offset="0.9" stop-color="#7446AC"/>
</radialGradient>
<radialGradient id="paint34_radial_2307_9566" cx="0" cy="0" r="1" gradientUnits="userSpaceOnUse" gradientTransform="translate(3012.51 2631.25) scale(48.0006 48.6368)">
<stop stop-color="#F20074"/>
<stop offset="0.14" stop-color="#ED0376"/>
<stop offset="0.31" stop-color="#DF0B7D"/>
<stop offset="0.49" stop-color="#C71887"/>
<stop offset="0.67" stop-color="#A62A96"/>
<stop offset="0.87" stop-color="#7B42A9"/>
<stop offset="0.9" stop-color="#7446AC"/>
</radialGradient>
<radialGradient id="paint35_radial_2307_9566" cx="0" cy="0" r="1" gradientUnits="userSpaceOnUse" gradientTransform="translate(497.79 312.359) scale(30.621 31.0182)">
<stop stop-color="#F20074"/>
<stop offset="0.14" stop-color="#ED0376"/>
<stop offset="0.31" stop-color="#DF0B7D"/>
<stop offset="0.49" stop-color="#C71887"/>
<stop offset="0.67" stop-color="#A62A96"/>
<stop offset="0.87" stop-color="#7B42A9"/>
<stop offset="0.9" stop-color="#7446AC"/>
</radialGradient>
<radialGradient id="paint36_radial_2307_9566" cx="0" cy="0" r="1" gradientUnits="userSpaceOnUse" gradientTransform="translate(429.916 310.753) scale(18.9172 19.1644)">
<stop stop-color="#F20074"/>
<stop offset="0.14" stop-color="#ED0376"/>
<stop offset="0.31" stop-color="#DF0B7D"/>
<stop offset="0.49" stop-color="#C71887"/>
<stop offset="0.67" stop-color="#A62A96"/>
<stop offset="0.87" stop-color="#7B42A9"/>
<stop offset="0.9" stop-color="#7446AC"/>
</radialGradient>
<radialGradient id="paint37_radial_2307_9566" cx="0" cy="0" r="1" gradientUnits="userSpaceOnUse" gradientTransform="translate(3919.47 3837.88) scale(90.0285 91.2029)">
<stop stop-color="#F20074"/>
<stop offset="0.14" stop-color="#ED0376"/>
<stop offset="0.31" stop-color="#DF0B7D"/>
<stop offset="0.49" stop-color="#C71887"/>
<stop offset="0.67" stop-color="#A62A96"/>
<stop offset="0.87" stop-color="#7B42A9"/>
<stop offset="0.9" stop-color="#7446AC"/>
</radialGradient>
<radialGradient id="paint38_radial_2307_9566" cx="0" cy="0" r="1" gradientUnits="userSpaceOnUse" gradientTransform="translate(311.288 390.455) scale(17.1913 17.4137)">
<stop stop-color="#F20074"/>
<stop offset="0.14" stop-color="#ED0376"/>
<stop offset="0.31" stop-color="#DF0B7D"/>
<stop offset="0.49" stop-color="#C71887"/>
<stop offset="0.67" stop-color="#A62A96"/>
<stop offset="0.87" stop-color="#7B42A9"/>
<stop offset="0.9" stop-color="#7446AC"/>
</radialGradient>
<radialGradient id="paint39_radial_2307_9566" cx="0" cy="0" r="1" gradientUnits="userSpaceOnUse" gradientTransform="translate(3180.83 3207.15) scale(65.6253 66.4949)">
<stop stop-color="#F20074"/>
<stop offset="0.14" stop-color="#ED0376"/>
<stop offset="0.31" stop-color="#DF0B7D"/>
<stop offset="0.49" stop-color="#C71887"/>
<stop offset="0.67" stop-color="#A62A96"/>
<stop offset="0.87" stop-color="#7B42A9"/>
<stop offset="0.9" stop-color="#7446AC"/>
</radialGradient>
<radialGradient id="paint40_radial_2307_9566" cx="0" cy="0" r="1" gradientUnits="userSpaceOnUse" gradientTransform="translate(2008.21 1978.91) scale(24.4763 24.7944)">
<stop stop-color="#F20074"/>
<stop offset="0.14" stop-color="#ED0376"/>
<stop offset="0.31" stop-color="#DF0B7D"/>
<stop offset="0.49" stop-color="#C71887"/>
<stop offset="0.67" stop-color="#A62A96"/>
<stop offset="0.87" stop-color="#7B42A9"/>
<stop offset="0.9" stop-color="#7446AC"/>
</radialGradient>
<radialGradient id="paint41_radial_2307_9566" cx="0" cy="0" r="1" gradientUnits="userSpaceOnUse" gradientTransform="translate(1468.92 1563.44) scale(14.0737 14.2573)">
<stop stop-color="#F20074"/>
<stop offset="0.14" stop-color="#ED0376"/>
<stop offset="0.31" stop-color="#DF0B7D"/>
<stop offset="0.49" stop-color="#C71887"/>
<stop offset="0.67" stop-color="#A62A96"/>
<stop offset="0.87" stop-color="#7B42A9"/>
<stop offset="0.9" stop-color="#7446AC"/>
</radialGradient>
<radialGradient id="paint42_radial_2307_9566" cx="0" cy="0" r="1" gradientUnits="userSpaceOnUse" gradientTransform="translate(1608.4 1650.14) scale(15.6397 15.8431)">
<stop stop-color="#F20074"/>
<stop offset="0.14" stop-color="#ED0376"/>
<stop offset="0.31" stop-color="#DF0B7D"/>
<stop offset="0.49" stop-color="#C71887"/>
<stop offset="0.67" stop-color="#A62A96"/>
<stop offset="0.87" stop-color="#7B42A9"/>
<stop offset="0.9" stop-color="#7446AC"/>
</radialGradient>
<radialGradient id="paint43_radial_2307_9566" cx="0" cy="0" r="1" gradientUnits="userSpaceOnUse" gradientTransform="translate(630.639 347.478) scale(39.9274 40.4471)">
<stop stop-color="#F20074"/>
<stop offset="0.14" stop-color="#ED0376"/>
<stop offset="0.31" stop-color="#DF0B7D"/>
<stop offset="0.49" stop-color="#C71887"/>
<stop offset="0.67" stop-color="#A62A96"/>
<stop offset="0.87" stop-color="#7B42A9"/>
<stop offset="0.9" stop-color="#7446AC"/>
</radialGradient>
</defs>
</svg>
