<svg width="226" height="229" viewBox="0 0 226 229" fill="none" xmlns="http://www.w3.org/2000/svg">
<path d="M225.997 114.847C225.971 134.966 220.668 154.719 210.627 172.096C200.586 189.473 186.167 203.853 168.835 213.774C151.846 223.623 132.588 228.781 112.998 228.729C83.0692 228.729 54.3625 216.738 33.1778 195.388C11.9931 174.038 0.0610487 145.072 0 114.847C0 112.131 0.115246 109.455 0.345737 106.817C2.21204 77.1855 15.4463 49.4573 37.2363 29.5244C59.0262 9.5915 87.6541 -0.974833 117.036 0.0708276C146.418 1.11649 174.239 13.6917 194.585 35.1242C214.932 56.5567 226.2 85.1569 225.997 114.847V114.847Z" fill="url(#paint0_radial_4674_8027)"/>
<path d="M220.408 117.117C220.47 136.84 215.35 156.226 205.572 173.299C195.793 190.371 181.705 204.519 164.744 214.298C148.169 223.946 129.365 229.005 110.233 228.962C95.7198 228.939 81.3534 226.027 67.9558 220.391C54.5582 214.756 42.3923 206.509 32.154 196.12C21.9157 185.732 13.806 173.408 8.28873 159.851C2.77151 146.295 -0.0449244 131.773 0.000541812 117.117C0.000541812 114.479 0.115787 111.86 0.346279 109.261C2.40658 80.5393 15.4133 53.7433 36.6319 34.506C57.8505 15.2687 85.6283 5.08859 114.125 6.1059C142.622 7.12321 169.619 19.2587 189.44 39.9611C209.26 60.6634 220.361 88.32 220.408 117.117V117.117Z" fill="url(#paint1_radial_4674_8027)"/>
<path d="M0.289383 112.927C0.289383 115.429 0.289383 117.99 0.289383 120.55C0.105123 149.068 11.1269 176.495 30.9378 196.818C50.7487 217.141 77.7316 228.701 105.97 228.962C124.377 229.023 142.465 224.1 158.349 214.705C174.703 205.17 188.272 191.44 197.683 174.906C207.093 158.372 212.011 139.621 211.938 120.55C211.938 118.455 210.497 115.255 210.44 112.81C210.44 111.588 210.44 110.308 210.44 109.086C210.44 106.351 209.806 103.791 209.806 101.056C209.806 99.659 209.806 98.2624 209.806 96.924C209.806 95.5856 209.23 94.5963 209.172 93.3743C208.701 90.804 208.547 88.185 208.711 85.5765C209.057 83.8307 209.864 82.2014 208.02 81.0375C206.176 79.8737 206.464 80.6302 205.657 79.1754C205.039 78.1422 204.305 77.1853 203.467 76.324C202.032 75.032 200.738 73.5883 199.607 72.0177C199.24 71.5409 198.913 71.035 198.627 70.5047C198.627 69.8064 199.376 69.2245 199.031 68.5844C197.532 68.1771 195.976 68.5844 194.536 68.5844C193.095 68.5844 192.461 66.4313 192.231 64.7437C192.139 63.8313 192.277 62.9102 192.634 62.0669C192.749 61.1394 192.749 60.2011 192.634 59.2737V60.7285C192.91 58.7987 192.91 56.839 192.634 54.9092C192.013 53.576 191.175 52.3566 190.157 51.3013C188.814 50.2248 187.194 49.5585 185.489 49.381C183.127 48.7409 183.53 46.064 182.493 44.2019C182.027 43.4348 181.443 42.7473 180.764 42.1652C179.154 40.3456 177.69 38.3997 176.385 36.3459C173.849 32.9126 171.833 32.9708 167.857 32.7962C163.931 32.4784 160.09 31.4742 156.505 29.8284C152.151 26.8832 146.99 25.397 141.753 25.5804C138.738 26.6634 135.659 27.5573 132.534 28.2572C129.813 28.1263 127.182 27.2403 124.928 25.6968C120.078 22.2788 114.677 19.7387 108.966 18.19C103.799 17.2114 98.5167 17.0153 93.2926 17.6081C87.8031 18.6866 82.4359 20.3243 77.2735 22.4962C71.5826 25.2569 66.2745 28.7588 61.4848 32.9126C57.1055 35.9386 51.5737 36.5787 47.3672 39.7793C45.5265 41.1232 43.9282 42.7767 42.6422 44.6674C42.1812 45.4821 42.0083 46.5296 41.5473 47.4025C40.7496 48.7971 39.7601 50.0706 38.6086 51.1849C29.5618 61.3686 14.1189 65.0347 7.43461 76.9641C6.33978 78.9426 3.57388 89.5918 2.94003 91.6867C1.67233 95.8765 10.892 98.8443 9.79715 103.034C9.29717 104.238 8.67946 105.388 7.95322 106.467C7.45618 107.721 6.75503 108.881 5.8788 109.901C4.61109 111.297 1.44184 111.297 0.289383 112.927Z" fill="url(#paint2_radial_4674_8027)"/>
<g style="mix-blend-mode:multiply" opacity="0.2">
<path d="M195.169 138.241C198.164 142.004 200.379 146.338 201.68 150.985C202.166 154.228 201.705 157.545 200.355 160.528C199.979 161.563 199.433 162.527 198.741 163.38C197.795 164.066 196.77 164.633 195.687 165.067C193.839 166.304 192.121 167.727 190.559 169.315C189.637 170.13 188.6 170.886 187.735 171.759C186.409 173.379 185.196 175.091 184.105 176.88C181.339 180.488 179.322 184.969 175.231 187.064C172.638 188.685 169.636 189.514 166.588 189.45C163.362 189.123 160.28 187.938 157.656 186.016C155.842 184.951 153.907 184.111 151.894 183.514C149.237 182.436 146.525 181.503 143.769 180.721C140.178 179.514 136.431 178.847 132.648 178.742C131.094 178.767 129.606 179.378 128.475 180.455C127.345 181.532 126.655 182.997 126.54 184.561C126.54 187.82 129.478 191.021 131.38 193.639C132.014 194.512 132.187 195.152 133.051 196.374C133.915 197.597 134.376 199.226 135.587 200.041C137.908 201.474 140.408 202.589 143.02 203.358C146.074 204.347 149.358 204.754 152.297 205.918C155.961 206.912 159.56 208.137 163.073 209.584C165.215 210.738 167.161 212.231 168.835 214.007C151.846 223.856 132.588 229.014 112.998 228.962C83.0293 228.962 54.2878 216.939 33.0965 195.539C11.9052 174.138 0 145.112 0 114.847C0 112.132 0.0768304 109.532 0.230491 107.05C0.631185 107.116 1.03988 107.116 1.44057 107.05C2.93486 107.074 4.39185 106.578 5.56699 105.645C6.74212 104.713 7.56388 103.4 7.89433 101.929C8.12482 100.707 8.5858 99.0772 8.87391 98.4953C9.16203 97.9133 8.87391 95.7602 9.16203 95.4111C10.6602 93.5489 12.2737 97.8552 12.677 98.6698C15.0972 104.024 17.2292 112.985 23.7982 112.811C30.3672 112.636 31.2892 103.558 30.3672 98.728C29.7723 94.4226 30.4962 90.0364 32.4417 86.1585C35.6685 79.0591 38.0311 71.8433 41.4308 64.9184C42.5072 61.6204 44.5091 58.7092 47.1931 56.5387C49.4021 54.6928 51.9756 53.3438 54.7417 52.5816C56.3458 52.1618 58.0466 52.3481 59.5244 53.1054C61.3 54.6646 62.6325 56.6731 63.3851 58.9246C65.0451 63.8166 66.0904 68.8996 66.4967 74.0546C66.9577 78.1862 66.0934 84.18 69.3203 87.3806C71.6765 89.3516 74.4293 90.7813 77.3875 91.5704C79.1755 92.1942 81.0962 92.3234 82.9504 91.9449C84.8046 91.5663 86.5248 90.6936 87.9324 89.4173C89.9146 87.9115 91.7306 86.1946 93.349 84.2964C94.5014 82.8998 95.5963 81.0958 96.864 79.8156C97.3404 79.2965 97.7651 78.7313 98.1317 78.128C98.5995 77.3048 99.2757 76.6219 100.091 76.1495C102.822 74.8932 105.909 74.6661 108.792 75.5094C110.269 75.7773 111.664 76.3905 112.864 77.2999C114.065 78.2093 115.038 79.3896 115.707 80.7467C117.159 83.7489 118.937 86.5789 121.008 89.1845C123.291 91.7997 124.613 95.1283 124.753 98.6117C124.67 100.676 124.16 102.7 123.257 104.553C122.354 106.407 121.078 108.05 119.51 109.377C116.473 112.679 113.114 115.662 109.483 118.281C108.187 119.066 107.069 120.117 106.199 121.365C105.327 122.975 104.152 124.398 102.741 125.555C100.807 126.919 98.5036 127.651 96.1437 127.651C93.7838 127.651 91.4808 126.919 89.5459 125.555C85.0458 122.557 80.1854 120.152 75.0825 118.397C72.2975 117.828 69.4074 118.117 66.7873 119.228C64.1671 120.338 61.9378 122.218 60.3887 124.624C59.032 127.794 58.6896 131.314 59.4091 134.691C60.2717 137.616 62.2376 140.082 64.8833 141.557C68.9211 143.896 73.2954 145.585 77.8484 146.562C79.9343 146.986 82.0595 147.181 84.1869 147.144C86.319 147.086 88.2205 147.784 90.2373 147.784C94.0866 147.974 97.9451 147.799 101.762 147.26C105.922 147.265 110.065 146.737 114.093 145.689C118.155 143.615 121.611 140.506 124.12 136.669C127.116 132.77 128.557 128.173 131.207 124.1C132.307 122.079 133.539 120.135 134.895 118.281C136.451 116.535 138.237 114.905 139.908 113.102C142.851 110.749 145.316 107.844 147.169 104.547C148.34 101.955 148.492 99.0094 147.593 96.3081C146.694 93.6068 144.812 91.3515 142.328 89.9992C135.529 86.3913 126.77 83.4817 123.198 76.0331C122.472 74.3817 121.968 72.64 121.699 70.854C121.235 69.4099 121.077 67.8829 121.238 66.3732C121.884 64.055 123.17 61.9703 124.945 60.3628C126.721 58.7553 128.913 57.6913 131.265 57.2952C136.243 55.6527 141.418 54.6936 146.65 54.4438C149.971 54.7376 153.173 55.8355 155.985 57.6444C160.537 60.263 157.368 66.315 160.537 69.9229C163.195 71.7285 166.323 72.7003 169.526 72.7161C171.469 72.6123 173.415 72.8285 175.289 73.3563C177.133 74.2873 177.651 76.0331 178.804 77.5461C180.882 80.0297 183.48 82.0172 186.41 83.3653C188.052 84.1729 189.49 85.3469 190.616 86.7986C191.826 88.7772 191.308 90.4647 191.826 92.6179C192.269 94.8923 192.007 97.2491 191.077 99.3682C190.707 101.445 189.923 103.425 188.772 105.187C187.552 106.934 186.183 108.569 184.681 110.076C183.241 111.414 181.109 112.403 180.302 114.207C178.688 117.582 181.858 120.725 183.874 122.936C185.704 124.965 187.361 127.145 188.83 129.454C190.904 132.421 193.152 135.215 195.169 138.241Z" fill="#00104A"/>
</g>
<g style="mix-blend-mode:multiply" opacity="0.2">
<path d="M96.23 58.9245C93.3654 54.291 91.6826 49.0127 91.332 43.5617C91.332 40.303 92.715 36.6369 96.23 35.8804C99.1786 35.6852 102.11 36.4611 104.585 38.0917C105.899 38.7554 107.104 39.619 108.158 40.6521C109.124 41.913 109.776 43.3898 110.059 44.9584C111.27 48.799 113.459 56.5968 108.792 58.8081C106.841 59.7801 104.699 60.2953 102.524 60.3155C100.349 60.3356 98.1977 59.8602 96.23 58.9245V58.9245Z" fill="#00104A"/>
</g>
<g style="mix-blend-mode:multiply" opacity="0.2">
<path d="M83.0358 37.3937C84.7081 38.2011 86.4981 38.7317 88.3371 38.965C88.3371 38.1503 88.8558 38.0339 89.0862 37.3937C89.2303 36.8011 89.2303 36.1821 89.0862 35.5895C88.945 35.2182 88.7021 34.8951 88.3857 34.658C88.0694 34.421 87.6928 34.2798 87.2999 34.251C86.7237 34.251 86.0899 34.251 85.5136 34.251C84.9374 34.251 85.1679 33.7854 84.7069 33.7854C84.2459 33.7854 82.8054 35.8805 82.9206 36.8699L83.0358 37.3937Z" fill="#00104A"/>
</g>
<g style="mix-blend-mode:multiply" opacity="0.2">
<path d="M150.338 40.9431C152.816 39.721 158.175 36.1713 161.46 37.8589C163.917 39.399 166.083 41.3696 167.856 43.6781C168.698 44.5731 169.32 45.6559 169.67 46.8389C170.021 48.0218 170.09 49.2715 169.873 50.4866C169.334 51.5842 168.517 52.518 167.505 53.1927C166.493 53.8675 165.321 54.2589 164.11 54.3273C162.619 54.191 161.15 53.8785 159.731 53.3962C157.953 53.0274 156.202 52.5415 154.487 51.9414C153.081 51.2739 151.81 50.3462 150.742 49.2064C149.973 48.6575 149.276 48.0123 148.667 47.286C148.34 46.6686 148.168 45.9789 148.168 45.2784C148.168 44.5778 148.34 43.8881 148.667 43.2708C149.128 42.2233 150.396 39.5465 150.338 40.9431Z" fill="#00104A"/>
</g>
<g style="mix-blend-mode:multiply" opacity="0.2">
<path d="M104.125 152.439C105.047 156.513 105.22 164.602 111.213 164.485C114.267 164.485 115.534 162.565 115.073 159.655C114.972 158.045 114.442 156.492 113.54 155.16C112.637 153.829 111.395 152.768 109.945 152.09C109.087 151.725 108.168 151.528 107.237 151.508C106.142 151.508 105.105 153.254 104.125 153.778V152.439Z" fill="#00104A"/>
</g>
<defs>
<radialGradient id="paint0_radial_4674_8027" cx="0" cy="0" r="1" gradientUnits="userSpaceOnUse" gradientTransform="translate(137.949 52.4651) scale(131.15 132.445)">
<stop stop-color="#2BCCB7"/>
<stop offset="0.15" stop-color="#28BEB1"/>
<stop offset="0.44" stop-color="#2299A1"/>
<stop offset="0.82" stop-color="#175D88"/>
<stop offset="1" stop-color="#12407B"/>
</radialGradient>
<radialGradient id="paint1_radial_4674_8027" cx="0" cy="0" r="1" gradientUnits="userSpaceOnUse" gradientTransform="translate(133.888 56.4897) scale(127.34 129.871)">
<stop stop-color="#1E7699"/>
<stop offset="0.25" stop-color="#1A6E8B"/>
<stop offset="0.73" stop-color="#0E5766"/>
<stop offset="1" stop-color="#07494E"/>
</radialGradient>
<radialGradient id="paint2_radial_4674_8027" cx="0" cy="0" r="1" gradientUnits="userSpaceOnUse" gradientTransform="translate(129.852 65.3495) scale(121.242 123.689)">
<stop offset="0.28" stop-color="#0E4C62"/>
<stop offset="0.51" stop-color="#0D4761"/>
<stop offset="0.78" stop-color="#09395F"/>
<stop offset="1" stop-color="#04285D"/>
</radialGradient>
</defs>
</svg>
