<svg width="144" height="157" viewBox="0 0 144 157" fill="none" xmlns="http://www.w3.org/2000/svg">
<path d="M127.133 95.7331C136.449 65.1353 119.316 32.7427 88.8665 23.3822C58.4172 14.0216 26.1816 31.2378 16.8665 61.8356C7.5514 92.4334 24.6841 124.826 55.1335 134.187C85.5829 143.547 117.818 126.331 127.133 95.7331Z" fill="url(#paint0_radial_4674_8252)"/>
<path d="M119.17 90.6791C125.695 64.4981 109.864 37.9588 83.81 31.402C57.7559 24.8452 31.3454 40.7538 24.8204 66.9349C18.2954 93.1159 34.1269 119.655 60.1809 126.212C86.2349 132.769 112.645 116.86 119.17 90.6791Z" fill="url(#paint1_radial_4674_8252)"/>
<path d="M82.3683 119.161C83.4074 118.738 84.2531 117.943 84.741 116.929C85.2289 115.915 85.3241 114.754 85.0081 113.674C83.8337 109.871 78.8551 106.361 75.1111 105.605C71.1764 104.818 67.1513 106.502 63.8389 108.762C62.3132 109.77 60.7173 111.303 60.8277 113.159C60.9381 114.662 62.1627 115.822 63.4274 116.629C66.8101 118.777 70.9154 119.423 74.9003 119.836C77.4699 120.099 80.1098 120.26 82.3683 119.161Z" fill="url(#paint2_radial_4674_8252)"/>
<path d="M54.1525 118.94C54.5891 118.92 55.0131 118.786 55.3821 118.551C55.751 118.315 56.0521 117.987 56.2553 117.598C56.4584 117.209 56.5565 116.773 56.5398 116.334C56.5231 115.895 56.3921 115.468 56.16 115.096C55.6909 114.308 55.0698 113.622 54.3332 113.079C52.9179 111.741 51.2437 110.711 49.4148 110.053C49.0182 109.904 48.5956 109.837 48.1728 109.858C47.7499 109.879 47.3357 109.986 46.9556 110.174C46.4944 110.503 46.1638 110.985 46.0221 111.535C45.833 112.381 45.876 113.262 46.1465 114.084C46.417 114.907 46.9048 115.64 47.5578 116.206C48.8767 117.319 50.4323 118.113 52.1048 118.526C52.7566 118.788 53.4506 118.928 54.1525 118.94V118.94Z" fill="url(#paint3_radial_4674_8252)"/>
<path d="M46.3833 102.074C47.6179 104.586 51.924 108.046 54.9051 106.775C55.1732 106.671 55.4089 106.497 55.5877 106.271C55.7333 106.023 55.82 105.745 55.8409 105.458C55.8618 105.171 55.8163 104.883 55.7081 104.616C55.2643 103.425 54.4826 102.39 53.4597 101.641C52.0645 100.541 48.0796 96.95 46.3231 99.1692C46.0671 99.6124 45.9372 100.118 45.9479 100.63C45.9585 101.143 46.1091 101.642 46.3833 102.074V102.074Z" fill="url(#paint4_radial_4674_8252)"/>
<path d="M54.0832 48.4855C54.7356 45.7722 53.6616 42.3125 50.56 41.9292C47.1974 41.5056 43.8148 43.886 41.6567 46.1051C38.5752 49.2722 35.8751 53.3976 36.397 57.7853C36.4392 58.5564 36.661 59.3068 37.0446 59.976C37.4281 60.6453 37.9627 61.2146 38.6053 61.6383C39.2531 61.9565 39.9622 62.1287 40.6831 62.1426C42.4143 62.1479 44.1246 61.7627 45.6881 61.0156C47.2515 60.2684 48.6283 59.1784 49.7168 57.8256C51.8825 55.1003 53.3784 51.9004 54.0832 48.4855V48.4855Z" fill="url(#paint5_radial_4674_8252)"/>
<path d="M33.2837 72.4617C34.2875 70.4442 34.7893 66.5604 33.7254 64.4925C33.6135 64.3395 33.4723 64.2105 33.3101 64.1132C33.1479 64.0158 32.968 63.9522 32.7809 63.9258C32.5938 63.8995 32.4033 63.9111 32.2207 63.9599C32.0382 64.0087 31.8672 64.0938 31.7178 64.2101C31.1289 64.7286 30.7503 65.4467 30.6538 66.2276C30.1921 68.5578 29.0579 71.0595 31.4267 72.8248C31.6058 72.9911 31.8271 73.1046 32.0661 73.1526C32.3052 73.2007 32.5529 73.1815 32.7818 73.0972C33.007 72.9388 33.1814 72.718 33.2837 72.4617V72.4617Z" fill="url(#paint6_radial_4674_8252)"/>
<path d="M60.7774 41.1024C62.3232 40.6081 65.214 38.5402 64.2203 36.5428C63.9915 36.1896 63.6814 35.8971 63.3162 35.6899C62.951 35.4827 62.5415 35.3669 62.1224 35.3525C61.1233 35.1666 60.0975 35.1804 59.1037 35.3933C58.1099 35.6062 57.1676 36.014 56.3308 36.5933C55.4891 37.1095 54.8535 37.9052 54.5341 38.8428C54.444 39.153 54.4393 39.482 54.5206 39.7947C54.6019 40.1073 54.7662 40.392 54.9958 40.6182C55.239 40.8009 55.5151 40.9345 55.8088 41.0116C57.4171 41.5504 59.1508 41.5821 60.7774 41.1024V41.1024Z" fill="url(#paint7_radial_4674_8252)"/>
<path style="mix-blend-mode:multiply" opacity="0.45" d="M61.4393 31.0859C54.6823 32.5931 48.3233 35.5323 42.7873 39.707C37.2513 43.8817 32.6659 49.1958 29.3376 55.2941C26.0092 61.3923 24.0147 68.1343 23.4872 75.0693C22.9596 82.0042 23.9114 88.9725 26.2787 95.5082C28.646 102.044 32.3744 107.997 37.2147 112.968C42.055 117.94 47.8956 121.816 54.3462 124.338C60.7967 126.859 67.7086 127.968 74.6199 127.59C81.5311 127.213 88.2825 125.357 94.4227 122.147C89.1932 122.953 83.4316 120.755 78.7943 117.779C75.6525 115.762 72.5409 113.159 71.6475 109.538C71.224 107.304 71.3202 105.002 71.9286 102.811C72.8062 99.5928 73.4767 96.3214 73.9361 93.0168C74.2272 89.6984 73.7253 86.1479 71.7077 83.5053C69.3088 80.3583 65.2937 79.0471 61.8007 77.1912C56.9023 74.5788 52.6464 70.4232 50.7594 65.1782C49.5026 61.2594 49.1997 57.0948 49.8761 53.0341C51.0103 44.6422 55.0554 36.3107 61.4393 31.0859Z" fill="url(#paint8_radial_4674_8252)"/>
<path style="mix-blend-mode:screen" opacity="0.25" d="M84.5069 33.8696C84.5069 33.8696 96.9133 34.4143 110.052 52.459C123.192 70.5037 119.086 92.3208 112.19 93.5513C105.295 94.7819 100.738 87.1968 93.892 71.7948C87.0464 56.3927 37.7419 96.6176 44.979 106.492C52.2161 116.367 62.4744 120.18 55.2675 121.41C48.0605 122.641 24.8738 97.9995 26.9315 79.4605C28.9892 60.9216 32.4722 93.4505 38.7457 96.6075C45.0191 99.7646 53.5711 73.0859 77.4906 64.7343C101.41 56.3827 67.6438 35.1506 84.5069 33.8696Z" fill="url(#paint9_radial_4674_8252)"/>
<path style="mix-blend-mode:screen" opacity="0.25" d="M107.552 49.897C101.478 41.7824 92.4581 36.4094 82.4584 34.9488C65.3946 32.2961 62.3833 46.629 69.4999 52.8523C76.6166 59.0756 85.3794 62.5454 91.0606 78.3307C96.7419 94.116 94.2626 104.666 106.649 101.156C119.035 97.6462 124.235 68.4561 107.552 49.897Z" fill="url(#paint10_radial_4674_8252)"/>
<path style="mix-blend-mode:screen" opacity="0.45" d="M100.064 46.74C95.1153 42.7055 89.5344 41.4245 87.5971 43.8351C85.6599 46.2458 88.0187 51.4605 93.0375 55.4749C98.0563 59.4894 103.567 60.7905 105.504 58.3798C107.441 55.9692 104.962 50.7545 100.064 46.74Z" fill="url(#paint11_radial_4674_8252)"/>
<path style="mix-blend-mode:screen" d="M112.611 62.334C110.985 59.9234 108.707 58.6122 107.592 59.409C106.478 60.2058 106.81 62.8081 108.436 65.2187C110.062 67.6293 112.34 68.9506 113.454 68.1538C114.569 67.357 114.247 64.7547 112.611 62.334Z" fill="url(#paint12_radial_4674_8252)"/>
<path style="mix-blend-mode:screen" d="M118.563 154.776C126.171 149.733 122.969 130.317 111.918 105.484C110.721 107.338 109.335 109.062 107.783 110.628C113.173 125.657 113.996 136.752 108.947 140.1C99.6422 146.263 73.8858 123.458 51.4218 89.1638C28.9577 54.8698 18.2978 22.0787 27.5926 15.9159C33.1835 12.2142 44.7167 18.9418 57.896 32.3972C59.9496 31.7587 62.0611 31.3262 64.1996 31.1061C44.3854 8.36114 26.107 -4.13601 17.9766 1.24008C6.47359 8.85536 19.6529 49.3928 47.4368 91.7963C75.2208 134.2 107.09 162.391 118.563 154.776Z" fill="url(#paint13_radial_4674_8252)"/>
<path style="mix-blend-mode:multiply" opacity="0.45" d="M97.0523 142.501C115.833 155.452 113.403 137.458 116.595 131.345C117.529 129.56 119.215 130.084 121.122 131.718C118.884 122.706 115.806 113.926 111.928 105.494C110.731 107.348 109.345 109.072 107.792 110.638C113.173 125.657 113.996 136.752 108.947 140.1C99.6419 146.263 73.8856 123.458 51.4215 89.1637C28.9575 54.8697 18.2976 22.0785 27.5924 15.9157C33.1833 12.214 44.7165 18.9417 57.8958 32.397C59.9494 31.7585 62.0609 31.326 64.1994 31.1059C60.8468 27.2529 57.5344 23.7025 54.3124 20.4849C55.6574 22.9964 56.0489 24.7716 54.6637 24.9834C49.2334 25.8004 26.408 4.26583 23.7781 17.4488C21.1483 30.6319 25.6652 48.9388 38.3527 71.1896C51.0401 93.4403 78.262 129.56 97.0523 142.501Z" fill="url(#paint14_radial_4674_8252)"/>
<path style="mix-blend-mode:screen" d="M42.3481 11.841C42.3481 11.841 24.6519 -3.682 18.3884 2.53124C12.125 8.74447 16.7021 28.2819 21.0785 32.4879C25.4549 36.694 19.071 15.6234 23.9693 10.8828C28.8676 6.14218 49.6353 18.9217 42.3481 11.841Z" fill="url(#paint15_radial_4674_8252)"/>
<path style="mix-blend-mode:screen" d="M119.136 152.537C121.314 149.239 122.348 142.017 119.899 136.742C117.309 131.144 119.287 145.88 113.425 149.077C107.563 152.275 96.3608 141.422 98.7699 146.889C101.179 152.355 115.432 158.175 119.136 152.537Z" fill="url(#paint16_radial_4674_8252)"/>
<defs>
<radialGradient id="paint0_radial_4674_8252" cx="0" cy="0" r="1" gradientUnits="userSpaceOnUse" gradientTransform="translate(70.5854 79.1497) rotate(91.2539) scale(58.8948 58.6094)">
<stop stop-color="#FBE877"/>
<stop offset="0.07" stop-color="#F6E87C"/>
<stop offset="0.16" stop-color="#E9E78A"/>
<stop offset="0.25" stop-color="#D4E5A2"/>
<stop offset="0.35" stop-color="#B5E4C3"/>
<stop offset="0.45" stop-color="#8EE1EE"/>
<stop offset="0.62" stop-color="#5E8DEC"/>
<stop offset="0.66" stop-color="#5E8CEB" stop-opacity="0.98"/>
<stop offset="0.71" stop-color="#6088E7" stop-opacity="0.93"/>
<stop offset="0.77" stop-color="#6182E2" stop-opacity="0.84"/>
<stop offset="0.82" stop-color="#6479DA" stop-opacity="0.72"/>
<stop offset="0.87" stop-color="#686ED0" stop-opacity="0.56"/>
<stop offset="0.92" stop-color="#6C60C3" stop-opacity="0.36"/>
<stop offset="0.97" stop-color="#7150B5" stop-opacity="0.14"/>
<stop offset="1" stop-color="#7446AC" stop-opacity="0"/>
</radialGradient>
<radialGradient id="paint1_radial_4674_8252" cx="0" cy="0" r="1" gradientUnits="userSpaceOnUse" gradientTransform="translate(96.2483 61.1522) rotate(91.2539) scale(91.0908 90.6494)">
<stop stop-color="#FBE877"/>
<stop offset="0.07" stop-color="#F6E87C"/>
<stop offset="0.16" stop-color="#E9E78A"/>
<stop offset="0.25" stop-color="#D4E5A2"/>
<stop offset="0.35" stop-color="#B5E4C3"/>
<stop offset="0.45" stop-color="#8EE1EE"/>
<stop offset="0.62" stop-color="#5E8DEC"/>
<stop offset="0.63" stop-color="#5F89E8"/>
<stop offset="0.74" stop-color="#6B64C7"/>
<stop offset="0.84" stop-color="#714EB3"/>
<stop offset="0.9" stop-color="#7446AC"/>
</radialGradient>
<radialGradient id="paint2_radial_4674_8252" cx="0" cy="0" r="1" gradientUnits="userSpaceOnUse" gradientTransform="translate(-6682.09 1256.45) rotate(91.1402) scale(2122.77 1261.26)">
<stop stop-color="#FBE877"/>
<stop offset="0.07" stop-color="#F6E87C"/>
<stop offset="0.16" stop-color="#E9E78A"/>
<stop offset="0.25" stop-color="#D4E5A2"/>
<stop offset="0.35" stop-color="#B5E4C3"/>
<stop offset="0.45" stop-color="#8EE1EE"/>
<stop offset="0.62" stop-color="#5E8DEC"/>
<stop offset="0.63" stop-color="#5F89E8"/>
<stop offset="0.74" stop-color="#6B64C7"/>
<stop offset="0.84" stop-color="#714EB3"/>
<stop offset="0.9" stop-color="#7446AC"/>
</radialGradient>
<radialGradient id="paint3_radial_4674_8252" cx="0" cy="0" r="1" gradientUnits="userSpaceOnUse" gradientTransform="translate(-4120.44 535.027) rotate(91.1401) scale(926.532 783.669)">
<stop stop-color="#FBE877"/>
<stop offset="0.07" stop-color="#F6E87C"/>
<stop offset="0.16" stop-color="#E9E78A"/>
<stop offset="0.25" stop-color="#D4E5A2"/>
<stop offset="0.35" stop-color="#B5E4C3"/>
<stop offset="0.45" stop-color="#8EE1EE"/>
<stop offset="0.62" stop-color="#5E8DEC"/>
<stop offset="0.63" stop-color="#5F89E8"/>
<stop offset="0.74" stop-color="#6B64C7"/>
<stop offset="0.84" stop-color="#714EB3"/>
<stop offset="0.9" stop-color="#7446AC"/>
</radialGradient>
<radialGradient id="paint4_radial_4674_8252" cx="0" cy="0" r="1" gradientUnits="userSpaceOnUse" gradientTransform="translate(-3879.27 499.251) rotate(91.1401) scale(862.348 740.787)">
<stop stop-color="#FBE877"/>
<stop offset="0.07" stop-color="#F6E87C"/>
<stop offset="0.16" stop-color="#E9E78A"/>
<stop offset="0.25" stop-color="#D4E5A2"/>
<stop offset="0.35" stop-color="#B5E4C3"/>
<stop offset="0.45" stop-color="#8EE1EE"/>
<stop offset="0.62" stop-color="#5E8DEC"/>
<stop offset="0.63" stop-color="#5F89E8"/>
<stop offset="0.74" stop-color="#6B64C7"/>
<stop offset="0.84" stop-color="#714EB3"/>
<stop offset="0.9" stop-color="#7446AC"/>
</radialGradient>
<radialGradient id="paint5_radial_4674_8252" cx="0" cy="0" r="1" gradientUnits="userSpaceOnUse" gradientTransform="translate(-9211.11 825.87) rotate(91.1402) scale(1562.24 1748)">
<stop stop-color="#FBE877"/>
<stop offset="0.07" stop-color="#F6E87C"/>
<stop offset="0.16" stop-color="#E9E78A"/>
<stop offset="0.25" stop-color="#D4E5A2"/>
<stop offset="0.35" stop-color="#B5E4C3"/>
<stop offset="0.45" stop-color="#8EE1EE"/>
<stop offset="0.62" stop-color="#5E8DEC"/>
<stop offset="0.63" stop-color="#5F89E8"/>
<stop offset="0.74" stop-color="#6B64C7"/>
<stop offset="0.84" stop-color="#714EB3"/>
<stop offset="0.9" stop-color="#7446AC"/>
</radialGradient>
<radialGradient id="paint6_radial_4674_8252" cx="0" cy="0" r="1" gradientUnits="userSpaceOnUse" gradientTransform="translate(-4151.09 171.16) rotate(91.1401) scale(378.461 799.305)">
<stop stop-color="#FBE877"/>
<stop offset="0.07" stop-color="#F6E87C"/>
<stop offset="0.16" stop-color="#E9E78A"/>
<stop offset="0.25" stop-color="#D4E5A2"/>
<stop offset="0.35" stop-color="#B5E4C3"/>
<stop offset="0.45" stop-color="#8EE1EE"/>
<stop offset="0.62" stop-color="#5E8DEC"/>
<stop offset="0.63" stop-color="#5F89E8"/>
<stop offset="0.74" stop-color="#6B64C7"/>
<stop offset="0.84" stop-color="#714EB3"/>
<stop offset="0.9" stop-color="#7446AC"/>
</radialGradient>
<radialGradient id="paint7_radial_4674_8252" cx="0" cy="0" r="1" gradientUnits="userSpaceOnUse" gradientTransform="translate(-2724.63 534.458) rotate(91.1401) scale(867.765 536.322)">
<stop stop-color="#FBE877"/>
<stop offset="0.07" stop-color="#F6E87C"/>
<stop offset="0.16" stop-color="#E9E78A"/>
<stop offset="0.25" stop-color="#D4E5A2"/>
<stop offset="0.35" stop-color="#B5E4C3"/>
<stop offset="0.45" stop-color="#8EE1EE"/>
<stop offset="0.62" stop-color="#5E8DEC"/>
<stop offset="0.63" stop-color="#5F89E8"/>
<stop offset="0.74" stop-color="#6B64C7"/>
<stop offset="0.84" stop-color="#714EB3"/>
<stop offset="0.9" stop-color="#7446AC"/>
</radialGradient>
<radialGradient id="paint8_radial_4674_8252" cx="0" cy="0" r="1" gradientUnits="userSpaceOnUse" gradientTransform="translate(-49775.2 3570.01) rotate(91.1402) scale(3016.09 4058.52)">
<stop stop-color="#FBE877"/>
<stop offset="0.07" stop-color="#F6E87C"/>
<stop offset="0.16" stop-color="#E9E78A"/>
<stop offset="0.25" stop-color="#D4E5A2"/>
<stop offset="0.35" stop-color="#B5E4C3"/>
<stop offset="0.45" stop-color="#8EE1EE"/>
<stop offset="0.62" stop-color="#5E8DEC"/>
<stop offset="0.63" stop-color="#5F89E8"/>
<stop offset="0.74" stop-color="#6B64C7"/>
<stop offset="0.84" stop-color="#714EB3"/>
<stop offset="0.9" stop-color="#7446AC"/>
</radialGradient>
<radialGradient id="paint9_radial_4674_8252" cx="0" cy="0" r="1" gradientUnits="userSpaceOnUse" gradientTransform="translate(-43998.1 4859.49) rotate(91.1402) scale(4129.28 3899.46)">
<stop stop-color="#FBE877"/>
<stop offset="0.07" stop-color="#F6E87C"/>
<stop offset="0.16" stop-color="#E9E78A"/>
<stop offset="0.25" stop-color="#D4E5A2"/>
<stop offset="0.35" stop-color="#B5E4C3"/>
<stop offset="0.45" stop-color="#8EE1EE"/>
<stop offset="0.62" stop-color="#5E8DEC"/>
<stop offset="0.63" stop-color="#5F89E8"/>
<stop offset="0.74" stop-color="#6B64C7"/>
<stop offset="0.84" stop-color="#714EB3"/>
<stop offset="0.9" stop-color="#7446AC"/>
</radialGradient>
<radialGradient id="paint10_radial_4674_8252" cx="0" cy="0" r="1" gradientUnits="userSpaceOnUse" gradientTransform="translate(-31460.1 1702.53) rotate(91.1402) scale(3424.84 4365.54)">
<stop stop-color="#FBE877"/>
<stop offset="0.07" stop-color="#F6E87C"/>
<stop offset="0.16" stop-color="#E9E78A"/>
<stop offset="0.25" stop-color="#D4E5A2"/>
<stop offset="0.35" stop-color="#B5E4C3"/>
<stop offset="0.45" stop-color="#8EE1EE"/>
<stop offset="0.62" stop-color="#5E8DEC"/>
<stop offset="0.63" stop-color="#5F89E8"/>
<stop offset="0.74" stop-color="#6B64C7"/>
<stop offset="0.84" stop-color="#714EB3"/>
<stop offset="0.9" stop-color="#7446AC"/>
</radialGradient>
<radialGradient id="paint11_radial_4674_8252" cx="0" cy="0" r="1" gradientUnits="userSpaceOnUse" gradientTransform="translate(-8584.85 -1958.32) rotate(128.792) scale(518.588 454.687)">
<stop stop-color="#FBE877"/>
<stop offset="0.07" stop-color="#F6E87C"/>
<stop offset="0.16" stop-color="#E9E78A"/>
<stop offset="0.25" stop-color="#D4E5A2"/>
<stop offset="0.35" stop-color="#B5E4C3"/>
<stop offset="0.45" stop-color="#8EE1EE"/>
<stop offset="0.62" stop-color="#5E8DEC"/>
<stop offset="0.63" stop-color="#5F89E8"/>
<stop offset="0.74" stop-color="#6B64C7"/>
<stop offset="0.84" stop-color="#714EB3"/>
<stop offset="0.9" stop-color="#7446AC"/>
</radialGradient>
<radialGradient id="paint12_radial_4674_8252" cx="0" cy="0" r="1" gradientUnits="userSpaceOnUse" gradientTransform="translate(-3598.66 -2169.49) rotate(145.864) scale(88.0138 112.702)">
<stop stop-color="#FBE877"/>
<stop offset="0.07" stop-color="#F6E87C"/>
<stop offset="0.16" stop-color="#E9E78A"/>
<stop offset="0.25" stop-color="#D4E5A2"/>
<stop offset="0.35" stop-color="#B5E4C3"/>
<stop offset="0.45" stop-color="#8EE1EE"/>
<stop offset="0.62" stop-color="#5E8DEC"/>
<stop offset="0.63" stop-color="#5F89E8"/>
<stop offset="0.74" stop-color="#6B64C7"/>
<stop offset="0.84" stop-color="#714EB3"/>
<stop offset="0.9" stop-color="#7446AC"/>
</radialGradient>
<radialGradient id="paint13_radial_4674_8252" cx="0" cy="0" r="1" gradientUnits="userSpaceOnUse" gradientTransform="translate(81.9869 32.3968) rotate(91.1402) scale(271.48 270.165)">
<stop stop-color="#F20074"/>
<stop offset="0.1" stop-color="#EF0175" stop-opacity="0.98"/>
<stop offset="0.21" stop-color="#E80678" stop-opacity="0.92"/>
<stop offset="0.33" stop-color="#DC0C7E" stop-opacity="0.82"/>
<stop offset="0.46" stop-color="#CA1686" stop-opacity="0.68"/>
<stop offset="0.6" stop-color="#B42290" stop-opacity="0.51"/>
<stop offset="0.74" stop-color="#99329C" stop-opacity="0.29"/>
<stop offset="0.88" stop-color="#7943AA" stop-opacity="0.04"/>
<stop offset="0.9" stop-color="#7446AC" stop-opacity="0"/>
</radialGradient>
<radialGradient id="paint14_radial_4674_8252" cx="0" cy="0" r="1" gradientUnits="userSpaceOnUse" gradientTransform="translate(2440.33 66237.3) scale(22901.8 31274.7)">
<stop stop-color="#F20074"/>
<stop offset="0.1" stop-color="#EF0175" stop-opacity="0.98"/>
<stop offset="0.21" stop-color="#E80678" stop-opacity="0.92"/>
<stop offset="0.33" stop-color="#DC0C7E" stop-opacity="0.82"/>
<stop offset="0.46" stop-color="#CA1686" stop-opacity="0.68"/>
<stop offset="0.6" stop-color="#B42290" stop-opacity="0.51"/>
<stop offset="0.74" stop-color="#99329C" stop-opacity="0.29"/>
<stop offset="0.88" stop-color="#7943AA" stop-opacity="0.04"/>
<stop offset="0.9" stop-color="#7446AC" stop-opacity="0"/>
</radialGradient>
<radialGradient id="paint15_radial_4674_8252" cx="0" cy="0" r="1" gradientUnits="userSpaceOnUse" gradientTransform="translate(-173.176 17473.2) scale(1691.06 1893.31)">
<stop stop-color="#F20074"/>
<stop offset="0.1" stop-color="#EF0175" stop-opacity="0.98"/>
<stop offset="0.21" stop-color="#E80678" stop-opacity="0.92"/>
<stop offset="0.33" stop-color="#DC0C7E" stop-opacity="0.82"/>
<stop offset="0.46" stop-color="#CA1686" stop-opacity="0.68"/>
<stop offset="0.6" stop-color="#B42290" stop-opacity="0.51"/>
<stop offset="0.74" stop-color="#99329C" stop-opacity="0.29"/>
<stop offset="0.88" stop-color="#7943AA" stop-opacity="0.04"/>
<stop offset="0.9" stop-color="#7446AC" stop-opacity="0"/>
</radialGradient>
<radialGradient id="paint16_radial_4674_8252" cx="0" cy="0" r="1" gradientUnits="userSpaceOnUse" gradientTransform="translate(2891.93 9120.31) scale(914.538 773.589)">
<stop stop-color="#F20074"/>
<stop offset="0.1" stop-color="#EF0175" stop-opacity="0.98"/>
<stop offset="0.21" stop-color="#E80678" stop-opacity="0.92"/>
<stop offset="0.33" stop-color="#DC0C7E" stop-opacity="0.82"/>
<stop offset="0.46" stop-color="#CA1686" stop-opacity="0.68"/>
<stop offset="0.6" stop-color="#B42290" stop-opacity="0.51"/>
<stop offset="0.74" stop-color="#99329C" stop-opacity="0.29"/>
<stop offset="0.88" stop-color="#7943AA" stop-opacity="0.04"/>
<stop offset="0.9" stop-color="#7446AC" stop-opacity="0"/>
</radialGradient>
</defs>
</svg>
