<svg width="160" height="157" viewBox="0 0 160 157" fill="none" xmlns="http://www.w3.org/2000/svg">
<path style="mix-blend-mode:screen" d="M113.185 124.285C139.041 106.759 145.627 71.8332 127.897 46.2758C110.167 20.7183 74.8345 14.2073 48.9792 31.7331C23.1239 49.2589 16.5371 84.1847 34.2671 109.742C51.9972 135.3 87.33 141.811 113.185 124.285Z" fill="url(#paint0_radial_4674_8270)"/>
<path d="M117.481 105.971C133.096 86.094 129.453 57.4685 109.345 42.0339C89.2364 26.5993 60.2774 30.2003 44.663 50.077C29.0486 69.9537 32.6916 98.5791 52.7998 114.014C72.908 129.448 101.867 125.847 117.481 105.971Z" fill="url(#paint1_radial_4674_8270)"/>
<path style="mix-blend-mode:screen" d="M120.274 74.4472C120.041 73.4185 119.43 72.5122 118.559 71.9041C117.687 71.2961 116.619 71.0296 115.56 71.1564C113.539 71.6967 111.672 72.6941 110.108 74.0697C108.543 75.4454 107.323 77.1616 106.545 79.0831C106.009 80.8902 105.841 82.7841 106.05 84.6558C106.258 86.5275 106.839 88.3399 107.76 89.9885C108.489 91.5498 109.631 93.2553 111.381 93.3994C112.088 93.3792 112.782 93.1999 113.41 92.8753C114.037 92.5507 114.581 92.0892 115.001 91.5257C117.39 88.5624 119.054 85.0932 119.861 81.3891C120.625 79.1534 120.768 76.756 120.274 74.4472V74.4472Z" fill="url(#paint2_radial_4674_8270)"/>
<path style="mix-blend-mode:screen" d="M115.73 100.557C115.756 100.157 115.681 99.7561 115.51 99.3921C115.339 99.0281 115.078 98.7121 114.752 98.4733C114.426 98.2344 114.044 98.0802 113.642 98.0246C113.24 97.969 112.83 98.0139 112.45 98.1552C111.664 98.4853 110.947 98.9578 110.336 99.5484C108.883 100.665 107.676 102.062 106.788 103.656C106.567 104.012 106.429 104.412 106.382 104.827C106.336 105.242 106.383 105.662 106.521 106.057C106.769 106.534 107.171 106.914 107.663 107.138C108.419 107.439 109.243 107.53 110.048 107.403C110.853 107.277 111.607 106.936 112.231 106.418C113.467 105.356 114.446 104.035 115.099 102.551C115.433 101.931 115.648 101.255 115.73 100.557V100.557Z" fill="url(#paint3_radial_4674_8270)"/>
<path style="mix-blend-mode:screen" d="M98.8405 105.194C101.271 104.449 105.231 100.99 104.527 97.9873C104.47 97.7201 104.345 97.4718 104.162 97.2667C103.952 97.095 103.704 96.9751 103.438 96.9166C103.172 96.8581 102.895 96.8628 102.631 96.9303C101.454 97.1455 100.371 97.7065 99.5209 98.5398C98.2816 99.6689 94.3207 102.816 96.1189 104.786C96.4911 105.094 96.9419 105.295 97.4218 105.367C97.9018 105.439 98.3926 105.379 98.8405 105.194Z" fill="url(#paint4_radial_4674_8270)"/>
<path style="mix-blend-mode:screen" d="M50.1196 90.0122C49.5356 89.7121 48.896 89.5324 48.2396 89.484C47.5831 89.4356 46.9236 89.5195 46.301 89.7307C45.6784 89.9418 45.1056 90.2758 44.6175 90.7123C44.1294 91.1488 43.7361 91.6788 43.4614 92.2701C43.1966 93.8333 43.2767 95.4345 43.6961 96.9643C44.1155 98.4941 44.8644 99.9162 45.8914 101.133C48.3214 104.472 51.7964 107.595 55.976 107.763C56.6993 107.848 57.4328 107.76 58.114 107.505C58.7952 107.25 59.4039 106.835 59.8883 106.298C60.2915 105.748 60.5655 105.116 60.6902 104.448C60.9598 102.846 60.8618 101.205 60.4033 99.6463C59.9448 98.0872 59.1377 96.6499 58.0415 95.4407C55.8704 93.0396 53.156 91.1796 50.1196 90.0122V90.0122Z" fill="url(#paint5_radial_4674_8270)"/>
<path style="mix-blend-mode:screen" d="M69.2438 112.88C67.1098 111.445 64.5025 110.87 61.9538 111.27C61.7878 111.349 61.6399 111.46 61.5195 111.598C61.3991 111.735 61.3086 111.896 61.2539 112.069C61.1992 112.243 61.1813 112.426 61.2013 112.607C61.2214 112.787 61.2791 112.962 61.3706 113.12C61.7757 113.747 62.3974 114.208 63.1202 114.417C65.21 115.185 67.3727 116.626 69.3653 114.705C69.5515 114.564 69.6952 114.375 69.7809 114.159C69.8665 113.943 69.8909 113.709 69.8513 113.48C69.7212 113.219 69.5077 113.008 69.2438 112.88V112.88Z" fill="url(#paint6_radial_4674_8270)"/>
<path style="mix-blend-mode:screen" d="M44.1663 82.7107C43.9476 81.1975 42.4653 78.2191 40.4484 78.8196C40.0795 78.9758 39.7555 79.2198 39.5053 79.53C39.2552 79.8402 39.0866 80.2067 39.0147 80.597C38.6894 81.4949 38.5477 82.4476 38.5977 83.4001C38.6478 84.3525 38.8886 85.2857 39.3063 86.1454C39.6604 86.9994 40.305 87.7046 41.1288 88.1391C41.4032 88.2745 41.7107 88.3306 42.016 88.3008C42.3212 88.2711 42.6117 88.1567 42.8541 87.9709C43.0641 87.7753 43.2297 87.5379 43.3401 87.2743C44.0934 85.8766 44.3825 84.2799 44.1663 82.7107V82.7107Z" fill="url(#paint7_radial_4674_8270)"/>
<path style="mix-blend-mode:multiply" opacity="0.5" d="M35.0547 80.5725C35.8024 91.6119 40.5816 102.007 48.5033 109.824C56.425 117.64 66.9495 122.346 78.1189 123.066C89.2882 123.786 100.342 120.47 109.223 113.736C118.104 107.002 124.208 97.3076 126.399 86.4575C127.831 78.9339 127.312 71.1745 124.892 63.9023C124.428 69.1021 122.142 73.9785 118.428 77.6901C116.306 80.4492 113.223 82.332 109.777 82.9745C107.633 83.0194 105.507 82.5842 103.557 81.7014C100.7 80.4021 97.762 79.2869 94.76 78.3626C91.7172 77.441 88.4372 77.6635 85.5503 78.9872C82.2455 80.7407 80.423 84.2476 78.2603 87.2021C75.1519 91.4625 70.5686 94.4458 65.3812 95.5852C61.5295 96.1544 57.5958 95.8002 53.9116 94.5523C46.074 92.3964 39.343 87.4063 35.0547 80.5725V80.5725Z" fill="url(#paint8_radial_4674_8270)"/>
<path style="mix-blend-mode:screen" opacity="0.25" d="M41.1531 59.651C41.1531 59.651 43.5831 48.2654 62.3914 38.8495C81.1997 29.4336 100.883 36.4475 100.98 43.053C101.077 49.6586 93.3011 52.6611 77.9191 56.6965C62.5372 60.7318 92.4992 112.375 102.73 107.139C112.96 101.902 118.16 93.0389 118.209 99.9327C118.257 106.826 91.7459 124.505 74.8087 119.821C57.8716 115.138 88.6841 116.795 92.5964 111.462C96.5087 106.13 72.9619 94.2159 68.8552 70.8444C64.7485 47.4728 39.768 75.4562 41.1531 59.651Z" fill="url(#paint9_radial_4674_8270)"/>
<path style="mix-blend-mode:screen" opacity="0.25" d="M59.622 40.8189C51.1425 45.2057 44.7585 52.7249 41.8586 61.7406C36.8771 77.0416 49.659 82.0618 56.5602 76.369C63.4614 70.6762 68.0055 63.1578 83.5819 60.2754C99.1583 57.393 108.587 61.2842 107.226 49.2981C105.865 37.3119 79.4509 28.1362 59.622 40.8189Z" fill="url(#paint10_radial_4674_8270)"/>
<path style="mix-blend-mode:screen" opacity="0.45" d="M55.5396 47.2567C51.0441 51.2201 48.9786 56.1924 50.9226 58.3542C52.8666 60.5161 58.2126 59.0508 62.5866 55.0634C66.9607 51.076 69.1477 46.1278 67.2037 43.9899C65.2597 41.8521 60.0351 43.2212 55.5396 47.2567Z" fill="url(#paint11_radial_4674_8270)"/>
<path style="mix-blend-mode:screen" d="M71.99 37.9611C69.56 39.1142 67.9076 41.012 68.4665 42.2131C69.0254 43.4143 71.5283 43.4383 74.0312 42.2131C76.5341 40.988 78.0893 39.1622 77.5304 37.9611C76.9715 36.7599 74.4929 36.808 71.99 37.9611Z" fill="url(#paint12_radial_4674_8270)"/>
<path d="M158.96 46.3917C155.461 38.5851 136.871 38.6331 112.061 45.0945C113.6 46.4892 114.992 48.0344 116.216 49.7065C130.991 46.9922 141.488 47.9049 143.846 53.0693C148.147 62.6774 122.947 82.9985 87.5908 98.7077C52.2342 114.417 20.0365 119.221 15.7354 109.685C13.1353 103.968 21.2029 94.312 35.7101 84.1515C35.432 82.1542 35.3587 80.1342 35.4914 78.1224C11.1913 93.0149 -3.17005 108.052 0.596461 116.363C5.91818 128.157 45.6974 122.079 89.4376 102.767C133.178 83.4549 164.306 58.1856 158.96 46.3917Z" fill="url(#paint13_radial_4674_8270)"/>
<path style="mix-blend-mode:multiply" opacity="0.45" d="M144.234 64.4307C159.179 49.0337 142.023 48.5533 136.944 44.6861C135.413 43.5571 136.166 42.068 137.989 40.5547C129.253 41.2557 120.603 42.7757 112.158 45.0945C113.697 46.4891 115.089 48.0343 116.313 49.7064C131.088 46.9921 141.585 47.9048 143.943 53.0692C148.244 62.6772 123.044 82.9983 87.6878 98.7075C52.3312 114.417 20.1335 119.221 15.8324 109.685C13.2323 103.968 21.2999 94.3118 35.8071 84.1512C35.529 82.154 35.4557 80.134 35.5884 78.1222C31.4898 80.6523 27.6828 83.1664 24.1674 85.6645C26.5974 84.7998 28.4442 84.7037 28.4199 86.0248C28.4199 91.1651 4.80018 109.036 16.6586 113.456C28.5171 117.875 46.1832 116.362 68.8795 108.075C91.5758 99.7883 129.217 79.8516 144.234 64.4307Z" fill="url(#paint14_radial_4674_8270)"/>
<path style="mix-blend-mode:screen" d="M14.2054 95.3449C14.2054 95.3449 -2.95047 109.349 1.86095 116.098C6.67238 122.848 25.5779 121.527 30.1706 118.116C34.7633 114.705 14.1568 117.467 10.4875 112.183C6.81818 106.899 21.9086 89.6762 14.2054 95.3449Z" fill="url(#paint15_radial_4674_8270)"/>
<path style="mix-blend-mode:screen" d="M156.967 45.6235C154.924 44.065 152.555 42.9778 150.032 42.4417C147.509 41.9055 144.897 41.9339 142.387 42.5249C136.774 44.0862 150.795 44.4706 152.885 50.3796C154.975 56.2886 143.165 64.9599 148.584 63.6148C154.003 62.2696 161.657 49.8031 156.967 45.6235Z" fill="url(#paint16_radial_4674_8270)"/>
<defs>
<radialGradient id="paint0_radial_4674_8270" cx="0" cy="0" r="1" gradientUnits="userSpaceOnUse" gradientTransform="translate(80.6013 78.5748) rotate(10.441) scale(55.6258 55.0273)">
<stop stop-color="#F20074"/>
<stop offset="0.38" stop-color="#F10174" stop-opacity="0.99"/>
<stop offset="0.51" stop-color="#ED0376" stop-opacity="0.96"/>
<stop offset="0.61" stop-color="#E70679" stop-opacity="0.92"/>
<stop offset="0.69" stop-color="#DF0B7D" stop-opacity="0.85"/>
<stop offset="0.75" stop-color="#D31182" stop-opacity="0.75"/>
<stop offset="0.81" stop-color="#C51988" stop-opacity="0.64"/>
<stop offset="0.87" stop-color="#B42290" stop-opacity="0.51"/>
<stop offset="0.92" stop-color="#A02D98" stop-opacity="0.35"/>
<stop offset="0.96" stop-color="#8B39A2" stop-opacity="0.18"/>
<stop offset="1" stop-color="#7446AC" stop-opacity="0"/>
</radialGradient>
<radialGradient id="paint1_radial_4674_8270" cx="0" cy="0" r="1" gradientUnits="userSpaceOnUse" gradientTransform="translate(65.0677 55.7726) rotate(10.3794) scale(86.0755 85.1491)">
<stop stop-color="#F20074"/>
<stop offset="0.14" stop-color="#ED0376"/>
<stop offset="0.31" stop-color="#DF0B7D"/>
<stop offset="0.49" stop-color="#C71887"/>
<stop offset="0.67" stop-color="#A62A96"/>
<stop offset="0.87" stop-color="#7B42A9"/>
<stop offset="0.9" stop-color="#7446AC"/>
</radialGradient>
<radialGradient id="paint2_radial_4674_8270" cx="0" cy="0" r="1" gradientUnits="userSpaceOnUse" gradientTransform="translate(80.8568 36.6478) rotate(10.4412) scale(82.4427 81.5572)">
<stop offset="0.05" stop-color="#E0A326"/>
<stop offset="1" stop-color="#CC2DB4"/>
</radialGradient>
<radialGradient id="paint3_radial_4674_8270" cx="0" cy="0" r="1" gradientUnits="userSpaceOnUse" gradientTransform="translate(-7215.17 2957.2) scale(318.026 320.988)">
<stop offset="0.05" stop-color="#E0A326"/>
<stop offset="1" stop-color="#CC2DB4"/>
</radialGradient>
<radialGradient id="paint4_radial_4674_8270" cx="0" cy="0" r="1" gradientUnits="userSpaceOnUse" gradientTransform="translate(-6898.52 2672.8) scale(303.807 289.186)">
<stop offset="0.05" stop-color="#E0A326"/>
<stop offset="1" stop-color="#CC2DB4"/>
</radialGradient>
<radialGradient id="paint5_radial_4674_8270" cx="0" cy="0" r="1" gradientUnits="userSpaceOnUse" gradientTransform="translate(-13654.1 5628.92) scale(594.977 621.907)">
<stop offset="0.05" stop-color="#E0A326"/>
<stop offset="1" stop-color="#CC2DB4"/>
</radialGradient>
<radialGradient id="paint6_radial_4674_8270" cx="0" cy="0" r="1" gradientUnits="userSpaceOnUse" gradientTransform="translate(-6718.19 1476.12) scale(294.477 153.244)">
<stop offset="0.05" stop-color="#E0A326"/>
<stop offset="1" stop-color="#CC2DB4"/>
</radialGradient>
<radialGradient id="paint7_radial_4674_8270" cx="0" cy="0" r="1" gradientUnits="userSpaceOnUse" gradientTransform="translate(-4374.68 2971.2) scale(191.7 324.734)">
<stop offset="0.05" stop-color="#E0A326"/>
<stop offset="1" stop-color="#CC2DB4"/>
</radialGradient>
<radialGradient id="paint8_radial_4674_8270" cx="0" cy="0" r="1" gradientUnits="userSpaceOnUse" gradientTransform="translate(-72080.7 6224.91) rotate(10.4411) scale(1523.33 980.542)">
<stop stop-color="#F20074"/>
<stop offset="0.14" stop-color="#ED0376"/>
<stop offset="0.31" stop-color="#DF0B7D"/>
<stop offset="0.49" stop-color="#C71887"/>
<stop offset="0.67" stop-color="#A62A96"/>
<stop offset="0.87" stop-color="#7B42A9"/>
<stop offset="0.9" stop-color="#7446AC"/>
</radialGradient>
<radialGradient id="paint9_radial_4674_8270" cx="0" cy="0" r="1" gradientUnits="userSpaceOnUse" gradientTransform="translate(80.2227 76.9701) rotate(10.441) scale(42.5574 42.0995)">
<stop stop-color="#FBE877"/>
<stop offset="0.07" stop-color="#F6E87C"/>
<stop offset="0.16" stop-color="#E9E78A"/>
<stop offset="0.25" stop-color="#D4E5A2"/>
<stop offset="0.35" stop-color="#B5E4C3"/>
<stop offset="0.45" stop-color="#8EE1EE"/>
<stop offset="0.62" stop-color="#5E8DEC"/>
<stop offset="0.63" stop-color="#5F89E8"/>
<stop offset="0.74" stop-color="#6B64C7"/>
<stop offset="0.84" stop-color="#714EB3"/>
<stop offset="0.9" stop-color="#7446AC"/>
</radialGradient>
<radialGradient id="paint10_radial_4674_8270" cx="0" cy="0" r="1" gradientUnits="userSpaceOnUse" gradientTransform="translate(-52311.7 13470.3) scale(1702.84 1122.89)">
<stop stop-color="#FBE877"/>
<stop offset="0.07" stop-color="#F6E87C"/>
<stop offset="0.16" stop-color="#E9E78A"/>
<stop offset="0.25" stop-color="#D4E5A2"/>
<stop offset="0.35" stop-color="#B5E4C3"/>
<stop offset="0.45" stop-color="#8EE1EE"/>
<stop offset="0.62" stop-color="#5E8DEC"/>
<stop offset="0.63" stop-color="#5F89E8"/>
<stop offset="0.74" stop-color="#6B64C7"/>
<stop offset="0.84" stop-color="#714EB3"/>
<stop offset="0.9" stop-color="#7446AC"/>
</radialGradient>
<radialGradient id="paint11_radial_4674_8270" cx="0" cy="0" r="1" gradientUnits="userSpaceOnUse" gradientTransform="translate(-14941.6 2190.26) rotate(47.9105) scale(184.936 172.934)">
<stop stop-color="#FBE877"/>
<stop offset="0.07" stop-color="#F6E87C"/>
<stop offset="0.16" stop-color="#E9E78A"/>
<stop offset="0.25" stop-color="#D4E5A2"/>
<stop offset="0.35" stop-color="#B5E4C3"/>
<stop offset="0.45" stop-color="#8EE1EE"/>
<stop offset="0.62" stop-color="#5E8DEC"/>
<stop offset="0.63" stop-color="#5F89E8"/>
<stop offset="0.74" stop-color="#6B64C7"/>
<stop offset="0.84" stop-color="#714EB3"/>
<stop offset="0.9" stop-color="#7446AC"/>
</radialGradient>
<radialGradient id="paint12_radial_4674_8270" cx="0" cy="0" r="1" gradientUnits="userSpaceOnUse" gradientTransform="translate(-4858.25 -183.851) rotate(64.974) scale(44.1644 29.2952)">
<stop stop-color="#FBE877"/>
<stop offset="0.07" stop-color="#F6E87C"/>
<stop offset="0.16" stop-color="#E9E78A"/>
<stop offset="0.25" stop-color="#D4E5A2"/>
<stop offset="0.35" stop-color="#B5E4C3"/>
<stop offset="0.45" stop-color="#8EE1EE"/>
<stop offset="0.62" stop-color="#5E8DEC"/>
<stop offset="0.63" stop-color="#5F89E8"/>
<stop offset="0.74" stop-color="#6B64C7"/>
<stop offset="0.84" stop-color="#714EB3"/>
<stop offset="0.9" stop-color="#7446AC"/>
</radialGradient>
<radialGradient id="paint13_radial_4674_8270" cx="0" cy="0" r="1" gradientUnits="userSpaceOnUse" gradientTransform="translate(-127105 25922.5) scale(16815.8 8641.57)">
<stop stop-color="#FBE877"/>
<stop offset="0.07" stop-color="#F6E87C"/>
<stop offset="0.16" stop-color="#E9E78A"/>
<stop offset="0.25" stop-color="#D4E5A2"/>
<stop offset="0.35" stop-color="#B5E4C3"/>
<stop offset="0.45" stop-color="#8EE1EE"/>
<stop offset="0.62" stop-color="#5E8DEC"/>
<stop offset="0.63" stop-color="#5F89E8"/>
<stop offset="0.74" stop-color="#6B64C7"/>
<stop offset="0.84" stop-color="#714EB3"/>
<stop offset="0.9" stop-color="#7446AC"/>
</radialGradient>
<radialGradient id="paint14_radial_4674_8270" cx="0" cy="0" r="1" gradientUnits="userSpaceOnUse" gradientTransform="translate(-108565 23744.2) scale(12521 6890.31)">
<stop stop-color="#FBE877"/>
<stop offset="0.07" stop-color="#F6E87C"/>
<stop offset="0.16" stop-color="#E9E78A"/>
<stop offset="0.25" stop-color="#D4E5A2"/>
<stop offset="0.35" stop-color="#B5E4C3"/>
<stop offset="0.45" stop-color="#8EE1EE"/>
<stop offset="0.62" stop-color="#5E8DEC"/>
<stop offset="0.63" stop-color="#5F89E8"/>
<stop offset="0.74" stop-color="#6B64C7"/>
<stop offset="0.84" stop-color="#714EB3"/>
<stop offset="0.9" stop-color="#7446AC"/>
</radialGradient>
<radialGradient id="paint15_radial_4674_8270" cx="0" cy="0" r="1" gradientUnits="userSpaceOnUse" gradientTransform="translate(-24021.1 9040.97) scale(691.638 619.347)">
<stop stop-color="#FBE877"/>
<stop offset="0.07" stop-color="#F6E87C"/>
<stop offset="0.16" stop-color="#E9E78A"/>
<stop offset="0.25" stop-color="#D4E5A2"/>
<stop offset="0.35" stop-color="#B5E4C3"/>
<stop offset="0.45" stop-color="#8EE1EE"/>
<stop offset="0.62" stop-color="#5E8DEC"/>
<stop offset="0.63" stop-color="#5F89E8"/>
<stop offset="0.74" stop-color="#6B64C7"/>
<stop offset="0.84" stop-color="#714EB3"/>
<stop offset="0.9" stop-color="#7446AC"/>
</radialGradient>
<radialGradient id="paint16_radial_4674_8270" cx="0" cy="0" r="1" gradientUnits="userSpaceOnUse" gradientTransform="translate(-12962.7 6611.47) scale(271.781 339.741)">
<stop stop-color="#FBE877"/>
<stop offset="0.07" stop-color="#F6E87C"/>
<stop offset="0.16" stop-color="#E9E78A"/>
<stop offset="0.25" stop-color="#D4E5A2"/>
<stop offset="0.35" stop-color="#B5E4C3"/>
<stop offset="0.45" stop-color="#8EE1EE"/>
<stop offset="0.62" stop-color="#5E8DEC"/>
<stop offset="0.63" stop-color="#5F89E8"/>
<stop offset="0.74" stop-color="#6B64C7"/>
<stop offset="0.84" stop-color="#714EB3"/>
<stop offset="0.9" stop-color="#7446AC"/>
</radialGradient>
</defs>
</svg>
