<svg width="160" height="157" viewBox="0 0 160 157" fill="none" xmlns="http://www.w3.org/2000/svg">
<path style="mix-blend-mode:screen" d="M113.185 124.285C139.041 106.759 145.628 71.8332 127.898 46.2757C110.167 20.7183 74.8346 14.2073 48.9793 31.7331C23.1239 49.2588 16.5371 84.1848 34.2671 109.742C51.9972 135.3 87.33 141.811 113.185 124.285Z" fill="url(#paint0_radial_4674_8234)"/>
<path d="M117.481 105.971C133.096 86.094 129.453 57.4686 109.345 42.0341C89.2364 26.5995 60.2775 30.2005 44.663 50.0771C29.0486 69.9537 32.6916 98.5791 52.7998 114.014C72.9081 129.448 101.867 125.847 117.481 105.971Z" fill="url(#paint1_radial_4674_8234)"/>
<path style="mix-blend-mode:screen" d="M120.274 74.448C120.041 73.4194 119.43 72.5132 118.559 71.9051C117.687 71.297 116.619 71.0306 115.56 71.1573C113.539 71.6976 111.672 72.695 110.108 74.0706C108.543 75.4462 107.323 77.1624 106.545 79.0838C106.009 80.8908 105.841 82.7847 106.05 84.6564C106.258 86.528 106.839 88.3403 107.76 89.9888C108.489 91.5501 109.631 93.2555 111.381 93.3997C112.088 93.3794 112.782 93.2002 113.41 92.8755C114.037 92.5509 114.581 92.0894 115.001 91.526C117.39 88.5628 119.054 85.0938 119.861 81.3898C120.625 79.1541 120.768 76.7568 120.274 74.448V74.448Z" fill="url(#paint2_radial_4674_8234)"/>
<path style="mix-blend-mode:screen" d="M115.73 100.558C115.756 100.157 115.681 99.7568 115.51 99.3928C115.339 99.0287 115.078 98.7127 114.752 98.4738C114.426 98.2349 114.044 98.0807 113.642 98.0251C113.24 97.9695 112.83 98.0144 112.45 98.1557C111.664 98.4858 110.947 98.9584 110.336 99.549C108.883 100.666 107.676 102.063 106.788 103.657C106.567 104.013 106.429 104.413 106.382 104.828C106.336 105.244 106.383 105.664 106.521 106.059C106.769 106.535 107.171 106.916 107.663 107.14C108.419 107.44 109.243 107.532 110.048 107.405C110.853 107.278 111.607 106.937 112.231 106.419C113.467 105.357 114.446 104.036 115.099 102.552C115.433 101.932 115.648 101.256 115.73 100.558V100.558Z" fill="url(#paint3_radial_4674_8234)"/>
<path style="mix-blend-mode:screen" d="M98.8405 105.194C101.271 104.45 105.231 100.99 104.527 97.9873C104.47 97.7201 104.344 97.4719 104.162 97.2667C103.952 97.095 103.704 96.9751 103.438 96.9166C103.172 96.8581 102.895 96.8628 102.631 96.9303C101.454 97.1455 100.371 97.7065 99.5209 98.5399C98.2816 99.669 94.3207 102.816 96.1189 104.786C96.4911 105.094 96.9419 105.295 97.4218 105.367C97.9018 105.439 98.3926 105.379 98.8405 105.194Z" fill="url(#paint4_radial_4674_8234)"/>
<path style="mix-blend-mode:screen" d="M50.1196 90.0127C49.5356 89.7126 48.896 89.5329 48.2395 89.4845C47.5831 89.4361 46.9236 89.52 46.301 89.7312C45.6784 89.9423 45.1056 90.2763 44.6175 90.7128C44.1294 91.1493 43.7361 91.6794 43.4614 92.2707C43.1966 93.8339 43.2767 95.4352 43.6961 96.965C44.1155 98.4948 44.8643 99.917 45.8914 101.134C48.3214 104.473 51.7963 107.596 55.976 107.764C56.6993 107.849 57.4327 107.761 58.1139 107.506C58.7951 107.251 59.4039 106.836 59.8883 106.299C60.2915 105.749 60.5654 105.117 60.6902 104.449C60.9598 102.847 60.8617 101.206 60.4033 99.6471C59.9448 98.0879 59.1376 96.6505 58.0415 95.4413C55.8703 93.0402 53.156 91.1802 50.1196 90.0127V90.0127Z" fill="url(#paint5_radial_4674_8234)"/>
<path style="mix-blend-mode:screen" d="M69.2438 112.88C67.1098 111.446 64.5025 110.87 61.9538 111.271C61.7878 111.349 61.6399 111.461 61.5195 111.598C61.3991 111.736 61.3086 111.896 61.2539 112.07C61.1992 112.243 61.1813 112.426 61.2013 112.607C61.2214 112.788 61.2791 112.963 61.3706 113.12C61.7757 113.748 62.3974 114.208 63.1202 114.417C65.21 115.186 67.3727 116.627 69.3653 114.705C69.5515 114.564 69.6952 114.376 69.7809 114.16C69.8665 113.944 69.8909 113.709 69.8513 113.48C69.7212 113.22 69.5077 113.009 69.2438 112.88V112.88Z" fill="url(#paint6_radial_4674_8234)"/>
<path style="mix-blend-mode:screen" d="M44.1663 82.7113C43.9476 81.1978 42.4653 78.219 40.4484 78.8196C40.0795 78.9758 39.7555 79.2199 39.5053 79.5301C39.2551 79.8403 39.0866 80.2069 39.0147 80.5973C38.6894 81.4953 38.5477 82.4482 38.5977 83.4008C38.6478 84.3534 38.8886 85.2867 39.3063 86.1465C39.6604 87.0007 40.305 87.7059 41.1288 88.1405C41.4032 88.276 41.7107 88.332 42.016 88.3023C42.3212 88.2725 42.6117 88.1582 42.8541 87.9723C43.0641 87.7767 43.2297 87.5392 43.3401 87.2756C44.0934 85.8777 44.3825 84.2808 44.1663 82.7113V82.7113Z" fill="url(#paint7_radial_4674_8234)"/>
<path style="mix-blend-mode:multiply" opacity="0.5" d="M35.0547 80.5729C35.8024 91.6123 40.5816 102.007 48.5033 109.824C56.425 117.641 66.9495 122.347 78.1189 123.066C89.2882 123.786 100.342 120.47 109.223 113.736C118.104 107.002 124.208 97.308 126.399 86.4579C127.83 78.9343 127.312 71.175 124.892 63.9028C124.428 69.1026 122.142 73.979 118.428 77.6905C116.306 80.4496 113.223 82.3324 109.777 82.9749C107.633 83.0198 105.507 82.5846 103.557 81.7018C100.7 80.4025 97.762 79.2873 94.76 78.3631C91.7172 77.4415 88.4372 77.6639 85.5503 78.9876C82.2455 80.7411 80.423 84.248 78.2602 87.2025C75.1519 91.4629 70.5686 94.4462 65.3812 95.5855C61.5295 96.1547 57.5958 95.8005 53.9116 94.5527C46.074 92.3968 39.343 87.4067 35.0547 80.5729V80.5729Z" fill="url(#paint8_radial_4674_8234)"/>
<path style="mix-blend-mode:screen" opacity="0.25" d="M41.1531 59.6515C41.1531 59.6515 43.5831 48.2659 62.3914 38.85C81.1997 29.4341 100.883 36.448 100.98 43.0535C101.077 49.6591 93.3011 52.6616 77.9192 56.697C62.5372 60.7324 92.4992 112.376 102.73 107.139C112.96 101.903 118.16 93.0395 118.209 99.9333C118.257 106.827 91.7459 124.506 74.8087 119.822C57.8716 115.138 88.6841 116.795 92.5964 111.463C96.5087 106.131 72.9619 94.2165 68.8552 70.8449C64.7485 47.4733 39.768 75.4568 41.1531 59.6515Z" fill="url(#paint9_radial_4674_8234)"/>
<path style="mix-blend-mode:screen" opacity="0.25" d="M59.622 40.8194C51.1425 45.2062 44.7585 52.7253 41.8586 61.7409C36.8771 77.0418 49.659 82.062 56.5602 76.3692C63.4614 70.6765 68.0055 63.1582 83.5819 60.2757C99.1583 57.3933 108.587 61.2846 107.226 49.2985C105.865 37.3124 79.4509 28.1367 59.622 40.8194Z" fill="url(#paint10_radial_4674_8234)"/>
<path style="mix-blend-mode:screen" opacity="0.45" d="M55.5396 47.2566C51.0441 51.2199 48.9786 56.1921 50.9226 58.3539C52.8666 60.5157 58.2126 59.0505 62.5866 55.0631C66.9607 51.0758 69.1477 46.1277 67.2037 43.9899C65.2597 41.8521 60.0351 43.2212 55.5396 47.2566Z" fill="url(#paint11_radial_4674_8234)"/>
<path style="mix-blend-mode:screen" d="M71.99 37.9615C69.56 39.1146 67.9076 41.0124 68.4665 42.2135C69.0254 43.4147 71.5283 43.4387 74.0312 42.2135C76.5341 40.9884 78.0893 39.1627 77.5304 37.9615C76.9715 36.7604 74.4929 36.8084 71.99 37.9615Z" fill="url(#paint12_radial_4674_8234)"/>
<path d="M158.96 46.3921C155.461 38.5856 136.871 38.6336 112.061 45.095C113.6 46.4896 114.992 48.0348 116.216 49.7069C130.991 46.9926 141.488 47.9054 143.846 53.0697C148.147 62.6777 122.947 82.9987 87.5908 98.7079C52.2342 114.417 20.0365 119.221 15.7354 109.685C13.1353 103.968 21.2029 94.3122 35.7101 84.1517C35.432 82.1544 35.3587 80.1345 35.4914 78.1226C11.1913 93.0151 -3.17005 108.052 0.596461 116.363C5.91818 128.157 45.6974 122.079 89.4376 102.767C133.178 83.4551 164.306 58.186 158.96 46.3921Z" fill="url(#paint13_radial_4674_8234)"/>
<path style="mix-blend-mode:multiply" opacity="0.45" d="M144.234 64.4312C159.179 49.0342 142.023 48.5538 136.944 44.6866C135.413 43.5576 136.166 42.0684 137.989 40.5552C129.253 41.2561 120.603 42.7762 112.158 45.095C113.697 46.4896 115.089 48.0348 116.313 49.7069C131.088 46.9926 141.585 47.9053 143.943 53.0697C148.244 62.6778 123.044 82.9988 87.6878 98.708C52.3312 114.417 20.1335 119.221 15.8324 109.685C13.2323 103.968 21.2999 94.3123 35.8071 84.1518C35.529 82.1545 35.4557 80.1346 35.5884 78.1227C31.4898 80.6528 27.6828 83.167 24.1674 85.6651C26.5974 84.8004 28.4442 84.7043 28.4199 86.0254C28.4199 91.1657 4.80018 109.037 16.6586 113.456C28.5171 117.876 46.1832 116.363 68.8795 108.076C91.5758 99.7889 129.217 79.8521 144.234 64.4312Z" fill="url(#paint14_radial_4674_8234)"/>
<path style="mix-blend-mode:screen" d="M14.2054 95.3454C14.2054 95.3454 -2.95047 109.349 1.86095 116.099C6.67237 122.848 25.5778 121.527 30.1706 118.116C34.7633 114.706 14.1568 117.468 10.4875 112.184C6.81817 106.899 21.9085 89.6767 14.2054 95.3454Z" fill="url(#paint15_radial_4674_8234)"/>
<path style="mix-blend-mode:screen" d="M156.967 45.6235C154.924 44.065 152.555 42.9778 150.032 42.4417C147.509 41.9055 144.897 41.9339 142.387 42.5249C136.774 44.0862 150.795 44.4705 152.885 50.3795C154.975 56.2885 143.165 64.9598 148.584 63.6146C154.003 62.2695 161.657 49.803 156.967 45.6235Z" fill="url(#paint16_radial_4674_8234)"/>
<defs>
<radialGradient id="paint0_radial_4674_8234" cx="0" cy="0" r="1" gradientUnits="userSpaceOnUse" gradientTransform="translate(80.6013 78.5748) rotate(10.441) scale(55.6258 55.0274)">
<stop stop-color="#F20074"/>
<stop offset="0.38" stop-color="#F10174" stop-opacity="0.99"/>
<stop offset="0.51" stop-color="#ED0376" stop-opacity="0.96"/>
<stop offset="0.61" stop-color="#E70679" stop-opacity="0.92"/>
<stop offset="0.69" stop-color="#DF0B7D" stop-opacity="0.85"/>
<stop offset="0.75" stop-color="#D31182" stop-opacity="0.75"/>
<stop offset="0.81" stop-color="#C51988" stop-opacity="0.64"/>
<stop offset="0.87" stop-color="#B42290" stop-opacity="0.51"/>
<stop offset="0.92" stop-color="#A02D98" stop-opacity="0.35"/>
<stop offset="0.96" stop-color="#8B39A2" stop-opacity="0.18"/>
<stop offset="1" stop-color="#7446AC" stop-opacity="0"/>
</radialGradient>
<radialGradient id="paint1_radial_4674_8234" cx="0" cy="0" r="1" gradientUnits="userSpaceOnUse" gradientTransform="translate(65.0677 55.7727) rotate(10.3794) scale(86.0755 85.1488)">
<stop stop-color="#F20074"/>
<stop offset="0.14" stop-color="#ED0376"/>
<stop offset="0.31" stop-color="#DF0B7D"/>
<stop offset="0.49" stop-color="#C71887"/>
<stop offset="0.67" stop-color="#A62A96"/>
<stop offset="0.87" stop-color="#7B42A9"/>
<stop offset="0.9" stop-color="#7446AC"/>
</radialGradient>
<radialGradient id="paint2_radial_4674_8234" cx="0" cy="0" r="1" gradientUnits="userSpaceOnUse" gradientTransform="translate(80.8567 36.6499) rotate(10.4409) scale(82.4428 81.5546)">
<stop offset="0.05" stop-color="#E0A326"/>
<stop offset="1" stop-color="#CC2DB4"/>
</radialGradient>
<radialGradient id="paint3_radial_4674_8234" cx="0" cy="0" r="1" gradientUnits="userSpaceOnUse" gradientTransform="translate(-7215.14 2957.57) scale(318.025 321.03)">
<stop offset="0.05" stop-color="#E0A326"/>
<stop offset="1" stop-color="#CC2DB4"/>
</radialGradient>
<radialGradient id="paint4_radial_4674_8234" cx="0" cy="0" r="1" gradientUnits="userSpaceOnUse" gradientTransform="translate(-6898.5 2672.87) scale(303.806 289.194)">
<stop offset="0.05" stop-color="#E0A326"/>
<stop offset="1" stop-color="#CC2DB4"/>
</radialGradient>
<radialGradient id="paint5_radial_4674_8234" cx="0" cy="0" r="1" gradientUnits="userSpaceOnUse" gradientTransform="translate(-13654.1 5629.07) scale(594.976 621.924)">
<stop offset="0.05" stop-color="#E0A326"/>
<stop offset="1" stop-color="#CC2DB4"/>
</radialGradient>
<radialGradient id="paint6_radial_4674_8234" cx="0" cy="0" r="1" gradientUnits="userSpaceOnUse" gradientTransform="translate(-6718.22 1476.12) scale(294.478 153.244)">
<stop offset="0.05" stop-color="#E0A326"/>
<stop offset="1" stop-color="#CC2DB4"/>
</radialGradient>
<radialGradient id="paint7_radial_4674_8234" cx="0" cy="0" r="1" gradientUnits="userSpaceOnUse" gradientTransform="translate(-4374.67 2971.65) scale(191.699 324.783)">
<stop offset="0.05" stop-color="#E0A326"/>
<stop offset="1" stop-color="#CC2DB4"/>
</radialGradient>
<radialGradient id="paint8_radial_4674_8234" cx="0" cy="0" r="1" gradientUnits="userSpaceOnUse" gradientTransform="translate(-72080.7 6224.89) rotate(10.4411) scale(1523.32 980.538)">
<stop stop-color="#F20074"/>
<stop offset="0.14" stop-color="#ED0376"/>
<stop offset="0.31" stop-color="#DF0B7D"/>
<stop offset="0.49" stop-color="#C71887"/>
<stop offset="0.67" stop-color="#A62A96"/>
<stop offset="0.87" stop-color="#7B42A9"/>
<stop offset="0.9" stop-color="#7446AC"/>
</radialGradient>
<radialGradient id="paint9_radial_4674_8234" cx="0" cy="0" r="1" gradientUnits="userSpaceOnUse" gradientTransform="translate(80.2228 76.9707) rotate(10.4411) scale(42.5574 42.0996)">
<stop stop-color="#FBE877"/>
<stop offset="0.07" stop-color="#F6E87C"/>
<stop offset="0.16" stop-color="#E9E78A"/>
<stop offset="0.25" stop-color="#D4E5A2"/>
<stop offset="0.35" stop-color="#B5E4C3"/>
<stop offset="0.45" stop-color="#8EE1EE"/>
<stop offset="0.62" stop-color="#5E8DEC"/>
<stop offset="0.63" stop-color="#5F89E8"/>
<stop offset="0.74" stop-color="#6B64C7"/>
<stop offset="0.84" stop-color="#714EB3"/>
<stop offset="0.9" stop-color="#7446AC"/>
</radialGradient>
<radialGradient id="paint10_radial_4674_8234" cx="0" cy="0" r="1" gradientUnits="userSpaceOnUse" gradientTransform="translate(-52311.7 13470.3) scale(1702.84 1122.89)">
<stop stop-color="#FBE877"/>
<stop offset="0.07" stop-color="#F6E87C"/>
<stop offset="0.16" stop-color="#E9E78A"/>
<stop offset="0.25" stop-color="#D4E5A2"/>
<stop offset="0.35" stop-color="#B5E4C3"/>
<stop offset="0.45" stop-color="#8EE1EE"/>
<stop offset="0.62" stop-color="#5E8DEC"/>
<stop offset="0.63" stop-color="#5F89E8"/>
<stop offset="0.74" stop-color="#6B64C7"/>
<stop offset="0.84" stop-color="#714EB3"/>
<stop offset="0.9" stop-color="#7446AC"/>
</radialGradient>
<radialGradient id="paint11_radial_4674_8234" cx="0" cy="0" r="1" gradientUnits="userSpaceOnUse" gradientTransform="translate(-14941.6 2190.21) rotate(47.9098) scale(184.933 172.932)">
<stop stop-color="#FBE877"/>
<stop offset="0.07" stop-color="#F6E87C"/>
<stop offset="0.16" stop-color="#E9E78A"/>
<stop offset="0.25" stop-color="#D4E5A2"/>
<stop offset="0.35" stop-color="#B5E4C3"/>
<stop offset="0.45" stop-color="#8EE1EE"/>
<stop offset="0.62" stop-color="#5E8DEC"/>
<stop offset="0.63" stop-color="#5F89E8"/>
<stop offset="0.74" stop-color="#6B64C7"/>
<stop offset="0.84" stop-color="#714EB3"/>
<stop offset="0.9" stop-color="#7446AC"/>
</radialGradient>
<radialGradient id="paint12_radial_4674_8234" cx="0" cy="0" r="1" gradientUnits="userSpaceOnUse" gradientTransform="translate(-4858.26 -183.846) rotate(64.9735) scale(44.1637 29.2952)">
<stop stop-color="#FBE877"/>
<stop offset="0.07" stop-color="#F6E87C"/>
<stop offset="0.16" stop-color="#E9E78A"/>
<stop offset="0.25" stop-color="#D4E5A2"/>
<stop offset="0.35" stop-color="#B5E4C3"/>
<stop offset="0.45" stop-color="#8EE1EE"/>
<stop offset="0.62" stop-color="#5E8DEC"/>
<stop offset="0.63" stop-color="#5F89E8"/>
<stop offset="0.74" stop-color="#6B64C7"/>
<stop offset="0.84" stop-color="#714EB3"/>
<stop offset="0.9" stop-color="#7446AC"/>
</radialGradient>
<radialGradient id="paint13_radial_4674_8234" cx="0" cy="0" r="1" gradientUnits="userSpaceOnUse" gradientTransform="translate(-127105 25922.3) scale(16815.8 8641.52)">
<stop stop-color="#FBE877"/>
<stop offset="0.07" stop-color="#F6E87C"/>
<stop offset="0.16" stop-color="#E9E78A"/>
<stop offset="0.25" stop-color="#D4E5A2"/>
<stop offset="0.35" stop-color="#B5E4C3"/>
<stop offset="0.45" stop-color="#8EE1EE"/>
<stop offset="0.62" stop-color="#5E8DEC"/>
<stop offset="0.63" stop-color="#5F89E8"/>
<stop offset="0.74" stop-color="#6B64C7"/>
<stop offset="0.84" stop-color="#714EB3"/>
<stop offset="0.9" stop-color="#7446AC"/>
</radialGradient>
<radialGradient id="paint14_radial_4674_8234" cx="0" cy="0" r="1" gradientUnits="userSpaceOnUse" gradientTransform="translate(-108565 23744.2) scale(12521 6890.32)">
<stop stop-color="#FBE877"/>
<stop offset="0.07" stop-color="#F6E87C"/>
<stop offset="0.16" stop-color="#E9E78A"/>
<stop offset="0.25" stop-color="#D4E5A2"/>
<stop offset="0.35" stop-color="#B5E4C3"/>
<stop offset="0.45" stop-color="#8EE1EE"/>
<stop offset="0.62" stop-color="#5E8DEC"/>
<stop offset="0.63" stop-color="#5F89E8"/>
<stop offset="0.74" stop-color="#6B64C7"/>
<stop offset="0.84" stop-color="#714EB3"/>
<stop offset="0.9" stop-color="#7446AC"/>
</radialGradient>
<radialGradient id="paint15_radial_4674_8234" cx="0" cy="0" r="1" gradientUnits="userSpaceOnUse" gradientTransform="translate(-24021.1 9040.97) scale(691.637 619.347)">
<stop stop-color="#FBE877"/>
<stop offset="0.07" stop-color="#F6E87C"/>
<stop offset="0.16" stop-color="#E9E78A"/>
<stop offset="0.25" stop-color="#D4E5A2"/>
<stop offset="0.35" stop-color="#B5E4C3"/>
<stop offset="0.45" stop-color="#8EE1EE"/>
<stop offset="0.62" stop-color="#5E8DEC"/>
<stop offset="0.63" stop-color="#5F89E8"/>
<stop offset="0.74" stop-color="#6B64C7"/>
<stop offset="0.84" stop-color="#714EB3"/>
<stop offset="0.9" stop-color="#7446AC"/>
</radialGradient>
<radialGradient id="paint16_radial_4674_8234" cx="0" cy="0" r="1" gradientUnits="userSpaceOnUse" gradientTransform="translate(-12962.7 6611.43) scale(271.781 339.739)">
<stop stop-color="#FBE877"/>
<stop offset="0.07" stop-color="#F6E87C"/>
<stop offset="0.16" stop-color="#E9E78A"/>
<stop offset="0.25" stop-color="#D4E5A2"/>
<stop offset="0.35" stop-color="#B5E4C3"/>
<stop offset="0.45" stop-color="#8EE1EE"/>
<stop offset="0.62" stop-color="#5E8DEC"/>
<stop offset="0.63" stop-color="#5F89E8"/>
<stop offset="0.74" stop-color="#6B64C7"/>
<stop offset="0.84" stop-color="#714EB3"/>
<stop offset="0.9" stop-color="#7446AC"/>
</radialGradient>
</defs>
</svg>
